<svg width="40" height="29" viewBox="0 0 40 29" fill="none" xmlns="http://www.w3.org/2000/svg">
<path d="M0.103516 3.53613L10.7041 13.4034L12.2709 14.8634L0.270192 26.4308L0.116847 26.1441L0.103516 3.53613Z" fill="black"/>
<path d="M38.5323 0.669205L20.0046 18.5036L1.17688 0.909218C1.5683 0.543096 2.06524 0.309789 2.59696 0.242514C2.80342 0.229058 3.01054 0.229058 3.21699 0.242514H36.8856C37.4649 0.216525 38.0386 0.365182 38.5323 0.669205V0.669205Z" fill="black"/>
<path d="M25.8917 16.4634L38.5191 28.2441C38.0991 28.3574 37.759 28.4774 37.4124 28.5441C37.1908 28.5686 36.9672 28.5686 36.7456 28.5441H3.33707C2.92371 28.5441 2.51036 28.4707 2.09033 28.4307V28.3174L14.2044 16.6367L14.591 16.9901L18.9646 21.0636C19.0887 21.2305 19.2501 21.3661 19.4359 21.4594C19.6217 21.5528 19.8267 21.6015 20.0347 21.6015C20.2426 21.6015 20.4477 21.5528 20.6335 21.4594C20.8193 21.3661 20.9807 21.2305 21.1048 21.0636L25.5517 16.7834C25.6517 16.6767 25.7584 16.5834 25.8917 16.4634Z" fill="black"/>
<path d="M27.7384 14.6568L39.8191 3.01611V25.9374L27.7384 14.6568Z" fill="black"/>
</svg>
