<svg width="29" height="28" viewBox="0 0 29 28" fill="none" xmlns="http://www.w3.org/2000/svg">
<path d="M14.0566 2.51855C17.797 2.51855 18.2382 2.51855 19.7133 2.59746C20.602 2.60811 21.4821 2.77276 22.3144 3.08408C22.9231 3.30508 23.4729 3.66281 23.9212 4.12964C24.3844 4.58079 24.742 5.12873 24.9682 5.73415C25.2776 6.56571 25.4402 7.44455 25.4489 8.33161C25.5148 9.8046 25.5279 10.2452 25.5279 13.9737C25.5279 17.7022 25.5279 18.1494 25.4489 19.6224C25.4402 20.5094 25.2776 21.3883 24.9682 22.2198C24.742 22.8252 24.3844 23.3732 23.9212 23.8243C23.4729 24.2912 22.9231 24.6489 22.3144 24.8699C21.4812 25.1779 20.6016 25.3425 19.7133 25.3565C18.2382 25.4223 17.797 25.4354 14.0566 25.4354C10.3163 25.4354 9.87507 25.4354 8.4 25.3565C7.51162 25.3425 6.63208 25.1779 5.79887 24.8699C5.19014 24.6489 4.64041 24.2912 4.19209 23.8243C3.72168 23.3752 3.35727 22.8271 3.12531 22.2198C2.81593 21.3883 2.65329 20.5094 2.64459 19.6224C2.57874 18.1494 2.56557 17.7088 2.56557 13.9737C2.56557 10.2386 2.56557 9.8046 2.64459 8.33161C2.65329 7.44455 2.81593 6.56571 3.12531 5.73415C3.35151 5.12873 3.70906 4.58079 4.17234 4.12964C4.62065 3.66281 5.17039 3.30508 5.77911 3.08408C6.61757 2.78247 7.50222 2.62894 8.39341 2.63034C9.86848 2.56458 10.3097 2.55143 14.05 2.55143M14.05 0.0328793C10.2504 0.0328793 9.76971 0.0328793 8.28147 0.118365C7.11939 0.140849 5.9699 0.363304 4.88354 0.775951C3.94807 1.12541 3.10066 1.67534 2.40094 2.38704C1.68837 3.08333 1.13762 3.92738 0.787581 4.85956C0.381329 5.94636 0.158793 7.09303 0.129067 8.2527C0.0632159 9.74542 0.0500488 10.2255 0.0500488 14.0132C0.0500488 17.8008 0.0500456 18.2875 0.129067 19.7802C0.158793 20.9398 0.381329 22.0865 0.787581 23.1733C1.14728 24.1017 1.69752 24.9445 2.40294 25.6478C3.10835 26.3511 3.95332 26.8992 4.88354 27.2569C5.9699 27.6696 7.11939 27.892 8.28147 27.9145C9.76971 27.9803 10.257 28 14.05 28C17.8431 28 18.3304 28 19.8186 27.9145C20.9807 27.892 22.1302 27.6696 23.2166 27.2569C24.1468 26.8992 24.9917 26.3511 25.6972 25.6478C26.4026 24.9445 26.9528 24.1017 27.3125 23.1733C27.7188 22.0865 27.9413 20.9398 27.971 19.7802C28.0369 18.2875 28.05 17.8074 28.05 14.0132C28.05 10.2189 28.05 9.74542 27.971 8.2527C27.9413 7.09303 27.7188 5.94636 27.3125 4.85956C26.9625 3.92738 26.4117 3.08333 25.6992 2.38704C24.9994 1.67534 24.152 1.12541 23.2166 0.775951C22.1302 0.363304 20.9807 0.140849 19.8186 0.118365C18.337 0 17.8563 0 14.0566 0" fill="black"/>
<path d="M14.5569 7C13.073 6.99864 11.622 7.43753 10.3876 8.26112C9.15314 9.08471 8.19078 10.256 7.62227 11.6267C7.05376 12.9974 6.90466 14.506 7.19383 15.9615C7.483 17.417 8.19744 18.754 9.24674 19.8033C10.2961 20.8526 11.6331 21.567 13.0886 21.8562C14.5441 22.1454 16.0526 21.9963 17.4234 21.4278C18.7941 20.8593 19.9653 19.8969 20.7889 18.6625C21.6125 17.4281 22.0514 15.9771 22.05 14.4931C22.05 12.5058 21.2606 10.5999 19.8554 9.19469C18.4501 7.78946 16.5442 7 14.5569 7ZM14.5569 19.3626C13.5935 19.364 12.6514 19.0796 11.8497 18.5453C11.048 18.0111 10.4228 17.251 10.0532 16.3614C9.68357 15.4717 9.58615 14.4924 9.77327 13.5474C9.96038 12.6023 10.4236 11.734 11.1044 11.0523C11.7851 10.3706 12.6527 9.90615 13.5975 9.7177C14.5423 9.52926 15.5217 9.62529 16.4119 9.99364C17.3021 10.362 18.063 10.9861 18.5984 11.7871C19.1338 12.588 19.4195 13.5297 19.4195 14.4931C19.4205 15.1323 19.2953 15.7653 19.0514 16.3561C18.8074 16.9468 18.4494 17.4837 17.9977 17.936C17.5461 18.3882 17.0098 18.747 16.4194 18.9918C15.8289 19.2366 15.1961 19.3626 14.5569 19.3626Z" fill="black"/>
<path d="M24.0114 6.49455C24.0128 6.79295 23.8967 7.08489 23.6779 7.33304C23.459 7.5812 23.1474 7.77428 22.7829 7.88761C22.4184 8.00094 22.0176 8.02936 21.6316 7.96924C21.2457 7.90912 20.8922 7.76319 20.6164 7.55011C20.3405 7.33703 20.1549 7.06648 20.0831 6.77307C20.0114 6.47965 20.0569 6.1767 20.2137 5.90296C20.3705 5.62921 20.6316 5.39711 20.9636 5.23634C21.2955 5.07556 21.6832 4.99342 22.0771 5.00041C22.6004 5.00041 23.1022 5.15783 23.4722 5.43804C23.8422 5.71824 24.05 6.09828 24.05 6.49455" fill="black"/>
</svg>
