<svg width="45" height="28" viewBox="0 0 45 28" fill="none" xmlns="http://www.w3.org/2000/svg">
<path d="M15.9335 26.665C16.951 26.4662 17.9154 26.0532 18.7638 25.4532C19.6122 24.8531 20.3255 24.0795 20.8571 23.1827C21.6577 21.8939 22.0712 20.3991 22.0475 18.8787C22.0842 17.4862 21.7177 16.113 20.993 14.9269C20.2538 13.7892 19.1548 12.9366 17.8745 12.5076C18.65 12.1384 19.345 11.6175 19.919 10.9751C20.7852 9.83847 21.2232 8.42882 21.1547 6.99719C21.1946 5.52601 20.7636 4.08095 19.9254 2.87583C18.5668 1.01078 16.2549 0.0521692 12.9898 0H0.0500488V26.9976H12.1163C13.3967 27.0183 14.6757 26.9068 15.9335 26.665ZM5.40709 4.68871H11.23C12.3002 4.65998 13.3681 4.80306 14.3937 5.11258C15.3599 5.51689 15.8408 6.34725 15.8365 7.60366C15.8841 8.06198 15.8075 8.52472 15.615 8.94269C15.4224 9.36066 15.1211 9.71822 14.7431 9.97736C13.8773 10.4507 12.8996 10.6763 11.9158 10.6295H5.40709V4.68871ZM5.40709 22.2958V15.1225H11.9999C12.9143 15.0877 13.8261 15.2431 14.6784 15.579C15.2266 15.8206 15.6861 16.2291 15.9924 16.7471C16.2988 17.2652 16.4365 17.8669 16.3864 18.4679C16.3864 20.1286 15.7998 21.2524 14.6266 21.8393C13.7689 22.1978 12.8432 22.3603 11.9158 22.3154L5.40709 22.2958Z" fill="black"/>
<path d="M27.1224 25.4449C29.1261 27.1276 31.6422 28.0319 34.2297 27.9991C37.4867 27.9991 40.0184 26.9896 41.8249 24.9706C42.8574 23.9714 43.5507 22.6582 43.8028 21.2239H38.4163C38.0588 21.9919 37.4829 22.6303 36.7649 23.0549C36.0468 23.4795 35.2203 23.6703 34.3945 23.602C33.3594 23.6419 32.3353 23.3712 31.4474 22.8229C30.1288 21.9827 29.4234 20.5261 29.3377 18.4461H44.0335C44.0817 17.0704 44.0244 15.6931 43.8621 14.3267C43.6539 12.7911 43.1033 11.3258 42.2534 10.0448C41.4003 8.70006 40.1899 7.63492 38.7657 6.97558C37.2689 6.308 35.6502 5.97764 34.0187 6.00672C32.6936 5.95675 31.3725 6.18581 30.1366 6.67983C28.9008 7.17385 27.7763 7.92238 26.8323 8.87942C24.9775 10.7946 24.0501 13.5498 24.0501 17.1452C24.0457 20.971 25.0698 23.7375 27.1224 25.4449ZM30.8936 11.6573C31.3117 11.2485 31.8074 10.9328 32.3497 10.7299C32.892 10.5271 33.4691 10.4415 34.0451 10.4784C35.1862 10.4422 36.3005 10.8375 37.1768 11.5895C37.6142 12.0103 37.9641 12.5179 38.2055 13.0814C38.4468 13.645 38.5746 14.253 38.5811 14.8687H29.4695C29.5989 13.6696 30.0978 12.5443 30.8936 11.6573Z" fill="black"/>
<path d="M39.05 2H28.05V4H39.05V2Z" fill="black"/>
</svg>
