<svg id="Capa_1" data-name="Capa 1" xmlns="http://www.w3.org/2000/svg" viewBox="0 0 57.52 14.99"><defs><style>.cls-1{fill:#1d1d1b;}</style></defs><path class="cls-1" d="M36.46,14.91h.08V15C36.48,15,36.46,15,36.46,14.91Zm-1.08-.05v-.08h.13v.08Zm2.28,0v-.08h0v.08Zm-1.6-.13h.1v.08C36.1,14.8,36.06,14.78,36.06,14.73Zm-1.5,0V14.6h.08v.13Zm2.16,0v-.08a.45.45,0,0,0,0-.13h.13v0S36.83,14.66,36.72,14.73Zm-1.52,0V14.6h0v.09Zm1.3,0V14.6h.13v.09Zm-3-2.12a.22.22,0,0,0,.05-.16l.08,0,.09,0,0-.1v0c.08,0,.12,0,.12,0a.46.46,0,0,1,0-.13s0,0,0,0l-.12,0v0h.08l.09,0h0v0c-.08,0-.13,0-.13-.08v-.05h0l.09.05v-.17h-.13c0-.12.09-.18.13-.18l.09.05a.41.41,0,0,1,0-.22.31.31,0,0,1,0-.12H34l.21,0s0-.08-.12-.08v0l0-.08a0,0,0,0,1,0-.05h.12l0-.08a.77.77,0,0,0,.34-.08l.08,0c.14,0,.21-.08.22-.16a.36.36,0,0,1-.13-.05v.09h0s0,0,0,0l-.08,0h-.05v-.09c.12,0,.18,0,.18-.08l.08,0H35v0q-.18,0-.18-.09l.09,0,.22.17v-.13H35v-.09h0a.48.48,0,0,0,.26.09c0-.08,0-.13.08-.13a.3.3,0,0,0,.13,0v.13h0s0,0,0,0a.5.5,0,0,1-.22.09l0,.08a1,1,0,0,1,.36-.08v.08h0V10.6s0,0,0,0a.12.12,0,0,0,.13-.13.77.77,0,0,1,.34.13v0s-.08-.09-.23-.21l.1-.05.16.09v-.13h.1v.09l0,.08h.08v0l-.08.13c0,.06,0,.09.08.09h.05v-.13h.09a2.2,2.2,0,0,1,.08.26.33.33,0,0,1,.22-.09V10.6l-.09,0a.08.08,0,0,1-.08-.09c.08,0,.13-.06.13-.17h.08v0a.27.27,0,0,0,0,.13c.06,0,.09-.06.09-.17h.08c0,.15.05.22.13.22v0l0-.08h.18L37,10.38l.1,0,.11.08h.1V10.3l.08,0h.05l-.05-.09v0h.09v.09h0l.13-.09c.06,0,.09,0,.09.13h.08a.78.78,0,0,0,.09-.22s0,0,0,.05l.09-.05a.08.08,0,0,1,.09.09l0,.09h.13c.05,0,.08-.05.08-.09l-.08-.13h.13v.09h0c.05,0,.08-.05.08-.09l0-.09h0l.21.13h.05l-.13-.21h0c.06,0,.09,0,.09.13s.08,0,.13-.13h-.09V9.83l.09,0,.13,0,0,.08v0l-.09,0a.36.36,0,0,1-.13.21,0,0,0,0,1,0,.05l.08-.05h0l0,.09h0l.17-.13a.27.27,0,0,0,.13,0,.27.27,0,0,1,.13,0v0h0a.43.43,0,0,1-.17,0l0-.09,0-.08.09,0s.09-.06.13-.17a0,0,0,0,1,0,0l.09,0h.09v.08h-.09v.05a.28.28,0,0,1,.17.08h.08l0-.08V9.78h.13l0,.08a0,0,0,0,1,0,.05,1.38,1.38,0,0,0,.29-.21h0v.08h.08V9.7l0-.1c.12,0,.17-.06.17-.13h.09v.18h0l-.09-.05v.05l0,.21.18-.16.12,0,0-.08V9.57l.09,0s0-.08.08-.08.09.11.26.21h0A.61.61,0,0,1,41,9.44h.08a.14.14,0,0,0,.16.16V9.47h-.08v0c0-.07,0-.1.08-.1h0c0,.12.06.18.13.18v0c-.05,0-.08,0-.08-.08l.29-.08,0-.09v0h.18c-.06.07-.09.11-.09.13l.09,0h.08c0-.05,0-.08.13-.08l0-.21h0c.14.06.21.1.21.13a0,0,0,0,0,.05,0l.21,0h.05c0-.15,0-.24,0-.26h.08v.13h.08L42.87,9a.34.34,0,0,1,.05.17h0a.54.54,0,0,1,.13-.26h.08v.05l0,.08.09.05h0l0-.22h.05l.13.09s0-.05,0-.05l0-.08c0-.06,0-.09.08-.09l.08.17c.09,0,.13,0,.13-.08l.1,0,.08,0L43.9,8.7v0q.08,0,.18.18s-.08,0-.08.09V9h0a.31.31,0,0,1,.09-.17Q44,8.77,44,8.7l.13-.08s0,0,.05,0l0-.08.09,0s.08-.09.13-.26c.11,0,.17,0,.17-.13a.07.07,0,0,1,.08.08c-.06,0-.08,0-.08.08l.17,0,0-.08v0a1.78,1.78,0,0,0,.34-.08s0,.08.08.08h.1l0-.08V8.18h.18v.13l-.05.08h.05a.07.07,0,0,0,.08-.08l.08,0h.05l.08,0,0-.08,0-.08-.13-.1v0a.21.21,0,0,1,.05.13l-.09,0c-.06,0-.09,0-.09-.1V8.1L45.67,8c.08,0,.13.06.13.08l.09,0C46,8,46,8,46,8.1v.05h0a.24.24,0,0,0-.13-.05l0,.08v.05l.08-.05v.1h0c0-.06.08-.15.25-.26l0-.1s-.09,0-.13-.12v0h.18v.29l.08,0h0V8.1h0c0-.06,0-.08.13-.08V8c-.14-.18-.24-.26-.29-.26s0-.09.13-.13a.25.25,0,0,0,.16.26h0c.05,0,.08-.07.08-.22a.41.41,0,0,1,.18,0,.31.31,0,0,1,.13,0l0,.09c.23,0,.35-.07.35-.13v0h0l-.09,0-.09-.13.09,0a.08.08,0,0,0,.09.08h0V7.41c-.14,0-.22-.07-.22-.13V7.15h0a.36.36,0,0,0,.13,0l0-.1v0h0v.08h0q-.09,0-.09-.18A.3.3,0,0,1,47,7c0-.09,0-.13-.1-.13v0s0-.05.05-.05l-.05-.08a.3.3,0,0,1,.05-.18v0h-.05a1,1,0,0,0-.08.31h-.13l.05-.08c-.06,0-.1-.05-.1-.1s-.11.08-.11.23h.08v0l0,.08.08,0h0V6.86h.05s.08,0,.08.08,0,0,0,0a.31.31,0,0,0,.18,0v.05a.07.07,0,0,1-.08.08l-.13-.08h-.1v.08l.1-.05h0c0,.07,0,.1-.08.1h0l-.29-.44-.22,0V6.73h0v.08s0,0,0,.05H46L46,6.63l-.09,0s0-.07-.13-.13-.13.07-.13.21-.1,0-.17-.17l.08-.13h0l-.09,0a.41.41,0,0,1,0-.12h-.05l-.08.21h0l-.18-.13h0l-.13.09h0l0-.17h.09s0,0,0,0a.33.33,0,0,1,.17,0V6.29h-.34a.36.36,0,0,1-.05.13.34.34,0,0,1,.05.17h-.05l-.13-.09v.09h0s-.08,0-.08-.09h.08a.61.61,0,0,0-.08-.25h.08v0h-.17v.09h.09v0a.65.65,0,0,0-.35.17l0-.08c.11,0,.17-.09.17-.13v0h-.09c0,.09,0,.13-.08.13a.31.31,0,0,1-.18,0,.22.22,0,0,1-.16,0,.21.21,0,0,1-.13,0,.31.31,0,0,1-.18,0,1,1,0,0,1-.17-.31h0c0,.09,0,.13-.09.13v0c-.12,0-.17.06-.17.13h-.13c0-.07-.06-.11-.17-.13l0-.09a.35.35,0,0,1,0-.13h0V6h-.08V5.94h-.05a.4.4,0,0,1-.08.22.34.34,0,0,1,.05.17c-.05,0-.14-.08-.26-.26h.08A.07.07,0,0,0,42.19,6h-.1l0,.08L42,6.16c-.11,0-.17-.09-.17-.13l0-.09a.27.27,0,0,1-.13,0,.36.36,0,0,1,0,.13.21.21,0,0,0,0,.13h-.09a.09.09,0,0,1-.08-.09h.08V6l-.08,0H41.5l0-.17-.08,0,0,.22c0,.06,0,.08-.08.08h-.13s0-.08.13-.08v0l0-.21h-.08l.05.08V6a.27.27,0,0,0-.13,0,.71.71,0,0,0-.26-.09l0,.09h-.13c0-.09,0-.13-.1-.13h-.21V5.81h0l.09.05V5.78l-.22,0,.05.08-.18.05A.54.54,0,0,1,40,5.73l0,.21V6h0a.33.33,0,0,0-.18-.3.36.36,0,0,0-.08.17h0V5.78a.56.56,0,0,1-.21.08V5.81l.08-.13h0l-.13.1V5.65h-.13A.34.34,0,0,1,39,5.6l-.3.18h-.18v-.1h0a.36.36,0,0,0,.13.05V5.65c-.09,0-.13-.06-.13-.18a1.33,1.33,0,0,1-.47.08l0-.08h0l-.22.18a.31.31,0,0,0-.13-.05s-.06.08-.17.13l-.09-.18a.28.28,0,0,0,0-.16.66.66,0,0,0-.31.13s0,0-.05,0,0,.08-.11.13l-.1,0a.3.3,0,0,1-.16,0s0-.08-.1-.08V5.6l.1.13v.13h-.1a.4.4,0,0,0-.16-.26c0,.06,0,.08-.09.08a.27.27,0,0,1,0-.13l-.09,0h0V5.47h-.09l0,.08q-.06.18-.12.18V5.65l0-.1h0l-.18.1V5.52h0c-.07.05-.11.08-.13.08s-.07-.18-.21-.18v.1h-.08v-.1l.05-.08h-.05l-.13.08h-.05c0-.16,0-.25-.13-.25v.17C35.07,5.14,35,5,35,5a.08.08,0,0,1-.09.09h-.17v0c0-.06.06-.08.17-.08V5c-.09,0-.13,0-.13-.08h0V5a.21.21,0,0,0-.13,0V4.74s0-.09-.13-.13l0-.09v0h0c0,.08,0,.13-.08.13H34.3v0a.46.46,0,0,0,.08-.26h0l-.1.05v-.1h-.08a.48.48,0,0,1,.08.26A.4.4,0,0,1,34,4.18l.09.05h0V4.18a.58.58,0,0,1,0-.13c.06,0,.09,0,.09-.08a.47.47,0,0,0-.13-.09V4H34s-.07-.1-.21-.18v0h0l.13.09V3.75a.27.27,0,0,1,0-.13l-.18.13a.51.51,0,0,0,0-.26h0a.34.34,0,0,0,.13,0v0l0-.17s.09,0,.13-.14V3.05h0l-.18.1,0-.1c.23-.07.35-.14.35-.21V2.71c-.09,0-.13,0-.13,0a.3.3,0,0,0,0-.13l.13.08a1,1,0,0,1,.09-.34A.29.29,0,0,1,34,2l.09,0v.09L34.3,2l.05.09.08,0c.06,0,.08,0,.08.13h.1v0l-.18-.22V1.76h.08a.09.09,0,0,1,.1.1.3.3,0,0,1,.16-.05V1.73l-.08,0a.07.07,0,0,1-.08-.08l0-.08.09,0h.13c0-.07.08-.12.26-.16a.3.3,0,0,0,0-.13c.06,0,.09,0,.09.08a0,0,0,0,0,0,.05h.13V1.26h.05l.08,0v0l.1,0h0v0h-.08v-.1a.38.38,0,0,0,.18-.08l.11.08V1.08c.05,0,.09,0,.13.13a.36.36,0,0,1,.13-.05v0s-.14-.07-.29-.21c0,.06,0,.08-.08.08a.37.37,0,0,0-.23-.13.09.09,0,0,1,.1-.08l.13.08a.27.27,0,0,1,.16,0s0,0-.05,0q.06-.39.18-.39c.06,0,.08,0,.08.08V.52L36,.47h0V.52H36V.6h-.1V.69h0l.08,0,.1.13c-.06,0-.1.07-.1.21a.39.39,0,0,0,.18,0l0-.3.09.05.09-.05.26.05,0-.09A.09.09,0,0,1,36.67.6h.21V.73L36.8.86V1h.08V1H36.8v.09A.47.47,0,0,0,36.93,1l.08.05Q37,1,37.19,1V1c0-.06,0-.09-.13-.09v0a.27.27,0,0,0,.16,0c0,.11.06.17.1.17l.21,0a.08.08,0,0,0,.09.08V.91c-.11,0-.17-.06-.17-.18H37.4V.82h-.08v0c0-.06.06-.09.17-.09l0-.09h.13V.65l-.09.13h.21s0,.11.13.21,0,0,.09,0a.08.08,0,0,1-.09.09s0,0,0,0l0,.08s.08,0,.08.05l.09-.05.09.05c.14,0,.21-.09.21-.13h0a.24.24,0,0,1-.12,0V1l.3,0h0c0,.06,0,.09-.13.09v.18a.57.57,0,0,1,.26-.1v.05l.08-.05h0l.09.05V1.16A.31.31,0,0,1,38.69,1h.05c.06,0,.08,0,.08.09v0s0,.05,0,.05l0,.08,0,.1.09,0c.06-.13.11-.2.17-.21s0,.05,0,.05c-.1.19-.19.29-.26.29V1.6l.26,0,0-.08V1.5h.09v.1l.12-.1s0,.05,0,.05,0-.08.13-.13h0c0,.14.05.21.13.21s0-.13.09-.13h.13v.18h0V1.55a.07.07,0,0,0-.08.08l.08.05-.05.08v.1l.23-.1a.45.45,0,0,1,0,.13H40V1.73c-.09,0-.13,0-.13-.1s.14-.09.18-.29h0c.06,0,.09,0,.09.08v.05l-.09-.05h0V1.5h.08v.13l0,.1h.09c.06,0,.09,0,.09-.13h0c.17.09.26.17.26.26h.08V1.73l-.08,0v0c0-.06,0-.1.08-.1l.18.18v.05l-.08-.05a.43.43,0,0,1,0,.17h.13c0-.14,0-.22.13-.22a.28.28,0,0,0,.18.1v0s0,.05-.05.05c0,.18.08.26.13.26l.08-.13V2h-.13c0-.05.08-.08.23-.08v.13h.08c0-.14,0-.21.08-.21h.09V2h-.09v.13a.3.3,0,0,1,.14,0V1.89h0a.24.24,0,0,0,.13.05c0,.06,0,.08-.13.08l0,.09L42.09,2l.1.13v0h-.1V2.07c-.16.08-.25.14-.25.17v0l.09,0h0v.13h.09c0-.07,0-.11.16-.13s.05-.09.1-.09,0,.05,0,.05V2.07h.1v.17c.08,0,.13.06.13.09a.24.24,0,0,0,0,.12h0s.09-.07.16-.21-.05,0-.05,0A.16.16,0,0,0,42.87,2H43a1.23,1.23,0,0,1,0,.18.29.29,0,0,1-.17,0v0a.42.42,0,0,1,.22.08V2.29h.08a.26.26,0,0,0,.09.16c-.09,0-.13,0-.13.1l.08,0h0v.08l.08,0h.05c0,.05,0,.08.08.08l0,.08v0h.09l.08,0,0-.08v0c.17,0,.25,0,.25.13h.1V2.5h0v.13a.31.31,0,0,0-.21-.08s0-.1.16-.13,0,0,0,0l0-.08c-.07,0-.1-.05-.1-.13h-.08v.13c-.06,0-.08,0-.08-.08a.48.48,0,0,0,0-.18h.1c.08,0,.13.07.13.22L44,2.24v.13h-.1v.08H44V2.37a.37.37,0,0,0,.21.08v.1h-.05a.21.21,0,0,0-.13,0l0,.08a0,0,0,0,1,0,0,.31.31,0,0,1,0,.13h0l.09,0v.1h.17l0-.1h0s0,0,0,0l.09,0,.17.18V2.76h-.09v0s0-.08.09-.08.1.11.3.18v-.1h.08c.07,0,.1,0,.1.1H45v.13l.08,0h0V3s.08,0,.13-.13a.36.36,0,0,0-.13-.05v0h.08l.13,0v.05l-.18.21v.13h.05c0-.12,0-.18,0-.18l.16.05c.12,0,.18-.06.18-.13s.08,0,.08.08l.09,0h.09s0,.12.13.21l.08,0h0v.1l-.17,0s0,0,0,0v0c0,.06.08.12.21.17v0l0-.09.17,0v0l0-.1.13-.08h0v.08h-.08a.42.42,0,0,1,.08.18h.1l.08,0v.09c-.12,0-.18.06-.18.17h.05a.48.48,0,0,1,.26-.09h.16c0-.12.06-.17.13-.17h0s0,.08-.13.13a1.76,1.76,0,0,1,.17.43h0V3.75s0,0,0,0,.13,0,.13,0a.3.3,0,0,1,0-.13h.09c0,.12,0,.18.17.18a.33.33,0,0,0,.09-.18s.08.06.13.18,0,0,0,0l.13.09v0L48,4h.1V3.84h.21l.09,0,0-.08,0-.09-.13-.09v.18h-.09V3.62l0-.09c-.06,0-.1,0-.1-.08a.46.46,0,0,1,.4.26h.08l0,.08s.1.06.17.18l0-.09.08,0H49v0h-.09V3.79h0l.13.09h.08l0-.09s0-.06.08-.13a.36.36,0,0,1,0-.13l.13.09,0,.09v.13c.11,0,.16,0,.16.08V4s-.08,0-.08.08h0c0-.09,0-.13-.08-.13L49.08,4a.81.81,0,0,0,.64.47.36.36,0,0,1,.13-.21l0-.1s0,0,0,0l.21.08h0v0c-.09,0-.13,0-.13-.08V4l.17.1c0-.07.08-.1.22-.1l-.09-.12v0h0a.3.3,0,0,0,.13,0s0,0,0,0v0a.42.42,0,0,0,0,.12c.06,0,.08,0,.08.1v0h0l-.09,0h0v0a.3.3,0,0,1,.26.18h-.1a.11.11,0,0,0,.1.08,0,0,0,0,1,0,0l.05.08s0,.08-.13.13a0,0,0,0,0,0-.05v.22l.1,0h.21c0-.06,0-.09.08-.09l0,.09.08,0h.09A.7.7,0,0,1,51,5h0a.48.48,0,0,1,.18,0V4.78a.26.26,0,0,0,0-.17.26.26,0,0,0,0-.17h.08v0l0,.09h.09V4.31h0a.27.27,0,0,1-.13.05l0-.1v0l.22-.05.3.18-.09,0h0V4.31c-.06,0-.09,0-.09.08s.13.06.13.18l-.09,0s0,0,0,0V4.7h-.08V4.61l-.09,0a.3.3,0,0,1,0,.13l.09,0c0,.06,0,.09.08.09h.05q0-.12.18-.18v0s.08,0,.08.09-.07.08-.22.08v0l0,.21a.3.3,0,0,1,.13,0V5h-.08V4.87h.08l.1,0v0l-.05-.09c0-.08.07-.13.21-.13v0c-.09,0-.13,0-.13-.09h.18l0-.08a.36.36,0,0,0,0-.13l-.13-.08c0,.11-.07.16-.21.16v0a.66.66,0,0,0,.13-.26.92.92,0,0,1,.24.16V4.13h.1a1.19,1.19,0,0,1-.1.35.54.54,0,0,0,.31.09s0,.08-.13.13h0V4.61h-.08c-.12.06-.18.1-.18.13a.2.2,0,0,1,0,.13c.1-.09.17-.13.21-.13l.1,0a.24.24,0,0,1,.12,0l0-.09v0h.08V4.7h.09c0-.08.08-.14.26-.18v.09c0,.06-.06.09-.17.09v.08l.22,0c0-.06,0-.09.08-.09h.26l.08,0a.48.48,0,0,0,.1-.21c-.07,0-.1,0-.1-.09v0l.26.21h.18s.08-.06.17-.17l0-.09s0-.08.08-.08l0,.08v.09l-.08.13.17.17v0l0,.08.13.09V5l0-.08.09,0h.09l.08,0s0-.09.13-.13v0l.08,0h.05V5s.09-.1.13-.3-.13-.13-.18-.13.05-.09.1-.09l.08,0a.27.27,0,0,1,.13,0l.08.13v.13c0,.06,0,.09-.13.09v0a2,2,0,0,1,.52.13V5l0,.09s0,0,0,0l-.08,0h-.05V5.08h0l0,.22h0l.09,0v0a2.69,2.69,0,0,1,.34-.13l0-.09V5a2.28,2.28,0,0,0,.34,0L56,5v.13h.13v.09c-.15,0-.23,0-.23.13v0H56l0,.1v0h.13a.58.58,0,0,1,.05-.13s-.05,0-.05,0h.08v.13l.1,0v0c0,.09-.1.19-.31.29v.05a.4.4,0,0,1,.26.08v0l0-.22c.07,0,.1,0,.1-.13h0a0,0,0,0,1,.05,0l.21-.18h0v0c-.1.23-.19.34-.26.34v.05l0,.08h-.13c.25.3.38.5.38.61h.13l-.09-.13s.06-.11.18-.17v0l0,.21h0l.08,0,0-.08c0-.06,0-.09.08-.09l0,.09s0,0,0,0l0,.08,0,.09a.34.34,0,0,1,0,.14l-.09,0s-.08,0-.08-.08a.08.08,0,0,0,.08-.09h0a.43.43,0,0,1-.3.09v.08l.08,0,.05.08c-.05,0-.09,0-.13.13l0,.08.09,0s.08,0,.13.13l-.09.05V7.07h0v0c0,.12.08.18.13.18H57V7.2H57v0l-.13.18H57v.08h-.26v0h-.09l.05-.21v-.1h-.18c-.05,0-.08,0-.08.1l.08,0a.09.09,0,0,1,.09-.08v.08c0,.06-.06.09-.17.09v0l.21,0a.31.31,0,0,0,0,.17h0l-.09,0v0s0,.08.13.13,0,0,0,0v0l0,.08c.17,0,.26,0,.26.1h-.09L56.7,8v.08h.08v.13a.12.12,0,0,0-.13.13.24.24,0,0,1,.05.13h-.05a.29.29,0,0,0-.17,0,.35.35,0,0,1-.09.23s0,0,0,0l.26-.08V8.7a.08.08,0,0,1-.09.09h-.09a.43.43,0,0,0-.29-.17c0-.06,0-.1.13-.1v0h0a.79.79,0,0,1-.26.08V8.7l.13-.08h0v.13h-.1v0h.26v0s-.09.05-.16.13l0-.09c-.12,0-.18.07-.18.22h-.08V8.87h-.05l-.08.05.05.08v.05A.47.47,0,0,0,55.71,9v.09h.08v0c0,.07-.2.16-.6.25,0,.06,0,.1,0,.1l0,.08v.05H55.1l.09.13s0,0,0,0l-.09,0h0v0h.08v.1H55v.08a.27.27,0,0,1,.13,0,.27.27,0,0,0,0,.13H55a.33.33,0,0,0-.09-.22.27.27,0,0,0,0-.16h0l-.09,0,0,.1v0h-.13l.05.09h-.05l-.08,0,0-.08V9.78l-.08.05a0,0,0,0,0-.05-.05l.05-.21V9.52h-.05a.72.72,0,0,1-.16.31,0,0,0,0,1,0,0,.28.28,0,0,1-.12.05l-.09-.05h-.13A.07.07,0,0,0,54,9.78l-.09.13V10H54L54,10l.09,0h0v0s0,0,0,0l0,.09v0h0l-.09,0s-.06.09-.17.13a.37.37,0,0,0-.21,0s-.06,0-.18,0l0-.09c0-.12-.09-.17-.13-.17l0,.09v.08c0,.06,0,.09-.13.09v0l.08.13-.18.13,0-.09c.08,0,.13,0,.13-.08a.3.3,0,0,0-.13,0v-.09h.08v-.09h-.08l-.13.09v-.13l-.09,0s0,0,0,0l-.09,0c-.06,0-.09,0-.09-.08v0c.06,0,.09,0,.09,0a.31.31,0,0,1,0-.12.41.41,0,0,1-.35.21s0,0,0,0,0,.09-.08.09V10l.08-.13v0a.46.46,0,0,0-.42.29l-.08.05q-.08,0-.18-.18a.36.36,0,0,1-.13,0v0l0-.16-.13.08V9.83h0c0,.08-.07.12-.22.12s0,0,0,0V10h.17v.09a.31.31,0,0,0-.17.09c-.15-.16-.22-.26-.22-.31h0V10H51l0,.09-.08,0h-.08v.08a3.19,3.19,0,0,0-.35-.13h0v0c.06,0,.12.07.16.21h0v.13c0,.06,0,.09-.08.09s-.11-.17-.31-.3l-.13.21a.41.41,0,0,0-.21,0v-.09H50v0h-.17v.09h-.09c0-.12,0-.18-.13-.18v.05l.13.17v.08q-.09,0-.09-.12H49.5v.08h.09v.13s-.11.06-.22.17h-.08V10.6h.08v0h-.08a0,0,0,0,1,0,0,.61.61,0,0,1,0-.22l-.1,0,0,.09,0,.09s0,0,0,0a.12.12,0,0,0-.13.13H49s-.08,0-.12-.13l-.09,0-.26-.13a.3.3,0,0,1,0,.13l-.08,0h0c0,.06,0,.09.13.09s0,.08-.13.08a.12.12,0,0,1-.13-.13h-.05v.05a.21.21,0,0,1,.05.13c-.18.05-.28.12-.29.21s0,0,0,0a0,0,0,0,0,0,0l-.13,0v0l0-.08-.21-.05s0,.08-.13.13L47.4,11a0,0,0,0,1,0,.05l0-.08c-.07,0-.16.08-.26.26,0,0,0-.05,0-.05l0-.08V11s-.08,0-.08.1l-.1,0h0v0a.39.39,0,0,1,0,.13h0a.41.41,0,0,0-.18-.05h0a.23.23,0,0,1-.16.21v0s0,0,0,0l0-.08v-.1l0-.08h-.1a.27.27,0,0,1-.26.3h0v0c.09,0,.14,0,.14-.13h-.05a.36.36,0,0,1-.13.05l0,.08-.17.17,0-.09v0H46v0h0a.45.45,0,0,1-.22.08.37.37,0,0,0-.21,0,.23.23,0,0,1-.26.26v0h0a.29.29,0,0,1,.16,0l0,.09v0l-.08,0h-.05s0,0,0,0a.39.39,0,0,0-.21,0l.08-.13V11.5l-.13.09s0-.05,0-.05v.18h.08v.12h0s-.11-.1-.21-.3h0a.35.35,0,0,0-.09.22h0l-.21,0v.08h.17v.13h0l-.12-.09a.31.31,0,0,1-.13.05.34.34,0,0,1-.05-.17h-.08v0l.13.17v.13l-.18-.22h0c0,.06-.06.09-.17.09v0h.13v.09c-.09,0-.13,0-.13.14h-.08q0-.24,0-.27v0h0s0,.08-.1.08v.23c-.11,0-.16-.1-.16-.18h-.13l0,.08c0,.06,0,.1-.09.1s-.13-.07-.13-.1-.13,0-.13.13l-.08,0v.16h.17v.05a.36.36,0,0,0-.17.08c-.06,0-.09,0-.09-.08a0,0,0,0,0,0-.05s0,0,0,0h0l0-.08.09-.13-.09,0h0l-.09.22a.31.31,0,0,1,.05.13h-.05s-.08-.05-.13-.13a0,0,0,0,0,0,0h-.1v.08h-.08v-.16a.31.31,0,0,1-.13,0,1.48,1.48,0,0,1,.1.34l-.1,0-.08-.13v0l.05-.1c-.07,0-.1,0-.1-.08a.31.31,0,0,1-.13,0l.05.08-.05.08c0,.09,0,.13.13.13v0h-.21s0,0,0,0a.24.24,0,0,1-.16,0l.08.13v0s-.1-.06-.17-.17,0,0,0,0h-.13c0,.12,0,.18-.13.18V12.7l0-.08-.16-.13h0l-.13.08-.13-.08h0v0h.1c0,.05-.12.13-.34.25l-.1,0c-.09,0-.13.05-.13.08l.1.18-.1,0a.31.31,0,0,0-.17,0c0,.06,0,.08,0,.08a.3.3,0,0,0-.13,0c0,.08-.12.14-.35.18v-.09h-.16l0,.09s-.1.1-.29.21a.45.45,0,0,0-.22-.08l0,.08c.17,0,.26,0,.26.13h-.05l-.13-.08c0,.11,0,.16-.08.16h-.13c0,.12-.05.18-.13.18h0v-.08h.08c0-.12-.09-.18-.13-.18s0,.08-.13.08l-.08,0-.13,0,0,.1c-.06,0-.09,0-.09.08l.09,0,.09,0v0c0,.07,0,.1-.09.1l-.22-.13h0l0,.08-.16.08c0-.05,0-.08-.1-.08s0,.21-.12.21h0L37.53,14c0,.07,0,.1-.08.1a.43.43,0,0,1,0,.17l.17-.14h0v.1h-.08v.08h.13s0,.09-.13.13,0-.09-.13-.13a1,1,0,0,1-.17.3l-.1,0,.05-.09v0l-.16.13H37l0-.17.13.08s0,0,0,0a.55.55,0,0,1,0-.21L37,14.3s0,0,0,0-.06.13-.18.17v0h0c-.06,0-.09,0-.09-.08h.09v-.05h-.18a.3.3,0,0,1,0,.13s0,0,0,0h0s0,0,0,0l-.4.13a.24.24,0,0,0-.13,0s0,0,0,0l0-.08.26-.13c0-.06,0-.09-.08-.09s-.08.1-.23.17h0v-.08h-.05v.08s.05,0,.05,0l-.21,0v-.22h-.05c0,.08,0,.13-.08.13v0l0-.09-.08,0c-.07,0-.12.06-.13.17a.82.82,0,0,1-.35-.17h0l0,.09-.08,0c0-.08-.06-.13-.18-.13s0-.08.13-.08v-.1h-.13V14h.09v0h0a.21.21,0,0,1-.13,0,.07.07,0,0,0-.08-.08h0l0,.08a.31.31,0,0,0-.13.05c0-.06-.07-.1-.22-.1a.24.24,0,0,0,0-.13h0l.08.05v-.05a.07.07,0,0,0-.08-.08l-.22.05v-.05l.17-.16H34c0-.1-.1-.17-.3-.23a.56.56,0,0,0,0-.21.58.58,0,0,0,0-.13l.08,0V13H33.7l-.09,0v-.18s-.08-.05-.08-.16a0,0,0,0,0,0-.05Zm1.55,2a.08.08,0,0,1,.09-.08v.08Zm-.9-.13h.09v.09Q34.13,14.55,34.13,14.47Zm3.57,0v-.08h.18a.3.3,0,0,0,0,.13h0A.27.27,0,0,0,37.7,14.47Zm-3.19,0v-.09h.1v.09Zm1.68,0h.22v0h-.22Zm1.21,0v0a.43.43,0,0,1-.08-.27h0c0,.12,0,.18-.13.18S37.23,14.39,37.4,14.43Zm-3-.09v-.08h0v.08Zm3.74-.08v-.09s.09.05.13.13v0h0C38.2,14.33,38.17,14.3,38.17,14.26ZM35,14.3h.09v-.08c0-.06,0-.1-.09-.1h0v.05A.3.3,0,0,1,35,14.3Zm1.17,0v-.08h-.1A.09.09,0,0,0,36.16,14.3Zm-1.68-.08v-.1h0v.1Zm.34,0h.08v-.05h-.08Zm3.53-.1s0-.08.13-.13h.05c0,.15-.09.23-.13.23Zm.9.1v-.1h.09v.1Zm-2.37-.1H37v0h-.1Zm1.21-.26h.13v-.08a.36.36,0,0,1-.13.05Zm.13-.11.08,0c.07,0,.1,0,.1-.08a.31.31,0,0,1-.13,0Zm1.08,0V13.7h0v.08Zm-5.47-.13a.27.27,0,0,0,0-.13h0v.23C33.85,13.73,33.83,13.7,33.83,13.65Zm5.81,0v-.08h0v.08Zm-.56-.13h.05a.51.51,0,0,1,.08-.21h-.08l-.09,0A.39.39,0,0,1,39.08,13.57Zm.13,0h.09v-.08C39.24,13.49,39.21,13.51,39.21,13.57ZM34,13.52h.05v-.08H34Zm4.91,0H39v0H39Zm.65,0c0-.07,0-.1.09-.1v.1Zm.48-.18h.08v.08S40.08,13.36,40.08,13.31Zm-6.12,0H34c0-.06,0-.09-.08-.09Zm5.89,0v-.09H40v.09Zm.57-.09h.13v.09h0A.09.09,0,0,1,40.42,13.27Zm-1,0a.27.27,0,0,1,.13,0v0h-.22A.09.09,0,0,0,39.43,13.31Zm.81,0v-.08h.09v.08Zm-.55,0h0v-.09h0Zm.86-.13v-.05h.08v.14A.09.09,0,0,1,40.55,13.14Zm-1.12,0h.08v-.05h-.08Zm.47-.09H40v0H39.9Zm.3,0q.09,0,.09-.09H40.2Zm1.64,0V13h.09v.09Zm-1.51,0h0a.37.37,0,0,1,.22-.09v-.13c-.18.08-.26.14-.26.17Zm1,0v-.09h.08V13Zm.25,0v0a.09.09,0,0,1,.09-.08l0,.08-.09,0Zm-.85,0v-.13h.08v.05C40.85,12.94,40.82,13,40.77,13Zm-.79,0H40c0-.06,0-.09-.08-.09H39.9C39.91,12.89,39.94,12.92,40,12.92Zm1.05,0v-.17a.07.07,0,0,0,.08-.08h0s.09,0,.13.12v0l-.13-.08a.43.43,0,0,0,0,.17Zm1.55,0v-.09h0v.09Zm-2.21-.05h.05v-.08h-.05Zm-6.71,0h.12V12.7l-.17,0A.19.19,0,0,1,33.66,12.79Zm6.42,0h.12v0h-.12Zm1.67,0v-.08h.09v.08Zm-.48-.05s0-.08.13-.13v0c0,.06,0,.08-.08.08Zm-7.7-.13h.09c0-.05,0-.08-.09-.08Zm8.49-.08a.36.36,0,0,1,.13,0v0l-.13-.08Zm-.09,0h0v-.08h0Zm0-.18h.08v0H42Zm1.16-.08h0a.07.07,0,0,1,.08.08h0C43.2,12.31,43.17,12.28,43.17,12.23Zm-.85,0h.08v0h-.08Zm-8.75,0v-.09h0v.09Zm10.51,0v-.09h.08v.09ZM45,12v0h.08v0Zm-.13-.13v-.08h.09C44.94,11.81,44.91,11.84,44.85,11.84Zm-.08,0v-.08c0-.06,0-.09.08-.09v.09C44.85,11.78,44.82,11.8,44.77,11.8Zm-.26-.13h.17v0h-.17Zm1.68-.08s0-.05.05-.05l-.05-.08v-.05h.13s.08,0,.08.09a.29.29,0,0,0-.16.09Zm-.65-.05a.09.09,0,0,1,.09-.08v.08Zm-.43-.13a.3.3,0,0,1,.18.09l0-.09-.08,0h-.13Zm1.42.09v-.09l.18,0s0,.09-.13.13Zm.39,0,0-.22h.16v.05a.3.3,0,0,0-.13,0l0,.09v0Zm-2,0H45v-.05H44.9Zm-10.81-.05h0v-.13h0Zm13.6-.13v0h.1v0Zm-1.89,0h.09V11.2H45.8ZM34.3,11.2h.08v-.08A.07.07,0,0,0,34.3,11.2Zm13.14,0a.09.09,0,0,1,.09-.08l0,.08Zm1.51,0v0H49v0Zm-1.39,0v0h.1v0Zm.65,0v-.08h0v.08Zm-13.7-.08h.05v-.13h-.08A.45.45,0,0,1,34.51,11.07ZM48.13,11s0-.08.08-.08V11Zm1.42,0v0h.08v0Zm-2.11,0h0v-.1h0Zm-.26-.05a.31.31,0,0,1,.17,0,.24.24,0,0,1-.08-.16h-.05Zm.74,0h0v-.08h0Zm.85,0v0h.09v0Zm4,0v-.08h.09C52.91,10.91,52.88,10.94,52.82,10.94Zm-5.08,0h.13v-.08a.36.36,0,0,1-.13,0Zm-13.61,0v-.09h0v.09Zm13.35,0h.08v0h-.08Zm1.16,0v-.09h.09v.09Zm.39,0v-.09h0v.09Zm.82,0v-.09h0v.09Zm-15,0H35v0H34.9Zm14.52,0v-.08l.17-.05C49.59,10.73,49.53,10.77,49.42,10.81Zm1.42,0c0-.06,0-.09.08-.09v.09Zm.08-.13H51v.09Q50.92,10.72,50.92,10.64Zm-15.12,0h.1c0-.06,0-.08-.1-.08Zm1,0h0V10.6h0Zm11.51-.17c.06,0,.08,0,.08.09h0v-.09l-.09,0h0Zm2.5.09v-.09h.16v.09Zm-14.39,0a.3.3,0,0,0,0-.13h.09v.05s0,.08-.09.08Zm13.69,0v-.13s.09,0,.13.13v0Zm2,0h.1v.08C52.12,10.54,52.08,10.51,52.08,10.47Zm.26-.05h0c.06,0,.08,0,.08.09v0S52.39,10.51,52.34,10.42Zm-2.58.09v-.09a.27.27,0,0,0,.13,0l0,.09-.09,0a0,0,0,0,0,0,0S49.79,10.51,49.76,10.51Zm-12,0h.13v-.05h-.13Zm10.77,0h.13v-.05h-.13Zm2.62,0q0-.09.09-.09v.09Zm1.73-.09.09,0v.13Q52.91,10.46,52.91,10.38Zm2.06.09v-.05h.09v.05Zm-17.52-.05h.08v0h-.08Zm.13,0h.08v-.08S37.58,10.36,37.58,10.42Zm11.76,0h.13c0-.06,0-.08-.1-.08Zm3.22-.08.13,0,.05.08-.09,0C52.59,10.41,52.56,10.38,52.56,10.34ZM51,10.3h0c.06,0,.09,0,.09.08h-.05A.07.07,0,0,1,51,10.3Zm.56.08,0-.08,0-.09.08,0h0v.21Zm3-.08.1-.05,0,.09v0h0C54.61,10.38,54.58,10.35,54.58,10.3Zm.57,0h.08v.08A.07.07,0,0,1,55.15,10.3Zm-2.33,0v-.09a.39.39,0,0,0,.18,0v0a.08.08,0,0,1-.09.09Zm1.08,0v-.09l.17,0v0a.08.08,0,0,1-.09.09Zm-17.4,0v-.09h0v.09Zm2.19,0h.05a.3.3,0,0,1,0-.13h-.09Zm12.1,0v-.09h.05v.09Zm.31,0c0-.06,0-.09.08-.09v.09Zm-14-.05v-.08h.13c0,.06,0,.08-.08.08Zm14.22,0v-.08h.08v.08Zm.9,0v-.09c.06,0,.08,0,.08.09Zm-2.5,0h.09v-.05h-.09Zm.43-.05a.36.36,0,0,1,.13.05v-.05a.07.07,0,0,0-.08-.08Zm4.18.05c0-.06,0-.09.08-.09h0c0,.06,0,.09-.08.09ZM50,10.12a.07.07,0,0,0,.08-.08H50Zm2.15,0v0h.08v0Zm1.5-.08.14.08.09,0a.36.36,0,0,1,0-.13h-.08C53.67,10,53.63,10,53.63,10Zm.66,0,.16-.13,0,.08a.12.12,0,0,0-.13.13C54.31,10.12,54.29,10.09,54.29,10Zm1.11,0v0a.08.08,0,0,1,.09.09v0C55.43,10.12,55.4,10.09,55.4,10Zm-19.47,0V10H36v.09Zm1.56,0v0h.09v0Zm17.06,0v0c0-.06,0-.09.08-.09v0C54.63,10.05,54.6,10.08,54.55,10.08Zm-15,0h.05V9.91h-.05Zm12.33,0H52v0h-.11ZM53,10h.1v0H53ZM37.14,9.91h.13V10h-.05S37.14,10,37.14,9.91ZM53,10h0V9.86h0Zm-1.26,0h.1V9.86h-.1Zm.69,0h0V9.83h0Zm.39,0h.09V9.86h-.09Zm.73,0h.08V9.83C53.58,9.83,53.55,9.85,53.55,9.91Zm2,0V9.83h.09v.08Zm.47,0V9.83h.1C56.1,9.88,56.07,9.91,56,9.91ZM39.08,9.86V9.78c.11,0,.17,0,.17-.08h.09v0C39.31,9.82,39.23,9.86,39.08,9.86Zm16.15,0V9.78l.17,0s0,.09-.12.13Zm-1.94,0h.05c0-.07,0-.1-.08-.1h0C53.22,9.8,53.24,9.83,53.29,9.83ZM52,9.78h.1c0-.06,0-.08-.1-.08Zm2.16,0,.09,0,.09-.13L54.2,9.6Zm.7,0V9.57l.21,0V9.44c-.17,0-.28.11-.31.21v0A.09.09,0,0,0,54.81,9.78ZM39.51,9.6l.09,0a.8.8,0,0,1,0,.16S39.56,9.69,39.51,9.6Zm14.43.13H54v0h-.09Zm-14.17,0V9.6h0v.1Zm15.59,0V9.57h.09v.08ZM41.5,9.6h.08v0H41.5Zm12.92,0h.08v0h-.08Zm2.06-.13h.09v.1A.09.09,0,0,1,56.48,9.47Zm-16.24,0V9.39h.09v0C40.33,9.49,40.3,9.52,40.24,9.52Zm1.29,0h0a.27.27,0,0,1,0-.13h0l0,.08Zm14.09-.08v0h.09a.3.3,0,0,0,0,.13h0C55.65,9.51,55.62,9.48,55.62,9.44Zm-.39,0s.05-.09.13-.13a.09.09,0,0,0,.09.08c0-.06,0-.08.08-.08l0,.08c-.06,0-.09,0-.09.08Zm1.13,0V9.39h.08v.08Zm-14.3-.13a.24.24,0,0,1,.16.1s0-.11.13-.18v0h-.08l-.21,0Zm13.73.1V9.31h.08v0C55.87,9.4,55.84,9.44,55.79,9.44Zm-13.34,0h0V9.31h0Zm13.78-.08V9.22h.08v.09Zm-19.6-.05V9.18h0v.08Zm4.77,0v0h.1v0Zm1.52,0H43v0h-.08Zm12.87-.09h.05s.08,0,.08.09h-.05A.09.09,0,0,1,55.79,9.13Zm.26.09c.06-.13.11-.21.18-.22h.08a.37.37,0,0,0-.08.22Zm-14.25,0V9.09c.05,0,.08,0,.08.09Zm13.6,0h.09v0H55.4Zm.18,0h.08c0-.06,0-.08-.08-.08ZM41.66,9h.09v.09A.08.08,0,0,1,41.66,9Zm1.69.09h0V9h0Zm13,0V9h0v.09ZM57,9V8.92h0V9ZM40.37,8.87V8.79h.05s0,0,0,0l.09,0h0v.08Zm2.59,0a.27.27,0,0,0,0-.13h.09v.05l0,.08a0,0,0,0,1,0,0h0Zm12.62,0h0V8.79h0ZM44.94,8.75H45V8.7h-.09Zm-1.25-.1V8.57h.08v.08Zm.78,0h.12V8.44l-.12.05Zm.34,0h.09c0-.06,0-.1-.09-.1Zm-.94-.1V8.44H44v.08Zm12.05,0H56v0h-.08Zm-11.67,0v-.1h.09C44.34,8.46,44.31,8.49,44.25,8.49Zm.78,0a.28.28,0,0,1,.16-.05v0s-.08,0-.08-.08a.31.31,0,0,1-.13,0A.31.31,0,0,1,45,8.49Zm-.18-.1h.09V8.31C44.88,8.31,44.85,8.34,44.85,8.39Zm11.51-.08.12,0v-.1h0s-.08,0-.08.1Zm.16,0h.09c0-.07,0-.1-.09-.1Zm-10.38-.1h.1v0h-.1Zm.65-.08h.08v0h-.08Zm10.29,0V8h.1S57.14,8.05,57.08,8.05ZM57.39,8v0s.08,0,.08.1v0S57.39,8,57.39,8Zm-11.5,0v0h0c.06,0,.09,0,.09.08l-.09,0Zm.72.1h0s.08,0,.13-.13l.08,0h.05v0c-.05,0-.08,0-.08,0S46.63,7.94,46.61,8Zm-.24,0V7.89h0V8Zm-1.13,0V7.84c.06,0,.08,0,.08.08Zm.26-.12h.08v.09A.09.09,0,0,1,45.5,7.8Zm1.9,0h.08v0H47.4Zm.55,0h0c0-.06,0-.09-.08-.09h-.05C47.88,7.77,47.9,7.8,48,7.8Zm8.79,0v0h.09v0Zm.09-.09h0c.05,0,.08,0,.08.09h0A.09.09,0,0,1,56.83,7.67Zm-9,0h0a.29.29,0,0,1,.1-.21v0h-.05c0,.06,0,.09-.08.09Zm.13,0H48v0h-.08Zm-.44-.21s0,0,0,0h.09l-.05.09v0h.08V7.36h-.08v0l.05-.1s-.05,0-.05,0a0,0,0,0,0,.05,0H47.4Zm-.69.13a.31.31,0,0,0,.05-.13h.08a.31.31,0,0,0,0,.13Zm10.34,0V7.45h0s.08,0,.08.09ZM46.61,7.36h.13v.09h0C46.65,7.44,46.61,7.41,46.61,7.36Zm1.39,0h0V7.33h0Zm-1.5,0V7.28a.07.07,0,0,1,.08.08Zm1.63-.08a.4.4,0,0,1,.17.08h0V7.23l-.08,0h0V7.2A.07.07,0,0,0,48.13,7.28Zm-.86,0h.08v-.1h-.08Zm9.91,0V7.2a.07.07,0,0,1,.08.08v0Zm-9.52,0h0a.07.07,0,0,0-.08-.08h0A.11.11,0,0,0,47.66,7.28Zm-1.73,0V7.1h0c.06,0,.09,0,.09.1l-.09,0Zm.44,0V7.15h.08C46.45,7.21,46.42,7.23,46.37,7.23Zm1.45-.08.13.08v0a.11.11,0,0,1-.08-.1s.05,0,.05,0h-.05Zm-.08,0V7.07L47.53,7C47.53,7.07,47.6,7.11,47.74,7.15Zm.34,0h.08V7.07h-.08ZM56.39,7c.09,0,.13,0,.13.13s.09,0,.09-.08l-.22-.13Zm-11,.05c0-.06,0-.1.08-.1l0,.1Zm.21-.18.08,0v.08h0V6.89a.31.31,0,0,1,0-.13s0,0,0,0a0,0,0,0,1,0-.05h0c.06,0,.08,0,.08.08a.3.3,0,0,0,0,.13c.06,0,.09,0,.09.08L45.8,7C45.69,7,45.63,6.94,45.63,6.89ZM46.1,7V6.94h.09V7ZM57,6.86c0-.07,0-.1.09-.1s.05.13.14.13a.24.24,0,0,0,0,.13h-.05S57,6.93,57,6.86ZM38.4,6.94V6.89h.08v.05Zm6.5,0V6.86c.05,0,.08,0,.08.08Zm2.15,0h0a.31.31,0,0,1,.13-.05s0,.05.05.05a.27.27,0,0,1,0-.13v0h0c0,.09-.08.13-.22.13Zm1.08,0h.13V6.89h-.13Zm-3.07-.05V6.81h0v.08Zm.23,0V6.81h.08v.08Zm1.68,0a.11.11,0,0,0,.08-.1v0s-.08,0-.08.08Zm.59,0h0v-.1h0Zm-2.71-.1V6.68h0a.07.07,0,0,1,.08.08Zm.21,0v-.1h0c.06,0,.08,0,.08.1v0Zm12.07,0v-.1h.08C57.21,6.69,57.18,6.73,57.13,6.73Zm.13-.1V6.55h.05a.07.07,0,0,1,.08.08c0,.06,0,.1-.08.1Zm-13,0V6.59a.08.08,0,0,0,.09-.09h.08v0s0,.08-.13.13Zm-.56,0v0c0-.06,0-.09.08-.09H44C44,6.56,43.86,6.61,43.69,6.63Zm2.33,0h.08v0H46Zm1,0h.09v0H47Zm-3.74-.13v0h.09a.3.3,0,0,0,0,.13h0Q43.26,6.54,43.26,6.46Zm-1,0v0c0-.06.05-.09.1-.09h0c.06,0,.1,0,.1.09v0H42.4s0,0,0,0l-.08,0Zm4,0h.08v0h-.08Zm-1,0h.08v0h-.08Zm.51,0h.13v0a.21.21,0,0,1-.13,0Zm11.46,0c0-.06,0-.09.08-.09v.09ZM41.84,6.33V6.25c.06,0,.09,0,.09.08Zm1.25,0V6.25h0c.06,0,.09,0,.09.08Zm3.15,0h.08v0h-.08Zm10.33,0V6.25h.08v.08ZM43.43,6.2l.13.09.13-.09c0,.06,0,.09.08.09V6.16l-.21,0a.07.07,0,0,0-.08-.08Zm1.81.09h.08v0h-.08Zm.47,0h0V6.2h0Zm10,0h0V6.2h0Zm-14.85,0V6.16H41C41,6.22,41,6.25,40.9,6.25Zm3.69,0h.09v0h-.09Zm11.67,0h.1V6.16C56.29,6.16,56.26,6.19,56.26,6.25Zm1.05,0V6.16h.08v.09ZM44,6.2h.13A.07.07,0,0,0,44,6.12h0Zm12.57,0a.24.24,0,0,0,0-.13s.08,0,.13.13l-.09,0Zm-.68,0h.08V6l-.13,0V6A.31.31,0,0,1,55.84,6.16Zm.16,0h0V6h0Zm.83,0c0-.06,0-.09.08-.09l0,.09ZM57.08,6h.05s.08,0,.08.09v0S57.13,6.11,57.08,6Zm-16.62.09V6h.09v.09Zm2.93,0h0V6h0Zm-.6,0h.08V6h-.08Zm.73,0h0V6h0Zm12.58,0h0V6h0ZM42.32,6h.08V6h-.08ZM56.61,6V5.86h.13V5.81l0-.08h0s.08,0,.13.13-.09,0-.09.08,0,0,0,0l-.09,0ZM39,6v0h.09V6ZM57,6V5.9h.13V6ZM40.93,5.9l.1,0,.08,0,0-.09h-.21Zm1.13,0h0V5.81h0Zm-1.29,0h0V5.78h0ZM38,5.73V5.65c.06,0,.09,0,.09.08v.08C38,5.81,38,5.78,38,5.73Zm.34-.05.13,0s0,.08.1.08l-.05.08C38.36,5.77,38.3,5.73,38.3,5.68Zm2.29.05a.07.07,0,0,1,.08.08h0V5.73a.31.31,0,0,1,0-.13.07.07,0,0,0-.08.08Zm-4.05,0v-.1h.05v.1Zm.52,0c0-.07,0-.1.08-.1v.1Zm3.18,0h.09v0h-.09Zm1.13,0h0v-.1h0Zm.21,0h.17v-.1a.31.31,0,0,1-.17.05Zm.3,0h0v-.1h0Zm-6.24,0V5.65h0v.08Zm4.39,0h.08V5.65H40Zm.9,0H41c0-.05,0-.08-.1-.08Zm14.94,0h.05V5.65h-.05Zm1,0V5.6s0-.08.08-.08.09,0,.09.08Zm.26-.18.08,0s0,0,0,0l.08,0c.12,0,.18.08.18.13l-.18.08Q57.15,5.65,57.13,5.55Zm-20,.13V5.6h.08v.08Zm2.46,0,.09,0a.6.6,0,0,1,.08-.13h-.08C39.63,5.55,39.6,5.58,39.6,5.65Zm-4.3,0V5.6h.08v.05Zm2,0V5.52h.08c.06,0,.09,0,.09.08l-.09.05s0-.05,0-.05A0,0,0,0,1,37.32,5.65Zm.3-.05.08.05,0-.1-.09,0Zm2.67.05h.08v-.1S40.29,5.58,40.29,5.65Zm.17,0h.09V5.6h-.09Zm1.12-.05h.08v0h-.08Zm14.17,0h.09v0h-.09Zm-19.16,0h0V5.47h0Zm2.41,0c.06,0,.08,0,.08-.08H39Zm16.62,0h.09V5.47h-.09Zm-18.74,0h0v-.1h0Zm1.34,0a.31.31,0,0,1,.13,0c0-.06,0-.08-.08-.08l-.05.08Zm.69,0h0v-.1h0Zm-3.19-.13a.28.28,0,0,1,.18.08l0-.08c0-.06,0-.09-.08-.09a.27.27,0,0,1-.13,0Zm.31.08h0V5.39h0Zm.13,0h.08v0h-.08Zm.17,0,.08,0a.3.3,0,0,1,0-.13h0Zm18.82,0h0V5.34h0Zm2.06,0v0l0-.22h.08c0,.06,0,.09.08.09v.08c0,.06,0,.08-.08.08ZM57,5,57.08,5h.1s.08,0,.08.09v0c-.08.17-.14.26-.18.26A.59.59,0,0,1,57,5Zm-4.87.26c.07,0,.1,0,.1-.09h-.1Zm4.1-.13h0l.13.09c0-.09,0-.13.08-.13s0,0,0,0a.3.3,0,0,0,0,.13h-.13S56.23,5.26,56.18,5.17Zm.39.13V5.21c.06,0,.08,0,.08.09ZM35.38,5.21l.21,0V5.17h-.21Zm19.07,0h0V5.17h0Zm2.25-.09,0-.09s0,0,0,0L56.91,5,57,5c-.11,0-.17,0-.17.13s0,0,0,0l-.09,0ZM51,5.21h.08v0H51Zm.17,0h.09v0h-.09Zm.22-.08h.08v0h-.08Zm.56,0H52v0h-.08Zm3.87,0h.08v0h-.08Zm.21,0V5h.13c0,.06,0,.09-.08.09Zm-3.53,0h.05V5h-.05Zm.4,0c.05,0,.08,0,.08-.08s-.08,0-.08-.09h-.09A.31.31,0,0,1,52.87,5.08Zm.94,0h.09V5h-.09ZM52.08,5s.05,0,.05,0l.08,0h0s.05,0,.05,0a.19.19,0,0,1,.12,0v0a.35.35,0,0,1-.22-.08S52.13,4.87,52.08,5ZM51.4,5h0V4.87h0Zm1.76,0h.05V4.87h-.05Zm.13,0h.13v0h-.13Zm-3.66,0c.06,0,.09,0,.09-.08h-.09Zm5.43,0V4.78l.09,0h.17l0-.22h.17v0a.51.51,0,0,1-.3.26A.29.29,0,0,0,55.06,4.87Zm.73,0V4.83h.08C55.87,4.89,55.84,4.91,55.79,4.91Zm.44-.08c0-.06,0-.09.08-.09s0,0,0,0l.08,0c.06,0,.08,0,.08.09s0,.08-.08.08h-.13A.07.07,0,0,1,56.23,4.83Zm-6.94,0h.08v0h-.08Zm1.34,0,.21,0V4.78h-.21Zm1.89,0h0a.08.08,0,0,0-.09-.09h0Q52.44,4.87,52.52,4.87Zm1.25,0h0s.09,0,.13-.13l-.08,0h0A.81.81,0,0,0,53.77,4.87Zm1.81,0V4.78h.08v.09ZM34.69,4.78h.13v0h-.13Zm18.73,0h0V4.7h0Zm2.45-.17c.07,0,.1,0,.1-.09s0,0,0,0H56v.09l.1-.05h.08a.23.23,0,0,1-.26.26A.34.34,0,0,0,55.87,4.61Zm-21.62.13V4.65h0v.09Zm16.12,0h.08V4.65h-.08Zm4.44,0h0q.09,0,.09-.09l-.09,0A.45.45,0,0,1,54.81,4.74Zm.85,0v0h.13v.09A.3.3,0,0,0,55.66,4.7Zm-6.19,0h.08v0h-.08ZM53,4.52V4.44h0c.19.09.29.17.29.21s0,0,0,0l-.1,0-.08,0Zm1.21.18V4.57a.07.07,0,0,1,.08.08Zm.13,0V4.52h.21c0,.12-.08.18-.13.18Zm2.62,0v0A.09.09,0,0,1,57,4.57h.13v0A.08.08,0,0,1,57,4.7Zm-7.1-.26.3.21V4.57c-.11,0-.17-.1-.17-.26C49.89,4.31,49.85,4.35,49.81,4.44Zm-.22.17s.09-.05.13-.13h-.13Zm1.12,0v0s0-.08.13-.13a0,0,0,0,0,0,0V4.36h0c.18.07.26.12.26.16v.05l-.21,0,0-.09H51v0h0l-.21.13Zm.9-.09h.1v.09C51.64,4.6,51.61,4.57,51.61,4.52Zm-2.71.05H49V4.48H48.9Zm6.46,0V4.52a.09.09,0,0,1,.09-.08.07.07,0,0,1,.08.08l-.08.05ZM34.69,4.52h.08v0h-.08Zm17.62-.08V4.39h.08l0-.08v0h0s0,0,0,0l.09,0s.08,0,.13.13v.05c0,.06,0,.08-.09.08h-.17A.07.07,0,0,1,52.31,4.44Zm1.89,0V4.39h.09c.05,0,.08,0,.08.09a.27.27,0,0,0-.13,0Zm.69,0V4.39h0a.36.36,0,0,0,.13.05l0,.08A.3.3,0,0,0,54.89,4.48Zm1.85,0s0-.08.13-.13l0,.08v.05c0,.06,0,.08-.08.08S56.74,4.49,56.74,4.44Zm-22.18,0h0V4.39h0ZM49,4.48h.1v0H49Zm3.45,0h0V4.36h0Zm-2,0c.06,0,.09,0,.09-.08V4.31h-.09Zm2.5,0V4.39A.09.09,0,0,1,53,4.31v.05S53,4.44,52.91,4.44Zm.3,0V4.31h.08v.13Zm.13,0V4.36a1.18,1.18,0,0,1,.26-.1l0,.1A1.17,1.17,0,0,1,53.34,4.44Zm3,0V4.39h.08v.05Zm.9-.08V4.31h0a.07.07,0,0,1,.08.08l-.08.05Zm-9.9,0h.13a.3.3,0,0,1,0-.13h0S47.35,4.31,47.31,4.39Zm1.16-.08c.09,0,.13,0,.13.08h.09s0-.08.08-.08V4l-.08,0,0,.08a.39.39,0,0,0,0,.18h0c-.06,0-.08,0-.08-.08v-.1h.08S48.58,4,48.47,4Zm6.24,0V4.23h.1s.08,0,.08.08v.08h-.08C54.74,4.38,54.71,4.36,54.71,4.31Zm.48,0,.09,0,0,.1-.09,0Zm.81.08V4.31h.13v.08Zm-3,0V4.13a.11.11,0,0,1,.1-.08h.21c-.1.2-.17.31-.21.31ZM49,4.31h.13V4.1a.34.34,0,0,1-.18.08A.31.31,0,0,1,49,4.31Zm3.74,0V4.23h.05v.08Zm-3.14,0s.06-.09.17-.16h0v.13Zm4.22-.08.09,0,0,.1-.09,0ZM49.34,4.1v0h.08c.06,0,.08,0,.08.08s0,.1-.08.1ZM50.63,4l.13-.21c.25.16.38.3.38.44h-.09A.23.23,0,0,0,50.89,4a.43.43,0,0,1-.23.1Zm.21.13H51v.1h0A.11.11,0,0,1,50.84,4.13Zm3.14.1V4.18h.09v.05Zm-5.77-.05h.18l0-.21S48.25,4,48.21,4.18Zm3.27,0v0s0-.08.13-.13a.09.09,0,0,1,.1.1c0,.05,0,.08-.1.08Zm-4.3,0h.13s0-.08-.13-.13Zm8.57,0V4.05h.09v.08Zm-7.83,0H48v0h-.11Zm1.58,0V4l.22,0h0v.08s0,0,0,0A.38.38,0,0,1,49.5,4.1Zm2.37,0V4H52v.1ZM52.6,4a.83.83,0,0,1,.27-.08l0,.08v.1h-.09a.4.4,0,0,0-.13-.1v.1A.09.09,0,0,1,52.6,4Zm3.66,0h.18v.1h-.08C56.29,4.09,56.26,4.06,56.26,4Zm-9.34,0h0c.05,0,.08,0,.08-.08a.33.33,0,0,1-.18-.09v0A.21.21,0,0,1,46.92,4.05ZM47.13,4h.09s0-.05.05-.05l0,.08.09,0h0l.12.08.1-.13V3.84a.3.3,0,0,1-.18-.09c0,.11,0,.17-.08.17l-.09,0,0-.09v0h-.08c0,.11-.05.17-.14.17Zm4.1.08V4h0v.08ZM49.42,4V4c0-.06,0-.09.08-.09l0,.09-.08,0Zm2.79,0a.09.09,0,0,1,.1-.09h.08a.42.42,0,0,0,0,.12ZM46.53,4h.08V3.88h-.08Zm.21,0h0V3.79h0Zm8.19,0V3.88h0V4ZM48,3.92v0c0-.06,0-.09.08-.09h.05S48.09,3.87,48,3.92Zm3.53-.08v0c0-.06,0-.08.08-.08v0s0,0,0,0l0,.09v0S51.53,3.88,51.53,3.84Zm2.89.08v0c0-.06,0-.09.08-.09h0v0c0,.05,0,.08-.1.08Zm.29-.08h.1v.08C54.74,3.91,54.71,3.88,54.71,3.84Zm1.73,0,.08,0h0v.13h0C56.47,3.91,56.44,3.88,56.44,3.84Zm-4,0V3.75h.08v0C52.47,3.85,52.45,3.88,52.39,3.88Zm.9,0V3.79h.05v.09Zm-6.92-.13c.05,0,.08,0,.08.09h.08V3.75a.3.3,0,0,1-.13,0h0Zm8.78,0,.08,0,.05.08v0h-.05A.09.09,0,0,1,55.15,3.75Zm.69.09V3.75h.08C55.92,3.81,55.89,3.84,55.84,3.84Zm-9.7,0h.1V3.71C46.17,3.71,46.14,3.73,46.14,3.79Zm2.59,0v0s.05-.09.13-.13a.08.08,0,0,1,.09.09c-.06,0-.09,0-.09.08Zm.74,0v0c0-.06,0-.09.08-.09l0,.09v0Zm-1.68,0V3.66h.08V3.58h-.08V3.49l.16,0,.13.26s-.08,0-.08,0l-.08,0A.3.3,0,0,1,47.79,3.75Zm2,0q0-.09.09-.09v.09Zm-15.67,0h.08a1.37,1.37,0,0,1,0-.18q-.09,0-.09-.12h0v.08l0,.09A.24.24,0,0,0,34.09,3.71Zm16.06,0V3.62h.09v.09Zm.61,0V3.53h0a.36.36,0,0,0,.13.05v0c-.08,0-.13,0-.13.09Zm.85,0v0h.1v0Zm.65,0V3.62a.28.28,0,0,0,.17-.09v.05a.24.24,0,0,0,0,.13Zm-5.68,0,.08,0a.3.3,0,0,0,.13,0V3.58a.41.41,0,0,1-.18-.05A.45.45,0,0,1,46.58,3.66Zm4.47,0v0h.09v0Zm.13,0v0h.09v0Zm.87,0V3.58h0v.08Zm.86,0V3.58h0v.08Zm-7.72,0h.05V3.53h-.05Zm.74,0h.26v0a.31.31,0,0,1-.13-.05.36.36,0,0,1-.13.05Zm6.76,0V3.53h.09v.09Zm-7-.17c.06,0,.09,0,.09.13s.09-.05.13-.13-.13,0-.13-.09A.08.08,0,0,0,45.71,3.45Zm4.87.13V3.49h.05v.09ZM47,3.53s0-.08.13-.12v0s0,.08-.08.08Zm.69,0v0h.1v0Zm.7-.08a0,0,0,0,0,0-.05.27.27,0,0,0,.13.05c0,.06,0,.08-.09.08S48.39,3.46,48.39,3.41Zm.17.08v0h.08v0Zm.68,0V3.41h0v.08Zm.65,0v0H50v0Zm-3.18,0V3.36a.3.3,0,0,0,.13,0v0c0,.06,0,.09-.1.09Zm2.37-.09.08,0,.05.09-.1,0Zm3.23.09V3.36h0v.09Zm-6.77,0V3.32h-.09Q45.47,3.41,45.54,3.41Zm4.22-.13.09,0a.08.08,0,0,0,.09.09v.09h0S49.81,3.37,49.76,3.28Zm5.52.13V3.32h.08v.09Zm-3.2-.05v0c0-.06.05-.09.1-.09l0,.09-.08,0Zm2,0V3.28h0v.08Zm1.42,0v0h.09v0Zm-10.25,0h.08v0h-.08Zm5.9,0V3.23h.09v.09Zm3.23,0V3.23c.05,0,.08,0,.08.09Zm-8.95,0v-.1h-.1C45.33,3.25,45.36,3.28,45.42,3.28Zm.08,0a.31.31,0,0,1,.13,0v-.1l-.13,0Zm.26,0v-.1h-.09C45.68,3.25,45.71,3.28,45.76,3.28Zm1.16,0v-.1h0v.1Zm.61,0v-.1h.08v.1Zm.68,0V3.1l.09,0a.27.27,0,0,0,0,.13Zm.22,0V3.15h0l.09,0a.07.07,0,0,1,.08-.08v0a.27.27,0,0,0,0,.13Zm2,0v0h.08v0Zm.95,0c0-.06,0-.1.08-.1l.05.1Zm-4.74,0v0h.08v0Zm.56-.08c0-.06,0-.1.09-.1s.09,0,.09.1,0,.08-.09.08S47.22,3.2,47.22,3.15Zm-2.37,0h0V3.1h0Zm-1-.08H44V3.05h-.08Zm2.23,0V3h.09S46.16,3.1,46.1,3.1Zm7.76,0V3h0V3.1Zm-9.31-.05h.09V3c0-.06,0-.08-.09-.08ZM44.9,3l0,.08H45V2.94c0-.07,0-.1-.08-.1h-.09Zm1.5.08V3h.1v0Zm1,0V3s.06-.09.18-.13v0s-.05.08-.13.11ZM43.9,2.89l.22.13V2.84l-.17,0ZM46,3V3h.09V3ZM44.72,3h.05V2.89h-.05Zm.7-.08V2.84h.08V3S45.42,2.94,45.42,2.89Zm.47.08v0c0-.07,0-.1.08-.1V3ZM33.74,2.81c0-.05,0-.09.13-.13l0,.08s0,.05,0,.05l0,.08v0h0S33.79,2.89,33.74,2.81Zm10.68.13h.09c0-.07,0-.1-.09-.1Zm2.11,0V2.81h.08v.08Zm3.41-.08v-.1h0v.1Zm1.54,0v-.1h.09C51.57,2.77,51.54,2.81,51.48,2.81ZM48,2.76v0h.08v0Zm-3.79,0V2.58h.08v.13Zm.69-.08H45v.08C44.92,2.7,44.9,2.68,44.9,2.63Zm6.5.08V2.63h0v.08Zm-7.11-.16h.18c.06,0,.08,0,.08.08v.05C44.38,2.64,44.29,2.59,44.29,2.55Zm2.11.13c0-.07,0-.1.1-.1v.1Zm-2.5-.05H44V2.55C43.93,2.55,43.9,2.57,43.9,2.63Zm.87-.13.08,0,0,.1-.09,0ZM34,2.55v-.1h0v.1Zm7.66,0h0V2.42h0Zm-7.32,0c.06,0,.08,0,.08-.08H34.3Zm9.13,0v0h.09v0Zm.86,0V2.37h.13v.08ZM34,2.42V2.33H34v.09Zm.13,0V2.29h.08v0C34.17,2.39,34.14,2.42,34.09,2.42Zm8.23,0h.08c0-.06,0-.08-.08-.08Zm1-.13h.09a.08.08,0,0,1,.09.09v0h0S43.35,2.32,43.3,2.24Zm1.76.13V2.24h0v.13Zm7,0v0h.08v0ZM41.53,2.24h0a.08.08,0,0,0,.08-.09h0A.08.08,0,0,0,41.53,2.24Zm1.6-.13V2h.09l0,.22S43.17,2.19,43.13,2.11Zm-9,.09h.18V2.11H34.3a.27.27,0,0,1-.13,0Zm6.68-.05A.41.41,0,0,1,41,2.2V2.11h-.18Zm4,.05V2.11c.05,0,.08,0,.08.09Zm-3.76-.05h0V2.07h0Zm2.21,0V2.07h.08C43.43,2.13,43.4,2.15,43.35,2.15Zm-8.58,0h0V2h0Zm5.26,0h.08v0H40Zm4.13,0V2h.05v.09Zm-3.79,0h.05V2h-.05Zm.13,0h.09V2A.08.08,0,0,0,40.5,2.07Zm.56,0h0V2h0Zm1.42,0V1.94h.05V2ZM34.13,2s0-.08.12-.12h.1C34.35,1.92,34.28,2,34.13,2Zm8-.09h.1V2C42.12,2,42.09,1.94,42.09,1.89ZM43.9,2V1.86c.07,0,.1,0,.1.08Zm-9.34,0h.08V1.89h-.08Zm.17,0h0V1.86h0Zm7.62,0V1.89a.27.27,0,0,0,0-.13l.08.05a.45.45,0,0,0,0,.13Zm-8.87-.05V1.81h.05v.08Zm.52,0V1.81h.09v.08Zm5.56,0h.08v0h-.08Zm.55,0h0l.13,0,.21,0h0v0l-.26-.1s0,.05,0,.05,0-.05,0-.05Zm4-.08h.08v.08A.07.07,0,0,1,44.08,1.81Zm-2.33,0V1.76h.09v.05Zm1.21,0V1.73h0v.08Zm-3.62-.13.13.08h.17v0c-.17,0-.26,0-.26-.13h0Zm2.24.08V1.68h.08v.08Zm.39,0V1.68h0v.08Zm-7.54-.13V1.5c.12,0,.18,0,.18-.11h.16v0C34.77,1.47,34.66,1.54,34.43,1.63Zm6.5,0V1.5H41v.1Zm-2.88-.05h0V1.47h0Zm.64,0h.09V1.47a.36.36,0,0,1-.13-.05A.3.3,0,0,1,38.69,1.55Zm.82-.05V1.42h.18c0,.06,0,.08-.09.08Zm-4.74-.34h.09s.1.06.17.18v.08H34.9l-.08,0,0-.1Zm6.68.18h.08v.08C41.48,1.41,41.45,1.39,41.45,1.34Zm-7.32,0v-.1c.06,0,.09,0,.09.1Zm3.75,0h.21v-.1L38,1.34a.36.36,0,0,0-.13-.05Zm.6,0h.05a.11.11,0,0,0,.08-.1h0C38.51,1.29,38.48,1.32,38.48,1.39Zm3.23,0v-.1h.13v.1Zm-7.23,0V1.26h.08v.08ZM35,1.08h0l.09,0s0,0,0,0a0,0,0,0,0,0,0l0,.09,0,.08a0,0,0,0,0,0,.05A.27.27,0,0,0,35,1.29v0l0-.1C35,1.15,35,1.12,35,1.08Zm.78.21V1.21h-.08A.07.07,0,0,0,35.77,1.29Zm1.93,0h.09v0H37.7Zm-2.5,0V1.21s.09-.11.26-.22.09.05.13.13A2.09,2.09,0,0,1,35.2,1.26Zm2.2,0a.09.09,0,0,0,.09-.1v0a.08.08,0,0,0-.09.09Zm2.24-.1V1.08h0v.08Zm.52,0V1.08h.08S40.22,1.16,40.16,1.16Zm-1.68,0V1c.06,0,.08,0,.08.09v0Zm.65,0V1h.08C39.21,1.09,39.19,1.12,39.13,1.12Zm-2.54,0A.09.09,0,0,0,36.67,1l-.08,0Zm.73,0h0V1h0Zm.08,0A.36.36,0,0,1,37.53,1c0-.06,0-.08-.08-.08L37.4,1ZM34.48,1V1h.08V1Zm3.27,0V1h-.09A.09.09,0,0,0,37.75,1Zm.13-.17H38L38,1h-.09Zm1,.17V1H39V1ZM38.35.91V.86h0c.05,0,.08,0,.08.09V1h0A.07.07,0,0,1,38.35.91ZM36.5,1h0V.82h0Zm.38-.09.1,0V1C36.91.94,36.88.91,36.88.86Zm.91,0V.69q0-.09.09-.09h0a.12.12,0,0,0,.13.13V.82h0s0,0,0,0l-.08,0ZM36.33.73V.65h.08V.73Zm2.41,0V.65h.08V.73ZM35.08.65V.56h0V.65ZM36.19.6v0h.09v0Zm.87-.21s0-.08.08-.08V.39Zm.39,0v0h.08v0ZM36.88.13v0A.09.09,0,0,1,37,0V.05C37,.1,36.94.13,36.88.13Z"/><path class="cls-1" d="M4.12,12v0h.12v0Zm-1.94-.18v-.09h.07v.09Zm3.31-.45.14,0H5.7v0c0,.06,0,.09-.14.09Zm-1,.05v-.09h0v.09Zm1.37,0v-.05H6v.05Zm.41-.09v0h.14v0Zm-1.07-.1a.21.21,0,0,0,.07-.13h.14v.1s0,.08-.14.08S5.21,11.27,5.16,11.27Zm-.71,0v-.05h.19l.07.08H4.64Zm-.81,0v-.1h.07v.1Zm1.85,0v-.05h.14v.05Zm.47,0v-.1h.2c0,.06,0,.1-.13.1Zm-1.18-.05v-.1H4.9v.1Zm-2.46,0c0-.06.06-.09.14-.09v.09Zm.33-.05V11h.07v.08Zm1,0V11h.14C3.78,11.07,3.74,11.09,3.64,11.09ZM3.24,11c.12-.15.21-.22.27-.22h.06V11q-.12,0-.12.09A.68.68,0,0,0,3.24,11Zm1.26,0V11c.09,0,.14,0,.14.09Zm.33,0v0A.13.13,0,0,1,5,10.92L5,11l-.14,0Zm20.61,0v-.09h.07V11ZM4,11v-.09h.07V11Zm1.18,0v-.09h.07V11ZM6,10.79a.12.12,0,0,1,.13-.1H6.3c.09,0,.14,0,.14.1v.08H6.3v-.13l-.14,0Zm-1.91,0v0a.11.11,0,0,1,.12-.1l.14.05q0-.09.33-.18v0a.25.25,0,0,0-.07.14l.14-.05h0v.1a1.09,1.09,0,0,0-.26,0,1,1,0,0,0-.26,0Zm.78-.18v0c0-.06.06-.09.14-.09h.12c0,.09,0,.13.14.13v-.08a.35.35,0,0,1-.07-.14l.14-.05.07.1v.17s-.12.1-.33.18H5C5,10.7,5,10.64,4.9,10.64Zm2.65.1h.07c.09,0,.14,0,.14.08H7.69C7.6,10.81,7.55,10.79,7.55,10.74Zm-1.92,0v0a.13.13,0,0,1,.14-.1h.12v0c0,.06,0,.1-.12.1Zm-3.24-.28c.06,0,.12.05.19.13s0,.1-.12.1ZM.8,8.62V8.49h.33c0-.05.07-.1.2-.14l-.07-.09c0-.06.05-.09.14-.09s-.12-.11-.34-.23v0c.22,0,.34,0,.34.09s.19-.06.19-.09a.23.23,0,0,1-.07-.13l-.12,0H1.33v0l.07-.1.12,0h.07c0-.09.07-.13.21-.13l-.07-.1-.14,0H1.52s-.07-.13-.19-.22H1.4l.26.13h.07l-.07-.26-.14,0H1.46a1.26,1.26,0,0,1,.67-.31V6.82H1.85V7l-.19-.09H1.52c0,.12-.11.22-.33.32V7.14A.35.35,0,0,0,1.26,7c-.05,0-.07,0-.07,0s.21,0,.21-.09v0l-.27-.18.13,0c0,.07.05.1.14.1l.26-.14h.07l.12,0s0,0,.07,0,.07.09.21.14h.05a.91.91,0,0,1-.12-.37l.19-.08c.09,0,.14.06.14.18h.45c0-.15.07-.23.21-.23C3,6.11,2.91,6,2.72,6v.09h.12v.08h0l-.33,0v0l.12-.14c-.08,0-.12,0-.12-.08v0a1,1,0,0,0,.38,0h.21v0h.07v.15l-.33,0v0h.33l0,.22c.1,0,.14,0,.14-.08H3.17a3.54,3.54,0,0,0,.07-.5h.07c0,.06,0,.09.14.09v0l-.14.15h.14v0L3.38,6h.13l-.06-.23c.18,0,.26-.06.26-.18h.13v.13l.33-.08s0,0,.07,0,.07-.09.21-.13,0,0,0,0v0l0-.1s0,0,0,0l.14,0A1.82,1.82,0,0,1,5,5.34l.19.18.14,0q.33.09.33.18h.12V5.56c-.12,0-.19,0-.19-.09l.14,0a.11.11,0,0,0,.12.1A.12.12,0,0,1,6,5.42a.78.78,0,0,0,.34.1v0c.17,0,.26.06.26.14H6.7V5.52s-.09-.11-.26-.18v0H6.37a.76.76,0,0,1-.21.1v0a.35.35,0,0,0,.07-.14h.14l.26.14H6.7l-.07-.09v0L7,5.61c.1,0,.24-.09.4-.27l.12,0v-.1c-.13,0-.19,0-.19-.09v0h.07c.1,0,.19.09.26.26h.14l-.14.14v.09l.14,0h0c.1,0,.14,0,.14.13H8a.57.57,0,0,1,.26-.09v0H8.14s0,0-.05,0V5.56c.12-.15.21-.22.26-.22v.08l-.07.1c.1,0,.14,0,.14.13h.13l-.07-.09a.68.68,0,0,1,.2,0v-.1H8.55V5.34h.07a.59.59,0,0,0,.19,0v0s0,0-.06,0l.06.09a.28.28,0,0,0-.06.18H8.68l-.13,0-.07.1.2,0L9,5.61c.26,0,.4.12.4.23l.33,0v0c-.09,0-.14,0-.14-.09H9.47v.09H9.35a.12.12,0,0,0-.14-.13q0-.09.21-.09a.91.91,0,0,0,.33.09l-.21-.19a.21.21,0,0,0,.07-.13h.07a.3.3,0,0,0,.19.27v.05a.48.48,0,0,0-.12.13.59.59,0,0,1,.19,0l.14-.14c-.05,0-.07,0-.07,0h.12a.28.28,0,0,0,.07.13l.14,0h.12l.14.23h.07c0-.09,0-.13.12-.13l.14,0a.83.83,0,0,1,.34,0v.08a1.11,1.11,0,0,1,.33,0v0l.14,0h.12v0l-.07.1-.12,0h-.14V6c.14,0,.21,0,.21,0l.12,0H12q.12,0,.12.09l.14,0h.19a.68.68,0,0,1,.14.18h.14V6.1c-.22,0-.33-.11-.33-.31V5.65h0v.09l.14,0A.61.61,0,0,0,13,6h.12l0-.09v0h.12v.32L13.45,6h.07v0l-.07.08.47.05V6.06a.54.54,0,0,1-.27,0s0,0-.06,0L13.52,6l.33,0c0,.09.18.14.4.14h.19c0,.09.11.13.33.13a.21.21,0,0,0,.07-.13h.07c0,.09.05.13.14.13l.38-.05v.05l0,.1a.71.71,0,0,1,.19.08h.07v0H15.5v0a.12.12,0,0,1,.14-.1l.13,0c0-.1.09-.14.27-.14v0l.13,0h.07v.14c.22,0,.33-.06.33-.1l.14.05h.38A.35.35,0,0,1,17,6l-.21.09h-.12q.12-.1.12-.18h.07c.05,0,.07,0,.07,0l.12,0h.14L17.16,6s0,0,.07,0c-.06.15-.12.23-.19.23s0,0-.07,0v.13a.59.59,0,0,1,.19,0c.06-.15.13-.23.21-.23h.12l.4.23v-.1h-.14v0s0,0,.07,0l-.07-.1v0c.1,0,.14,0,.14.09s.07,0,.07-.05l.33.05h.13l-.06-.09s.06,0,.06,0a.79.79,0,0,0,.28,0v0h-.14v.1l.14,0,.12,0v0l-.07-.09a.82.82,0,0,0,.28,0L19,6.29s.05.08.12.08h.14L19,6.14h.33l.12.23c.27,0,.4-.1.4-.23H20v.05l-.07.1c.05,0,.07,0,.07,0,.26,0,.38-.07.38-.18h.14v.1l-.19.18v0a1.35,1.35,0,0,1,.39-.09.8.8,0,0,0,.2,0l-.07-.1A.13.13,0,0,1,21,6.24h.13v.08c.11,0,.4,0,.87-.08v.08l-.33,0v.09l.33,0,.12,0c.06,0,.17-.07.33-.22h.26l.28.13h.06c0-.09-.09-.13-.27-.13v-.1c.36.08.54.17.54.28a1.2,1.2,0,0,1,.34-.18l0,.08,0,.1v0h0V6.37h.21q.12,0,.12.09c.14,0,.21-.07.21-.22h.07l.19.08h.07c0-.08,0-.13.12-.13l.14,0a.67.67,0,0,1,.19,0l.21,0A.46.46,0,0,1,25.11,6l.21.09A.31.31,0,0,1,25.37,6c-.08,0-.12,0-.12-.1h.07c.13,0,.19.08.19.23l.2-.09a.13.13,0,0,0,.14.09V6a.25.25,0,0,1-.07-.14h.07c.07,0,.15.07.26.19L26,6.19h.2c0-.12.11-.18.26-.18a.61.61,0,0,0-.12-.14v0l.26.08c0-.06.05-.08.12-.08h.07l.07.22H26.7V6h-.12l.07.09s-.07,0-.07,0l.33,0a.41.41,0,0,1,.4-.3.23.23,0,0,1,.05.17.8.8,0,0,1,.21,0c0-.09-.09-.13-.26-.13v-.1a2.62,2.62,0,0,0,.52.1s0,0,.07,0,.06.08.13.08V5.79H27.9v0a1.48,1.48,0,0,0,.46-.09v0a1.82,1.82,0,0,1,.4-.08l.14.13a.23.23,0,0,0-.07.13L29,5.79c.14,0,.21,0,.21.13l.26-.31a1.51,1.51,0,0,0,.47.18.11.11,0,0,1,.12-.1h.07l-.07.1v.08h.14c.08,0,.15-.13.19-.4h.07v.14h.27c0-.09-.07-.14-.2-.14V5.39h.07q.39.12.39.3h.14l-.07-.08.14-.05.26.05a.59.59,0,0,1,.19-.05.23.23,0,0,1,.07.13l.14,0H32l-.07.09.19.1v0L32,5.69l.21-.08.12.23h.14V5.69h.07c0,.12.14.21.4.28V5.84a.28.28,0,0,1,.2.13s-.07,0-.07,0h.07l.33,0v0c-.18,0-.27,0-.27-.08h.13l.21,0V6l-.07.09c.22,0,.33.06.33.13h-.14v0h.21s0,0,.07,0a.11.11,0,0,0,.12.1.27.27,0,0,0,.07-.15h.07c0,.1.06.15.19.15v.17l-.07.23c.09,0,.14,0,.14.08v.05l-.07.09h.21V6.77h.12v.14l.14,0a.4.4,0,0,1,.12.22,0,0,0,0,0,0,0h.12v.08H35l-.33-.13h0l.26.32v0l-.07.09h.26v0l-.19.22c.07,0,.16.1.26.28-.26.05-.4.11-.4.17h.07l.33,0v.09s-.14.06-.26.18c0,0,0-.05-.07-.05l-.14.13-.12,0h-.07v0a.59.59,0,0,1,.19,0,.13.13,0,0,1,.14-.08h.07s-.09.1-.26.17h-.14c0-.06,0-.09-.07-.09a.59.59,0,0,1-.19.05v0h.12V8.8c-.17,0-.26,0-.26.09s.14,0,.14.1-.07,0-.07,0l-.26-.08H33.8V9a2.71,2.71,0,0,0,.47.13v.13h-.21a2.93,2.93,0,0,1-.45,0v0h-.14c0,.15,0,.22.14.22l.19,0v.13h-.07a.67.67,0,0,0-.19-.05c0,.06,0,.09-.14.09V9.52l.07-.08c-.13,0-.2,0-.2-.1h-.13l-.2.18a2,2,0,0,0-.47-.13H32.4v0l.4,0v0c0,.06-.06.09-.19.09a.68.68,0,0,0-.21,0s0,0-.07,0l0-.09s0,0,0,0h0c-.31.07-.47.14-.47.23h-.14a.31.31,0,0,0-.05-.13h.19V9.39h-.14c0,.09-.17.13-.52.13q0,.09.33.09V9.7l-.47,0V9.52c0-.06.07-.08.21-.08s0-.1-.14-.1a.67.67,0,0,1-.19.05s0-.05-.07-.05l-.07.1s.07,0,.07,0h-.2v0q.27,0,.27.09v.05h-.21c0-.12-.13-.19-.39-.19l.05.1a.34.34,0,0,0-.05.17h-.14l.14-.4h-.21a.21.21,0,0,1-.07.13s.07,0,.07,0H30q-.21,0-.21-.18h-.07c-.08,0-.12,0-.12.1s.12,0,.12.08l-.26.14V9.57H29.3a.12.12,0,0,1-.14.13.63.63,0,0,1-.4-.23l-.12,0h-.07c0-.09-.05-.13-.14-.13h-.07v.13h.14v.09L28,9.52c-.06.18-.13.27-.2.27s-.14,0-.14-.09l.07-.09a.35.35,0,0,1-.07-.14l-.12,0-.14,0c0,.07-.07.11-.07.14h-.19l.07-.22a.36.36,0,0,0-.4-.4l.07.08v.22h-.07c-.09,0-.14,0-.14-.08s.07,0,.07-.05l-.12,0a.21.21,0,0,0-.07.13l-.21-.09h-.19v.09h.19v.09c-.13,0-.19,0-.19.1H26V9.29l.07-.22h-.19v0l.06.09-.13,0c-.05,0-.07,0-.07,0l-.13,0a.31.31,0,0,1-.21-.13,2,2,0,0,1-.52.13.23.23,0,0,1-.07-.13h-.14l-.19.09c0-.1-.09-.16-.26-.19V8.89h-.14v0l.07.22h-.07C24,9.16,24,9.12,24,9h-.28v.14h.14v.05c0,.06-.05.08-.14.08l-.12,0v.09h-.14l-.07-.18h-.06c0,.06,0,.09-.07.09-.39-.13-.59-.22-.59-.26H22.6c-.09,0-.14,0-.14.08h.21a.7.7,0,0,1-.47.27V9.29l.07-.08A.54.54,0,0,1,22,9.12l-.07.09v0h.12v.09h0l-.47-.22H21.4l.07.09-.07.08a.67.67,0,0,1,.33.1s0-.05.07-.05,0,.05.07.05a.24.24,0,0,0-.07.18h-.07c0-.07-.09-.13-.26-.18v.08q-.12,0-.12-.18h-.14l-.07.23H21a1.19,1.19,0,0,0,.13-.36A.25.25,0,0,1,21.07,9h-.13a.25.25,0,0,1-.07.14H21v.09h-.27c0,.07-.09.13-.27.19H20.4v0a.44.44,0,0,1,.41-.23l-.07-.09V9l.07-.08h-.13c0,.05,0,.08-.07.08l.07.1v0l-.33,0h-.07c-.09,0-.14.06-.14.17L20,9.21h-.21a.39.39,0,0,1,0-.14h-.21l.07.09v.23a.5.5,0,0,0-.26,0v0l-.14,0h-.07v0a.25.25,0,0,0,.07-.14H19v.14h-.21l-.05-.27c-.19,0-.28.09-.28.13v0h.21v.1s-.05.08-.14.08-.16-.07-.2-.22l-.14,0H18l-.21-.08c-.08,0-.12,0-.12.08h.12l-.07.1v.08h.14v.1h-.07c-.35-.14-.52-.27-.52-.41s-.18.09-.33.28v0l.12.14H17a1.81,1.81,0,0,1-.47-.22v.13l-.12,0H16a.53.53,0,0,1-.27.1s-.16-.08-.34-.23l-.12.05v-.1h-.14v.1h.14s0,.08-.14.08H15.1l-.12,0-.07.08v.05l.14-.05h0v.09l.14,0,.14.13h-.14l-.33,0a.23.23,0,0,0-.07.13h-.26c-.09,0-.14,0-.14-.09h.33v0h-.12l.12-.14h-.12l-.21.18h0c-.1,0-.14,0-.14-.13l-.14,0H14a.13.13,0,0,0-.14-.14h-.07v.14h-.06l-.54-.22a.27.27,0,0,1-.07.18h.07l.34-.05v.14c0,.06,0,.08-.13.08h-.21c0,.07,0,.1-.12.1v-.1l.12-.13a.92.92,0,0,1-.33,0s-.06.08-.19.13h-.07c0-.12-.06-.18-.19-.18,0,.15-.07.22-.21.22l-.07-.08L12,9.7l-.33,0-.07.23h-.14c0-.13-.13-.19-.39-.19l-.14,0-.26-.08v0c0,.09.09.14.26.14l-.07.08q-.29-.08-.33-.18V9.66l.07-.09-.14-.05a1,1,0,0,0-.19.37,2,2,0,0,1-.73-.15s0,0-.07,0l.07.1V10a.46.46,0,0,0-.4.18A1.57,1.57,0,0,1,8.55,10a.63.63,0,0,1-.2,0c0-.06,0-.09-.14-.09l-.12,0,.05.09v.18H8v.08h.12v.05H7.88v-.05L8,10.29H7.69s-.07,0-.21,0v-.05H8v0q-.33,0-.33-.09a.58.58,0,0,1-.26,0c0,.21.17.31.52.31v.05a1.4,1.4,0,0,0-.59.13v0l.14-.14c0-.06-.09-.08-.28-.08v-.1h.14v-.05H7.15s0,.05-.05.05A.24.24,0,0,1,7,10.06H6.89l.07.23c-.09,0-.14,0-.14.08v.1H7v.09l-.14-.05c0,.09-.11.13-.33.13v-.13c.14,0,.23-.1.28-.32l-.54.23v.05l-.13-.05.06-.08v-.1H6.1c-.07,0-.2.09-.4.27H5.56c0-.15-.11-.22-.33-.22,0,.05,0,.08-.12.08s-.05-.08-.14-.08,0,.13-.14.13,0-.08-.12-.08l.07-.1v-.05H4.71l-.14.28c-.12,0-.18-.08-.19-.23H4.17v.1h0L4,10.29c0,.05,0,.08-.14.08H3.78s-.07,0-.07,0-.07,0-.07,0l-.33,0H3.17v.08c.14,0,.21.05.21.14a.12.12,0,0,0,.13-.14l.13.05c0,.15-.17.22-.52.22-.06-.15-.13-.22-.21-.22s0-.05.07-.05c-.13-.42-.3-.63-.52-.63v.1H2.32V9.84l.07-.1c-.14,0-.21,0-.21-.08s.17-.14.28-.41a.85.85,0,0,0-.33,0c0,.13-.16.2-.47.23L2,9.21c-.1,0-.14-.07-.14-.22l.21,0V8.94H2L1.66,9c-.22-.14-.33-.26-.33-.37s0-.08.13-.08v.13h.06c0-.09.07-.13.21-.13l-.07-.1v0H1.8v0H1.46A.84.84,0,0,1,.8,8.62Zm3.18,2s0,0,.07,0L4,10.51v-.09h.14l0,.18-.12,0Zm3.83,0v-.08H8v.08Zm-3.64-.17v-.1a.29.29,0,0,1,.21.14v.09A.31.31,0,0,1,4.17,10.47Zm1.93.13s.07-.09.2-.13v0c0,.06,0,.09-.14.09Zm-4.51,0v-.09h.14v.09ZM6,10.47v-.1c.1,0,.14,0,.14.1v.09C6,10.55,6,10.51,6,10.47Zm-2.25,0a.12.12,0,0,1,.13-.09v.09ZM2.18,10h.07l.21.09h0V10l.14,0-.07.09v.08c.14,0,.21,0,.21.05l-.14.18c.05,0,.07,0,.07.05H2.65s-.07,0-.07-.05l-.12.05H2.39v-.1c.13,0,.19,0,.19,0Zm4.78.4v0h.19v0c0,.06,0,.1-.12.1Zm1.52,0v0c.09,0,.14,0,.14.08v.05C8.52,10.46,8.48,10.43,8.48,10.37Zm-7.35.05v-.08h.06v.08Zm.79-.05s.06-.08.14-.08h.07v.13Zm9.61-.08h.14v.08C11.57,10.36,11.53,10.34,11.53,10.29ZM1.4,10.34v-.05h.12v.05Zm4-.05h0v-.1h0Zm3,0v-.05h.14v.05Zm.33,0v-.05H9v.05Zm7,0v-.09H16v.09ZM3,10.19h.07v-.08H3Zm3.51,0h.07a.68.68,0,0,1,.21,0V9.92c-.12.15-.21.23-.28.23Zm3.78,0v-.09c0-.06.06-.09.14-.09l.05.09v.13A.54.54,0,0,0,10.27,10.15Zm2.72,0v-.08h.07c.08,0,.12,0,.12.08Zm17.42,0v0h.14v0Zm-28.35,0v-.09h.07v.09Zm1.65,0h.13v0H3.71Zm1.07,0h0v0A.8.8,0,0,1,4.5,10h0Q4.47,10.09,4.78,10.15Zm.52,0h.14v0H5.3Zm4.64-.09v0a.59.59,0,0,0,.19,0l.07.09a.65.65,0,0,1-.19.09Zm-8.42,0V10h.14v.09Zm2.05,0h.07V10H3.57Zm.55,0c.08,0,.12,0,.12-.09v0q-.12,0-.12.09Zm7,0V10h.07v.09ZM28.9,10v0q.12,0,.12.09v0C28.94,10.1,28.9,10.06,28.9,10ZM1.13,9.92a.13.13,0,0,1,.13-.08c.07,0,.14.06.2.18l-.13,0A.27.27,0,0,1,1.13,9.92Zm6.23.14h.12a.25.25,0,0,1,.07-.14H7.29A.25.25,0,0,1,7.36,10.06ZM8.62,10l.26.09v0l-.07-.1V9.79l-.13,0a.33.33,0,0,1-.06.15s.06,0,.06,0S8.62,9.94,8.62,10Zm3.64.09v0h.14v0Zm.85-.09h.21v.09h-.07C13.16,10.06,13.11,10,13.11,10Zm.34,0,.14-.05c.09,0,.13,0,.13.1l-.13,0C13.49,10.06,13.45,10,13.45,10ZM2.91,10h.26v-.1h0a.76.76,0,0,1-.21.05ZM5.3,10h.07v-.1H5.3Zm.47,0h.12v0H5.77Zm3.84-.13h.07l.12,0s0,0,.07,0l.07.08v0H9.8C9.74,10,9.68,10,9.61,9.89Zm5.23.13v-.1h.07V10ZM32,10v0h.14v0ZM2,10V9.89a.67.67,0,0,0,.19-.05v.05s0,.08-.12.08Zm1.32,0h.07V9.89H3.31Zm3.51,0h.07V9.89H6.82Zm5.63,0V9.92h.28V10Zm9.42,0V9.89H22V10ZM9,9.89l.19,0v0a.27.27,0,0,1-.07-.15H9Zm-6.11,0h.21V9.84c0-.06,0-.1-.14-.1A.27.27,0,0,1,2.91,9.89Zm2.58,0h.14c0-.07,0-.1-.14-.1Zm6.7,0V9.84c0-.05.07-.1.21-.14h.19v.09Zm19.15,0v-.1h.07v.1ZM12.85,9.84v-.1h.07v.1Zm3.79,0v-.1c.08,0,.12,0,.12.1Zm1.85-.1h.26c0,.07,0,.1-.12.1S18.49,9.8,18.49,9.74Zm.47.1c0-.05.06-.1.19-.14v0c0,.07,0,.1-.12.1Zm1.72,0v-.1h.13C20.81,9.81,20.76,9.84,20.68,9.84Zm6.75-.1v0a.26.26,0,0,1,.21.14h-.07C27.48,9.83,27.43,9.8,27.43,9.74Zm3.58.1v-.1h.14v.1Zm1.79,0v-.1h.14v.1Zm-23-.14a1.38,1.38,0,0,1,.45.09h.07v0a1.24,1.24,0,0,1-.47-.13Zm4.31,0h.12v.09Q14.06,9.77,14.06,9.7Zm-12.14,0,.14-.05v.13C2,9.74,1.92,9.71,1.92,9.66Zm.92.08h.07V9.66H2.84Zm6.51,0h.07a.54.54,0,0,1,.19,0V9.61H9.47q0,.09-.12.09Zm6.22,0V9.61c.1,0,.14,0,.14.09v0Zm4.17,0v0a.13.13,0,0,1,.14-.09c.09,0,.14,0,.14.09Zm6.58,0V9.66h.12v.08Zm2.18-.08V9.61h.26v.13h-.12C28.54,9.74,28.5,9.71,28.5,9.66Zm1.39.08c0-.05.05-.08.12-.08h.07c0,.06,0,.08-.12.08ZM11.13,9.61l.21.09a.33.33,0,0,1,.07-.23h-.07A.29.29,0,0,0,11.13,9.61Zm5.3.09V9.61a.13.13,0,0,1,.14-.09V9.7Zm4,0V9.61h.14V9.7ZM27,9.7V9.61h.12V9.7ZM.85,9.66V9.57H1v.09Zm1.8,0h.14V9.61H2.65Zm5.7,0h.13V9.61H8.35Zm2.58,0h.14V9.61h-.14Zm.6,0c.09,0,.14-.05.14-.09V9.52h-.14ZM18,9.61a.26.26,0,0,0,0-.14h.07s.05.11.14.19h-.14Zm3.91.05V9.61h.12v.05Zm1.45-.19h.07c.09,0,.14,0,.14.1l.12-.05h.07c0,.05-.07.09-.19.14h-.14l.07-.09C23.43,9.56,23.39,9.53,23.39,9.47Zm10.81.19V9.57h.07v.09ZM2.46,9.61h.12q0-.09-.12-.09Zm6.63,0h.12v0H9.09Zm1.11,0h.07s0-.07.07-.14H10.2Zm5.3,0V9.52h.07v.09Zm1.8,0v0s.06-.09.19-.13v0c0,.07-.07.11-.07.14Zm1.26,0v0h.14v0Zm2.65-.09h.14v.09C21.25,9.61,21.21,9.57,21.21,9.52Zm-19.62,0v0l.14,0a1.55,1.55,0,0,1,.4-.08l.05.08-.12,0s0,0-.07,0-.05.1-.14.1H1.73C1.63,9.56,1.59,9.53,1.59,9.47ZM12,9.57h.07v-.1H12Zm.66,0h.07V9.44h-.07Zm7.22-.1.19-.08.07.08a.55.55,0,0,1-.19.1Zm2.39.1v-.1h.12v.1Zm4.31-.05V9.44h.07c.17,0,.26.08.26.13h-.14A.67.67,0,0,0,26.58,9.52Zm2.39,0,.12,0c0,.07.06.1.14.1a.24.24,0,0,1,.07-.18l-.14-.05H28.9v.05A.28.28,0,0,1,29,9.52Zm-27.64,0V9.44H1.4v.08Zm1.25,0h.14V9.44C2.63,9.44,2.58,9.46,2.58,9.52Zm10.27,0,.14,0c0-.06,0-.08.12-.08a.41.41,0,0,1,0-.19h-.14Zm1.47,0h.19c.09,0,.14,0,.14-.08v0a1.25,1.25,0,0,1-.33.08Zm5.16,0v0h.14v0Zm7.43,0V9.44h.19c0,.05,0,.08-.12.08Zm-17.49,0h.12v0H9.42Zm2.37,0h.14A.23.23,0,0,1,12,9.34V9.29h-.07c0,.07,0,.1-.14.1Zm.4,0h.14V9.34h-.14Zm4.57,0h.07A.12.12,0,0,1,17,9.34a.21.21,0,0,1-.07-.13.58.58,0,0,1-.19,0A.45.45,0,0,1,16.76,9.47Zm3.38-.08h.07c.1,0,.14,0,.14.08h-.07C20.19,9.46,20.14,9.44,20.14,9.39Zm.54,0h.13v.08C20.72,9.46,20.68,9.44,20.68,9.39Zm2,.08V9.29h.12l-.07-.08V9.16h.21v.18h-.21l.07.1v0Zm5.36,0c.09,0,.13,0,.13-.08V9.34h-.07v.1H28v-.1h-.14S27.9,9.42,28,9.47Zm-15.58,0h.07v-.1h-.07Zm3.19,0h.07a.44.44,0,0,1,.19,0v-.1a.48.48,0,0,1-.26.1Zm4.05-.1a.41.41,0,0,0,.19-.05v.05c0,.06-.05.1-.14.1Zm4.24.1v-.1c.08,0,.12,0,.12.1Zm2.72-.1h.12v.1C26.69,9.42,26.65,9.39,26.65,9.34ZM1.33,9.39v-.1H1.4v.1Zm13.39,0h0v-.1h0Zm1.25,0,.13-.05a.76.76,0,0,0,.21.05l.07-.1v0A.77.77,0,0,1,16,9.12v.17H16Zm-2.65-.05h.07V9.25h-.21A.13.13,0,0,0,13.32,9.34Zm2.25,0h.14V9.29h-.14Zm13.85,0h.14c0-.06,0-.09-.14-.09Zm-9.14-.05v0h.12v0Zm2.25,0s.06-.08.14-.08v.08Zm4.9,0h.26V9.21h-.05a.68.68,0,0,1-.21,0Zm.93,0h.14v0h-.14Zm.54,0H29v0H28.9Zm-27.44,0V9.16h.2v.09Zm11.06,0h.14v0h-.14Zm3,0h.07V9.16H15.5Zm17.64,0h.13v0h-.13Zm-15.77,0h.19c.06,0,.12-.05.19-.14h-.12a.54.54,0,0,1-.26.09Zm1.78,0h.14V9.12h-.14Zm9.94,0h.07V9.12h-.07ZM1.19,9.12v0s0-.05.07-.05l-.07-.08v0h.07A.47.47,0,0,0,1.52,9c0,.07,0,.1-.12.1Zm.87,0h.07c.08,0,.12,0,.12-.1H2.18C2.1,9,2.06,9.05,2.06,9.12Zm11.66,0h.13V9C13.77,9,13.72,9.05,13.72,9.12Zm6,0h.07V9h-.07Zm.21,0c.08,0,.12,0,.12-.1H20Zm6.49,0h.14v0h-.14Zm.92,0h.14v0h-.14Zm.21,0h.12v0h-.12Zm5.9,0h.14v0h-.14Zm-18.16,0h.12V9h-.12Zm5.09,0h.07V9H20.4Zm.81,0h.14V9h-.14Zm2.32,0h.14V9C23.57,9,23.53,9,23.53,9.07Zm1.72,0h.07c.06,0,.12,0,.19-.13h-.19A.23.23,0,0,1,25.25,9.07ZM.92,9V8.89s0-.05.07-.05L.92,8.76v0l.27,0v.09H1.06l.07.08L1,8.89l.07.1V9ZM22.79,9h.14l.19,0v-.1a.64.64,0,0,1-.33.1Zm1.87,0h.12V9h-.12Zm.92,0h.07V8.94h-.07Zm8.88,0V8.94a.13.13,0,0,1,.14-.1.44.44,0,0,0,.19.05C34.79,9,34.68,9,34.46,9ZM21.87,9v-.1h-.14A.14.14,0,0,0,21.87,9Zm.4,0h.12c0-.07,0-.1-.12-.1ZM17.7,8.94h.12v0H17.7Zm2.18,0H20v0h-.14Zm3.79,0h.12c0-.06,0-.1-.12-.1Zm.71,0h.14v0h-.14Zm-22.46,0V8.84c0-.05,0-.08-.12-.08v0A.1.1,0,0,0,1.92,8.89Zm22.79,0h.14V8.84h-.14Zm-24-.05V8.76H.73v.08Zm1.4,0h.12v0H2.06Zm-.54,0c.09,0,.14,0,.14-.09v0c-.1,0-.14,0-.14.09Zm23.85,0h.07V8.67h-.07Zm9.35,0V8.67c.1,0,.14,0,.14.09Zm-32.66,0h.07V8.62H2.06ZM1.8,8.26l.12-.14v0a1,1,0,0,1-.26,0v.05C1.67,8.23,1.71,8.26,1.8,8.26Zm.52,0h.14v0H2.32Zm-.73,0v-.1H1.46A.12.12,0,0,0,1.59,8.22Zm.47,0h.07v-.1H2.06ZM34.6,8.17h.12V8.12H34.6ZM.85,8V7.86H1V8Zm.67,0h.14V8H1.52Zm.21,0H1.8v-.1H1.73Zm33,0h.07c.09,0,.14,0,.14-.09h-.07C34.77,7.9,34.72,7.93,34.72,8ZM.52,7.86V7.77H.59c.1,0,.14,0,.14.09v0A.68.68,0,0,0,.52,7.86Zm-.45,0V7.77H.14v.09Zm.78-.05v0h.28l-.07-.1.2,0-.13-.15.2-.08H1.4c0,.09,0,.13.12.13v.1a.76.76,0,0,0-.46.22A.76.76,0,0,0,.85,7.81Zm1.07,0v-.1H1.8A.11.11,0,0,0,1.92,7.77Zm32.73-.13h.07v-.1h-.07ZM.8,7.45h0l.14,0V7.41h.14v0a.35.35,0,0,0-.07.14H.85A.26.26,0,0,0,.8,7.45Zm1.12,0h.21v0H1.92ZM35,7.36V7.27h.14v.09Zm-33.06,0h.14V7.27H1.92ZM1,7.19v-.1h.14v.1ZM.47,7.14V7H.52v.1ZM34.79,7,34.86,7h-.21A.13.13,0,0,0,34.79,7ZM1.52,6.77h.07l.33,0v0H1.59Zm.8,0h.14v0H2.32Zm.07-.08c.08,0,.12,0,.12-.1H2.39Zm20.73-.1a.12.12,0,0,1,.14-.13c0-.06,0-.09-.14-.09L23,6.51C23,6.57,23.06,6.59,23.12,6.59ZM.33,6.55v0H.47v0Zm23.53,0H24v0h-.14ZM34,6.55h.14v0H34Zm-14.11,0a.75.75,0,0,1,.26,0v0h-.33v0h-.12S19.75,6.46,19.88,6.51Zm2.58,0h.14a.35.35,0,0,1-.07-.14h-.14A.25.25,0,0,1,22.46,6.51Zm-20.28,0h.14c0-.06,0-.09-.14-.09Zm11.34,0h.13v0h-.13Zm3.85,0c.06,0,.12,0,.19-.13h-.07c-.08,0-.12,0-.12.08Zm1.26,0a.67.67,0,0,1,.19,0h.07v0c-.1,0-.14,0-.14-.08h-.12Zm6.29,0H25V6.29h-.07Zm9.07,0h.07v-.1H34Zm-19.22,0h.07V6.29h-.07Zm.28,0c.08,0,.12,0,.12-.08l-.12,0Zm1.33,0h.12v0h-.12Zm.38,0c.09,0,.14,0,.14-.08l-.14,0Zm4.25,0h.06V6.29H21Zm1.66,0h0c0-.06,0-.08-.12-.08h-.07S22.59,6.37,22.67,6.37ZM2.32,6.24a.13.13,0,0,1,.14-.1c.06,0,.12.05.19.15l-.14,0C2.51,6.27,2.45,6.24,2.32,6.24ZM16,6.32h.06V6.24H16Zm9.4,0h.14V6.24h-.14Zm-1.72-.13q.21,0,.21-.09h.12v0c0,.05-.06.1-.19.15S23.72,6.24,23.72,6.19Zm-13.78,0H10v-.1H9.94Zm2.32,0h.07v-.1h-.07Zm.59,0h.07c0-.06.05-.1.14-.1v0h-.14l-.07.09Zm1.33,0h.14v-.1C14.22,6.14,14.18,6.18,14.18,6.24Zm5.3,0v-.1h.21v.1Zm1.73,0v-.1h.07a.41.41,0,0,0,.19.05s0-.05.07-.05v.1Zm2.91,0v-.1h.14v.1Zm-20.74,0h.13V6.14H3.38Zm18.75,0c0-.06.06-.09.14-.09h.19v.09h-.07s-.05,0-.05-.05l-.14.05Zm10.94,0h.07V6.1h-.07ZM20.94,6.14V6.06h.13v.08Zm-9.6,0h.12v0h-.12Zm8,0V6h.12V6.1ZM19.88,6H20q.12,0,.12.09v0C20,6.1,20,6.05,19.88,6Zm1.66.13V6h.14V6.1ZM2,6.06V6h.14C2.13,6,2.08,6.06,2,6.06Zm1.58,0h.07V6H3.57Zm.48,0h.07V6H4.05Zm5.56,0H9.8Q9.8,6,9.68,6H9.61Zm.4,0h.07s0-.11.12-.19v0l-.12,0-.14,0v0A.28.28,0,0,1,10,6.06Zm5.23,0V6h.07q.12,0,.12.09Zm.4,0V6l.33,0C16,6,15.86,6,15.64,6.06Zm8.62,0V5.92h.07q.12,0,.12.09v0Zm.33,0V5.87l.12,0a.39.39,0,0,0-.05.14ZM.85,6V6H1V6ZM11.07,6h.13V6h-.13ZM21.21,6V6h.14V6Zm.73,0V5.92H22V6Zm5.82,0h.14V5.87h-.07A.25.25,0,0,1,27.76,6Zm5.85,0a.1.1,0,0,1,.12-.09h.07c0,.06,0,.09-.14.09ZM10.74,6h.19v-.1h-.07C10.78,5.87,10.74,5.9,10.74,6Zm3.44,0v-.1h.07V6Zm14,0h.27l.07-.18-.14,0H28.3l-.14,0,.07.08Zm-24.11,0v0S4,5.81,3.84,5.74a.64.64,0,0,1-.2,0C3.69,5.88,3.83,5.92,4.05,5.92Zm8.07,0v0a.14.14,0,0,1,.14-.08h.07v0s-.05.08-.14.08Zm1.2,0V5.84h.13S13.41,5.92,13.32,5.92Zm12.79,0v0s.06-.08.14-.08v0S26.2,5.92,26.11,5.92Zm2.91,0h.14v0H29Zm-24.85,0h.07s.07-.12.21-.22v0H4.38s-.07.12-.21.23Zm4,0h.14v0H8.21ZM0,5.84v-.1H.07v.1Zm4.78-.1c.08,0,.12,0,.12.1H5v-.1l-.14,0h0Zm24.71.1h.07v-.1h-.07Zm1.52,0h.14v0H31Zm1.46-.28v0h.07l.4.22v.1H32.8ZM2.18,5.79v0a.13.13,0,0,1,.14-.09l.07.09v0Zm8.42,0V5.65h.14v.14Zm3.05,0v-.1h.07v.1Zm1.52,0v-.1h.07v.1Zm15.31,0h.14v0h-.14Zm-22.86,0h.19v0H7.62Zm14.25,0v0H22v0ZM33,5.74V5.65c.09,0,.14,0,.14.09Zm-31.08,0V5.61H2v.08ZM5,5.69h.07V5.56H4.9v.05C4.91,5.67,5,5.69,5,5.69Zm9.28,0V5.61h.07v.08Zm16.36,0h.14v0h-.14Zm-28.1,0v0l.07-.09a.58.58,0,0,0,.19,0v.05A.75.75,0,0,0,2.58,5.65Zm.87,0V5.56h.19c0,.06,0,.09-.13.09Zm7.41,0,.07-.09c0-.06-.07-.1-.07-.13H11l.07.22-.14,0S10.91,5.61,10.86,5.61Zm22.61,0V5.56h.07v.09Zm-22.8,0V5.56h.12v.05Zm1.19,0V5.56s.07-.09.21-.14v0S12,5.56,11.86,5.61Zm1.92,0V5.52H14c0,.06-.05.09-.14.09Zm15.12,0V5.52q.12,0,.12.09Zm.19,0c0-.06.06-.09.14-.09v.09Zm.73,0V5.52l.33,0s-.06.09-.19.14Zm2.39-.09h.12v.09C32.25,5.6,32.21,5.56,32.21,5.52Zm-28.5,0c0-.07.16-.13.46-.18l.07.08c-.22,0-.33.09-.33.14A.58.58,0,0,0,3.71,5.52Zm8.62,0a.1.1,0,0,1,.12-.09v.09ZM2,5.52v0h.14v0Zm.92,0v-.1h.14v.1Zm4.45,0h.07v-.1H7.36Zm5.7,0v-.1h.19c0,.07,0,.1-.14.1Zm-6.83,0V5.39c.09,0,.14,0,.14.08Zm1.58-.08v0h.28v.13H8C8,5.41,7.91,5.39,7.81,5.39Zm1.4,0s.06-.08.14-.08v.08Zm4,0V5.34h.14C13.39,5.4,13.35,5.42,13.25,5.42ZM5,5.29a.1.1,0,0,1,.12-.09l.07.09v.1H5.16C5.08,5.37,5,5.34,5,5.29Zm.4-.09.12,0v.18l.21-.09.05.09v0H5.49Zm-1.06,0h.07q.12,0,.12.09l-.12,0A.35.35,0,0,0,4.38,5.2Zm3.24.14V5.25h.14v.09Zm.8,0s.07-.09.2-.14h.06s-.06.09-.2.14Zm.72,0V5.2h.07v.09Zm-6.49,0V5.07h.07a.24.24,0,0,0,.07.18Zm.19,0A.14.14,0,0,1,3,5.16l.07.09Zm6.44,0V5.16h.07v.09Zm-1.59,0a.1.1,0,0,1,.12-.09V5.2ZM3.38,5.11v0h.13v0ZM8,5.07V5h.14v.1Zm1.92,0c0-.07.06-.1.14-.1v.1ZM3.57,5V5h.14V5ZM5.23,5V4.89H5.3c.09,0,.14,0,.14.08Zm.4,0v-.1H5.7v.1Z"/></svg>