<svg width="30" height="30" viewBox="0 0 30 30" fill="none" xmlns="http://www.w3.org/2000/svg">
<path d="M0 14.1368C0.0733375 13.5901 0.140008 13.0501 0.22668 12.5101C0.566713 10.4163 1.37583 8.42659 2.59348 6.68973C4.09331 4.48561 6.16232 2.72906 8.58061 1.60679C10.9989 0.484516 13.6761 0.0384596 16.3276 0.316032C18.9887 0.562591 21.5283 1.54613 23.6614 3.15619C25.811 4.7433 27.4904 6.88321 28.5211 9.34845C29.5518 11.8137 29.8953 14.5122 29.515 17.157C29.25 19.1301 28.5875 21.029 27.5676 22.7387C26.5477 24.4485 25.1916 25.9336 23.5813 27.1042C22.3796 28.0001 21.0397 28.6937 19.6145 29.1577C19.491 29.2238 19.3515 29.2542 19.2117 29.2454C19.0719 29.2367 18.9373 29.1891 18.823 29.1081C18.7088 29.0271 18.6193 28.9158 18.5648 28.7868C18.5103 28.6577 18.4928 28.516 18.5144 28.3776C18.5144 27.0909 18.5144 25.8108 18.5144 24.5241C18.5462 23.8859 18.437 23.2485 18.1944 22.6573C18.0181 22.3173 17.8222 21.9878 17.6077 21.6706C18.1477 21.5706 18.7344 21.4906 19.3078 21.3439C20.8352 21.0389 22.1919 20.1701 23.108 18.9104C23.7404 17.946 24.123 16.8394 24.2214 15.6902C24.3548 14.8197 24.3548 13.9339 24.2214 13.0634C24.0297 12.1121 23.5852 11.23 22.9346 10.5099C22.8796 10.4582 22.8423 10.3904 22.8279 10.3162C22.8136 10.242 22.8229 10.1652 22.8546 10.0966C23.2344 8.91852 23.1679 7.642 22.668 6.50972C22.6428 6.4685 22.6088 6.43338 22.5685 6.40686C22.5281 6.38035 22.4824 6.3631 22.4346 6.35638C21.9303 6.30568 21.4222 6.40543 20.9745 6.64306C20.2278 6.99641 19.5011 7.4031 18.7611 7.76979C18.622 7.84307 18.4628 7.86882 18.3077 7.84313C16.033 7.26177 13.6487 7.26177 11.374 7.84313C11.2182 7.87113 11.0574 7.84277 10.9206 7.76312C9.99125 7.16524 8.97462 6.71541 7.90712 6.42971H7.84711C7.18041 6.28304 7.03373 6.36304 6.83372 7.04308C6.49683 8.06954 6.49683 9.1768 6.83372 10.2033C6.84548 10.2547 6.84621 10.308 6.83587 10.3597C6.82552 10.4114 6.80434 10.4603 6.77372 10.5033C6.21535 11.1767 5.80748 11.9618 5.5775 12.8058C5.34752 13.6498 5.30074 14.5333 5.44031 15.3969C5.52324 16.4307 5.79438 17.4407 6.24036 18.3771C6.56806 19.0047 7.01744 19.5608 7.5623 20.0129C8.10715 20.4651 8.73658 20.8042 9.41387 21.0105C10.2442 21.2561 11.0878 21.4542 11.9407 21.6039H12.034C11.8207 21.9973 11.6007 22.384 11.3673 22.784C11.2961 22.9207 11.253 23.0703 11.2406 23.224C11.2419 23.3536 11.1959 23.4793 11.1112 23.5774C11.0265 23.6756 10.909 23.7396 10.7806 23.7574C10.3359 23.9358 9.85794 24.0162 9.37932 23.9932C8.90071 23.9702 8.43267 23.8443 8.00712 23.624C7.55096 23.3304 7.17335 22.9299 6.90706 22.4573C6.51363 21.7357 5.85299 21.1972 5.06696 20.9572C4.76085 20.8879 4.44506 20.8721 4.13357 20.9105C3.94022 20.9105 3.87355 21.0772 4.0069 21.2439C4.12358 21.4215 4.2729 21.5753 4.44692 21.6973C5.18277 22.1731 5.74427 22.875 6.04701 23.6974C6.21249 24.171 6.47861 24.6031 6.82706 24.9641C7.43613 25.4813 8.20816 25.767 9.00718 25.7708C9.70722 25.7708 10.4073 25.7708 11.154 25.7708V27.1709C11.154 27.5443 11.154 27.9243 11.154 28.2976C11.1779 28.4386 11.162 28.5835 11.1079 28.716C11.0538 28.8484 10.9638 28.963 10.8479 29.047C10.7321 29.1309 10.5951 29.1807 10.4524 29.1909C10.3098 29.201 10.1671 29.171 10.0406 29.1043C7.87834 28.4007 5.91504 27.1917 4.31358 25.5775C2.7429 23.9946 1.54488 22.0814 0.806713 19.9772C0.391079 18.7713 0.135548 17.516 0.0466693 16.2436C0.0466693 16.1303 0.0466693 16.0169 0 15.9036V14.1368Z" fill="black"/>
</svg>
