<svg width="29" height="28" viewBox="0 0 29 28" fill="none" xmlns="http://www.w3.org/2000/svg">
<path d="M6.05005 9H0.0500488V28H6.05005V9Z" fill="black"/>
<path d="M3.51648 6.99984C4.2101 7.0065 4.89005 6.8069 5.47002 6.42638C6.04999 6.04587 6.50383 5.5016 6.77389 4.86267C7.04396 4.22374 7.11807 3.51898 6.98684 2.83785C6.85561 2.15672 6.52495 1.52994 6.03683 1.03709C5.54872 0.544239 4.92515 0.207546 4.24532 0.0697526C3.56548 -0.0680404 2.86005 -0.000718084 2.21855 0.263173C1.57705 0.527064 1.02842 0.975621 0.642334 1.5519C0.256244 2.12818 0.0501069 2.80618 0.050075 3.49984C0.0465007 4.42338 0.409482 5.3106 1.05937 5.96679C1.70926 6.62298 2.59295 6.99451 3.51648 6.99984Z" fill="black"/>
<path d="M15.6079 18.3206C15.6079 15.7063 16.815 14.1835 19.1363 14.1835C21.2652 14.1835 22.2866 15.6671 22.2866 18.3206V28H28.05V16.3272C28.05 11.3862 25.2114 9.00069 21.2453 9.00069C20.1186 8.98438 19.0068 9.25643 18.0187 9.79027C17.0306 10.3241 16.1999 11.1015 15.6079 12.0463V9.56276H10.05V28H15.6079V18.3206Z" fill="black"/>
</svg>
