<svg width="338" height="523" viewBox="0 0 338 523" fill="none" xmlns="http://www.w3.org/2000/svg">
<path d="M267.051 25.901L268.612 24.2304L272.136 30.047L273.209 29.3763L270.38 25.4376L273.818 22.9257V32.2542L277.623 32.4859L277.757 33.7053L275.038 35.1686L277.282 37.2781C279.135 34.4247 279.72 37.961 281.123 37.8269C278.367 43.7532 277.538 47.8505 284.574 48.1553C285.415 53.1793 285.415 53.1793 283.293 53.8866L284.513 55.5693L286.208 53.9475C286.476 54.4719 287.086 55.3377 286.952 55.4718C284.513 57.9716 287.439 59.8861 287.622 62.0688H286.708C286.573 63.0233 286.573 63.9921 286.708 64.9466C286.927 65.6783 287.72 66.166 288.268 66.8489C287.427 67.1903 286.586 67.5806 285.72 67.861C285.078 67.8794 284.436 67.8262 283.805 67.7025L285.891 69.5194L284.537 74.58L281.891 72.9704L280.562 74.7629L283.086 76.8359L278.025 83.1037C283.257 81.2868 280.818 85.2133 281.22 87.0424C283.988 85.4206 283.988 85.4206 286.366 90.8348L281.001 92.3712V93.2126L283.659 92.9809L283.464 93.3102C286.037 93.9321 288.586 94.6881 291.195 95.1515C296.67 96.1148 301.414 101.383 303.389 106.98C304.523 110.223 303.645 113.54 305.633 117.43L302.341 116.211C299.182 119.503 300.121 123.344 302.341 127.185L295.024 130.673H300.719C299.731 132.648 298.963 134.209 298.219 135.709L294.488 133.661C293.963 136.868 293.524 139.611 293 142.806L295.853 144.355C295.012 147.513 293.561 150.781 294.634 154.366L291.085 151.562L290.427 152.269C290.671 153.196 290.915 154.11 291.207 155.171H294.414L293.585 158.927L297.243 155.878L301.548 162.305L300.707 163.122L298.621 161.902L298.292 162.146L301.719 166.024V172.011C303.883 171.078 306.128 170.343 308.425 169.816C309.401 169.682 310.596 170.962 311.693 171.596C310.803 172.316 309.95 173.072 309.035 173.755C308.409 174.123 307.757 174.445 307.084 174.718C307.352 173.352 307.511 172.462 307.633 171.828C305.791 172.535 303.597 172.938 302.048 174.157C301.085 174.913 300.938 176.913 300.828 178.389C300.855 179.545 301.032 180.692 301.353 181.803L300.402 181.108L295.524 185.144L296.109 186.108H302.45L300.536 185.376L300.755 184.278L306.56 185.181C308.084 192.07 305.84 194.265 298.902 192.705L297.536 195.399L292.658 191.51L293.232 190.778L290.342 191.058C290.793 189.461 291.134 188.302 291.561 186.632L292.61 188.473L294.244 184.693L293.671 184.108C292.451 185.242 291.232 186.315 290.171 187.51C288.049 189.827 288.366 190.997 291.146 191.79C291.79 192.105 292.382 192.516 292.902 193.009C292.081 193.275 291.228 193.427 290.366 193.461C289.411 193.293 288.479 193.019 287.586 192.644L287.391 193.424L290.037 194.96L287.903 197.485C289.025 197.485 289.549 196.802 290.232 196.424C291.311 195.724 292.503 195.217 293.756 194.924C295.032 194.911 296.303 195.071 297.536 195.399C299.841 195.07 300.548 196.436 300.938 198.399C301.276 199.418 301.743 200.389 302.328 201.289C302.987 200.216 303.645 199.143 304.292 198.07C304.437 197.799 304.564 197.518 304.67 197.229H305.621C305.73 198.863 305.84 200.509 305.962 202.35C308.499 201.801 311.596 200.106 313.059 202.874C312.462 206.082 312.01 208.472 311.559 210.862L312.132 211.581C314.108 207.923 316.4 209.606 318.876 210.935C319.315 208.862 319.681 207.081 320.095 205.082L325.534 207.716L324.314 211.374L335.704 214.642C335.826 216.142 332.436 219.751 337.911 219.946V216.849C340.715 220.507 343.691 224.165 346.227 227.958C347.971 230.592 350.166 230.567 352.812 230.397C354.418 230.517 356 230.849 357.519 231.384C356.972 232.891 356.303 234.351 355.519 235.75C354.422 237.396 353.08 238.859 351.349 236.091C351.056 235.616 349.629 235.847 348.166 235.701C349.666 239.03 349.483 241.201 346.142 242.457C345.203 242.81 344.813 244.652 344.313 245.554L338.899 248.919C339.399 251.59 339.862 253.541 340.118 255.517C340.594 259.699 339.447 260.54 335.643 258.943C332.57 262.357 332.192 262.174 329.326 255.638C327.436 255.748 327.448 260.126 324.546 257.882C323.866 257.3 323.227 256.673 322.632 256.004L323.193 255.26L325.387 255.834C326.607 252.175 325.631 250.468 320.412 248.7L324.327 253.578L322.302 254.334L322.388 254.419C320.528 253.259 318.588 252.232 316.583 251.346C316.193 251.188 314.608 252.748 314.498 253.639C314.447 255.41 314.594 257.181 314.937 258.919L311.059 258.126L311.511 256.907L304.804 251.224C304.34 252.139 303.816 253.126 303.023 254.675C301.257 254.283 299.518 253.778 297.816 253.163C296.104 252.369 294.572 251.232 293.317 249.822L297.524 250.346C297.524 249.712 297.524 248.919 297.524 248.127C298.28 249.468 299.048 250.81 299.963 252.37L303.462 252.2C302.666 250.454 301.962 248.667 301.353 246.846C301.231 246.42 302.109 245.7 302.572 245.115L302.499 245.054C303.523 247.724 305.06 249.932 308.035 250.566C309.596 250.907 311.181 251.102 312.815 251.383L317.693 244.188C317.559 240.347 314.791 239.225 310.828 239.579L311.267 238.725L314.559 238.128L314.779 237.128C313.266 236.689 310.681 235.518 310.401 235.908C308.486 238.713 306.084 237.128 303.938 236.823L305.292 239.518H299.633L300.853 234.116L302.67 235.067C301.341 231.336 304.779 227.824 301.731 224.482C300.072 228.031 298.56 225.702 297.012 224.482C297.475 220.824 298.938 223.092 300.914 224.836C300.585 222.922 300.707 221.434 300.219 221.178C298.694 220.576 297.113 220.126 295.5 219.836L295.402 220.556L296.853 222.166L294.158 222.8L297.121 224.385L293.878 226.592C295.28 226.336 295.28 226.336 298.89 230.141L301.048 229.872C300.975 231.458 300.914 232.86 300.853 234.262L296.975 236.518C298.792 239.176 297.231 241.091 295.756 242.542L297.573 248.261C296.82 248.423 296.047 248.473 295.28 248.407C292.134 247.688 290.317 249.566 290.829 252.809C291.073 254.358 290.488 256.029 290.585 257.614C290.843 258.757 291.253 259.861 291.805 260.894L290.281 262.565C289.342 260.48 288.5 258.614 287.732 256.931C290.756 254.626 287.927 250.956 289.61 248.395C287.83 249.31 287.83 249.31 287.512 254.212L272.087 262.04L272.66 265.699L274.623 267.052L278.196 264.223C277.269 263.772 276.294 263.613 276.111 263.15C275.99 262.799 275.958 262.424 276.018 262.058C276.077 261.692 276.227 261.347 276.452 261.053C277.273 260.517 278.187 260.14 279.147 259.943C280.806 263.491 283.013 260.845 285.086 260.516C285.906 261.349 286.668 262.237 287.366 263.174C289 265.699 289.305 265.723 291.268 262.894C291.476 263.918 291.622 264.686 291.707 265.125L293.671 263.821V268.698L289.427 267.247C289.744 268.064 289.988 268.698 290.463 269.967L287.366 268.247L288.195 271.308L287.476 270.796L282.903 277.246C286.269 278.015 288.61 279.527 289.354 283.197L283.793 282.148L284.001 281.551L279.598 283.197C278.733 281.978 277.879 280.758 276.989 279.539C276.465 278.832 275.904 278.161 275.367 277.478C276.135 277.161 277.501 276.893 277.55 276.478C277.769 274.405 278.379 271.832 277.428 270.381C276.623 269.162 273.867 269.162 271.55 268.418L270.014 269.735L275.05 273.222C273.745 274.527 270.319 273.503 271.185 276.881C272.308 276.23 273.553 275.815 274.843 275.661C275.295 275.702 275.742 275.796 276.172 275.942L275.44 277.515C273.953 281.173 270.819 283.368 269.014 282.624L266.795 286.087L269.49 289.16C268.819 285.721 268.831 285.795 271.428 285.173C271.904 285.051 272.148 283.953 272.538 283.404C272.791 283.128 273.068 282.874 273.367 282.648L274.209 285.087L279.696 283.075C279.208 284.539 278.733 286.002 278.245 287.477L278.977 288.185L274.038 289.124L276.55 290.745L273.014 291.965L274.599 293.184L279.05 293.757L283.001 291.623L282.903 291.538C283.245 292.977 283.598 294.416 284.122 296.538L280.842 294.952C281.44 297.135 281.891 298.745 282.33 300.354L283.184 300.135C283.184 299.354 283.086 298.562 283.074 297.781C283.074 297.586 283.245 297.403 283.549 296.781L287.854 298.537L287.659 299.293L286.269 299.757L288.354 303.11L284.318 301.671L283.818 302.379L286.598 305.854L293.439 301.525L293.207 299.086C295.073 301.305 296.122 302.744 294.073 303.549C294.256 306.512 294.414 308.951 294.561 311.439L288 310.11C288.549 312.634 289.073 315.097 289.61 317.548L290.598 317.377L290.268 312.244L297.268 314.085C296.17 316.048 295.561 318.743 294.012 319.487C292.463 320.231 289.732 319.353 287.281 319.146L287.476 320.645L281.793 325.523L282.22 326.889C277.757 326.511 272.855 327.145 268.941 325.462C265.026 323.779 261.917 319.78 258.466 316.792C261.563 313.865 260.368 310.183 260.771 306.768L264.039 304.195L260.381 302.354L260.454 302.44L259.015 300.269H260.954C261.734 298.269 257.113 296.245 261.454 294.172L263.71 297.708C264.929 293.66 262.271 289.172 258.722 288.685L261.222 293.001L255.942 294.66L254.722 293.196L253.674 293.391C255.893 295.647 256.686 297.976 254.405 300.708L257.113 300.196C256.454 300.94 255.82 302.293 255.149 302.305C252.089 302.366 252.796 305.647 251.04 306.732C253.357 308.354 250.845 312.5 254.6 313.426C257.698 314.182 257.234 316.804 257.32 319.097C257.393 320.975 257.088 323.096 254.966 323.194C252.874 323.222 250.813 322.683 249.003 321.633C247.192 320.387 245.588 318.864 244.248 317.121C244.033 316.798 243.89 316.433 243.827 316.051C243.764 315.668 243.783 315.277 243.882 314.902C244.47 313.801 245.182 312.77 246.004 311.829L247.882 314.268C247.882 314.268 248.138 313.939 248.382 313.67C249.272 312.744 251.052 311.634 250.893 310.963C250.295 309.151 249.41 307.447 248.272 305.915C248.055 305.789 247.81 305.718 247.56 305.707C247.309 305.696 247.06 305.747 246.833 305.854C244.674 307.561 242.589 309.366 239.821 311.695L240.638 306.817L237.773 305.086L237.858 305.171L235.2 303.891C232.663 309.11 232.663 309.11 232.054 308.573L230.907 311.597C228.103 312.195 224.237 310.817 224.176 315.682C220.25 314.353 219.933 313.39 222.554 310.939C222.292 310.47 221.977 310.032 221.615 309.634C221.288 309.435 220.922 309.306 220.542 309.256L217.835 314.061L221.03 316.048L219.067 316.89L219.262 317.743C220.481 317.816 221.774 317.963 223.03 317.95C223.715 317.891 224.393 317.764 225.054 317.572C225.103 318.32 225.103 319.069 225.054 319.816C224.956 320.515 224.818 321.207 224.64 321.889C227.078 322.048 228.944 322.206 230.859 322.279C233.39 322.234 235.922 322.323 238.443 322.548C240.553 322.853 242.467 323.292 243.54 326.035C244.418 328.267 247.052 329.791 248.857 331.669C249.103 331.935 249.28 332.258 249.371 332.609C249.462 332.96 249.466 333.328 249.381 333.681L246.089 332.083C245.589 333.461 245.199 334.693 244.699 335.876C242.089 342.07 234.761 343.753 230.371 338.766C227.847 335.888 224.408 335.949 221.493 334.474C221.329 334.436 221.159 334.435 220.995 334.471C220.83 334.507 220.676 334.579 220.542 334.681C218.542 336.376 216.543 337.327 214.384 334.925C213.799 335.766 212.592 336.717 212.726 337.424C214.201 345.412 210.921 354.094 216.213 361.593C216.835 362.483 215.921 364.337 215.982 365.739C216.165 370.007 217.506 374.531 216.53 378.494C214.518 386.677 215.652 394.969 214.433 403.114C213.865 408.275 213.01 413.401 211.872 418.467C211.202 420.979 208.909 423.052 207.312 425.369C200.41 419.857 199.264 413.809 201.593 404.919C202.812 400.041 202.641 394.859 202.91 389.798C202.91 389.128 201.861 388.408 201.3 387.701C203.312 385.945 202.934 383.872 201.544 382.043C199.703 379.604 198.971 377.811 201.629 375.202C202.751 374.117 202.519 371.263 202.3 369.276C201.861 365.251 200.8 361.301 200.373 357.277C199.739 351.253 199.654 345.168 198.922 339.156C198.52 335.851 199.337 332.144 196.63 329.328C196.447 329.145 196.495 328.681 196.556 328.364C196.825 327.072 197.776 325.243 197.288 324.596C196.191 323.218 194.349 322.414 192.764 321.45C192.372 321.311 191.948 321.29 191.545 321.389C190.776 321.499 190.02 321.67 189.264 321.816C189.801 321.306 190.299 320.755 190.752 320.17C191.287 319.445 191.558 318.558 191.52 317.658L188.155 320.487L187.935 317.487L187.216 316.951C186.874 317.731 186.545 318.524 186.313 319.048L182.521 317.231C181.85 318.011 180.887 318.621 180.814 319.328C180.704 320.267 181.021 321.889 181.631 322.157C185.362 323.816 185.752 324.596 183.765 328.133C183.46 328.681 183.045 329.169 182.399 330.108C180.789 324.621 176.229 326.889 173.375 326.121C172.156 323.548 170.998 321.365 170.071 319.097C169.729 318.255 169.51 316.573 169.876 316.353C171.298 315.409 172.916 314.801 174.607 314.573C176.197 314.451 177.693 313.773 178.832 312.658C179.972 311.543 180.682 310.062 180.838 308.476L177.375 308.268L181.033 302.72C184.692 301.94 186.984 303.769 187.813 307.768L189.655 306.622L187.606 302.964L188.338 302.403C190.215 303.196 191.874 305.878 194.703 302.805L191.411 302.988L190.752 300.549L188.959 301.891L187.972 299.574C187.747 299.781 187.502 299.965 187.24 300.123C186.021 300.659 184.143 301.964 183.582 301.549C182.783 300.924 181.776 300.626 180.766 300.716C179.756 300.807 178.818 301.279 178.143 302.037C177.241 302.879 177.448 304.903 177.168 306.403C177.168 306.732 177.168 307.061 177.095 307.622L170.717 308.805C171.278 306.147 171.705 304.098 172.144 302.062C172.766 301.086 168.766 300.025 173.083 298.757C171.863 296.391 170.644 294.087 169.351 291.77L170.656 290.965L172.595 293.66C175.229 291.697 172.766 290.209 171.949 288.892C170.485 286.551 168.656 284.429 166.376 281.429C166.474 282.868 166.217 284.039 166.632 284.38C168.668 286.002 168.851 287.563 167.23 289.611C166.827 290.111 167.23 291.221 167.23 292.05C166.888 295.977 165.656 296.599 162.425 294.562C162.071 294.343 161.645 294.245 162.023 294.391L160.73 288.489L159.511 288.636L159.876 293.416C158.962 292.806 158.255 292.562 157.925 292.075C156.706 290.27 155.682 288.416 154.572 286.526L156.633 280.429L158.328 281.246C158.986 277.588 159.645 273.93 160.352 270.113H156.852C156.95 271.735 156.95 273.381 157.157 274.991C157.364 276.6 157.803 278.051 158.133 279.588L157.133 279.978L154.865 277.917C154.267 280.356 153.645 282.673 153.17 285.063C153.109 285.392 154.06 285.916 154.535 286.355C154.706 286.929 154.877 287.514 155.194 288.624C151.804 286.843 150.207 288.624 149.097 291.062L143.11 289.294L142.561 289.892C142.951 290.465 143.366 291.014 143.78 291.599C144.195 292.184 144.487 292.94 144.841 293.611V293.55C143.785 293.32 142.767 292.943 141.817 292.428C141.426 292.165 141.096 291.821 140.85 291.419C140.603 291.017 140.447 290.567 140.39 290.099C140.89 286.246 140.622 285.782 136.83 285.636L135.098 280.514C132.927 279.966 132.171 281.868 131.586 284.246C133.72 285.3 135.796 286.469 137.805 287.746C138.2 288.089 138.514 288.515 138.725 288.993C138.935 289.472 139.038 289.991 139.025 290.514C138.932 291.034 138.736 291.531 138.45 291.974C138.163 292.418 137.79 292.801 137.354 293.099C135.644 294.161 133.877 295.13 132.062 296.001C133.354 299.428 134.879 301.781 134.988 304.195C135.135 307.39 132.33 308.805 129.525 308.768C128.062 308.768 125.721 307.549 125.343 306.329C124.574 303.891 124.379 301.013 126.843 299.013C127.797 298.31 128.786 297.654 129.806 297.05V293.489L132.976 292.331C132.123 290.672 132.44 288.27 129.391 288.88C129.257 288.88 128.55 286.051 128.172 284.563L125.977 286.38C123.27 284.563 129.94 283.453 125.891 282.088C124.806 281.722 123.05 283.38 121.392 284.209L120.416 280.99C121.941 280.246 124.367 279.844 121.709 277.551C121.245 277.137 121.709 275.186 122.184 274.271C122.66 273.357 123.953 272.82 125.038 271.991L122.697 269.491L117.038 276.612L115.746 276.1C116.246 274.405 116.404 272.442 117.356 271.101C118.307 269.759 116.673 266.357 121.233 267.077L118.441 265.125L120.88 262.357L122.843 264.796C121.416 261.662 120.294 259.199 119.307 257.004C118.185 259.443 116.868 262.272 115.648 264.894C118.892 265.174 116.868 267.747 116.429 270.015C115.228 268.786 113.967 267.618 112.649 266.516C112.039 266.04 111.051 266.089 110.21 265.821C109.222 265.572 108.282 265.159 107.43 264.601C106.564 263.93 105.222 262.443 105.417 262.162C106.272 261 107.325 259.997 108.527 259.199C108.71 259.041 109.588 259.333 109.624 259.516C109.722 259.992 109.429 260.528 109.454 261.016C109.454 261.918 109.685 262.796 109.82 263.687C110.734 263.212 111.622 262.687 112.478 262.114C113.575 261.309 114.575 260.37 115.746 259.382L112.015 257.37L112.075 257.455L117.063 256.077C117.063 256.199 117.173 255.358 117.295 254.529C122.172 253.822 121.855 257.504 121.88 261.272L123.916 259.321C122.928 256.773 122.197 254.443 121.124 252.261C119.343 248.663 123.343 248.724 124.782 246.529L120.721 244.42C120.843 245.92 120.916 246.749 121.026 248.078C119.885 247.685 118.896 246.942 118.202 245.955C117.508 244.967 117.144 243.786 117.16 242.579C117.038 239.481 120.063 239.262 121.892 238.591C123.477 238.03 126.221 237.201 127.025 241.237L129.208 234.908L117.453 238.079L115.758 233.628L115.112 233.799C115.465 235.018 115.831 236.238 116.331 238.079L111.344 238.457L113.551 235.64L111.612 234.421L114.38 232.994L110.356 229.641C110.746 233.604 111.954 237.298 108.064 239.884L108.271 236.786C103.32 236.347 103.32 236.347 102.588 230.031L115.1 224.385V224.007L102.905 227.153L102.137 224.787C101.93 224.787 101.601 224.787 101.564 224.934C100.442 228.128 98.54 225.677 97.0035 225.519C96.845 225.519 96.5402 224.568 96.6865 224.434C97.0704 224.133 97.5228 223.932 98.0035 223.848C98.7961 223.653 99.6131 223.531 100.442 223.385C100.101 221.739 99.7838 220.068 99.357 218.446C99.2838 218.154 98.6741 218.007 98.479 217.898L101.723 214.239C103.369 212.398 102.454 211.264 100.881 209.898C100.259 209.362 100.491 207.825 100.259 206.24L95.0647 207.923L93.2599 203.496L93.6867 202.96L97.4181 205.264L96.9669 204.277L100.747 199.875L96.6743 197.911C101.467 194.802 102.771 199.131 105.21 201.082C104.883 201.395 104.597 201.747 104.357 202.131C104.14 202.797 103.993 203.483 103.918 204.179L108.527 201.411C108.393 201.253 108.112 200.594 107.771 200.558C102.759 200.058 104.942 196.302 104.747 193.643L100.845 191.949L103.905 187.766L103.82 187.839C105.515 187.961 107.076 185.4 108.868 187.607L109.1 190.607C109.003 190.534 109.893 191.022 109.832 191.241C109.344 193.034 108.612 194.765 108.076 196.436L115.026 195.582V194.436L109.746 193.448L113.405 185.644L108.807 187.632C108.527 187.034 108.344 186.01 107.954 185.937C105.198 185.388 106.381 183.876 107.198 182.681C107.612 182.071 108.539 181.791 109.746 181.059L106.43 179.157L105.759 178.401L99.9911 177.108L99.6131 177.913L97.1743 173.877L97.9303 173.121L100.735 173.901C98.2961 170.121 101.247 169.024 103.601 167.39L99.9423 164.561L99.2351 158.463L95.5768 160.61C96.6621 157.976 96.5889 157.781 94.5403 156.39C94.2056 156.07 94.0051 155.634 93.9794 155.171C93.9794 155.025 94.7598 154.561 94.9427 154.671C95.9792 155.256 96.9426 155.976 97.9425 156.634L98.601 157.061L99.9911 154.939C97.6742 151.635 95.1134 152.561 92.0649 154.305C90.3577 155.281 89.6261 156.086 89.8822 157.89L87.1141 160.597L85.3581 158.659L81.8218 159.878C78.9196 153.866 79.1269 152.72 83.2729 150.123L85.3581 156.598L97.4791 142.855C98.3937 146.513 99.0765 149.208 99.7716 151.94L100.759 151.696L100.503 148.037C102.564 149.379 104.515 150.074 105.576 151.452C107.43 153.891 108.759 153.598 110.454 151.196L107.625 151.769C107.369 151.293 106.673 150.549 106.832 150.232C107.545 149.151 108.361 148.142 109.271 147.22V143.83C110.734 144.965 112.588 141.184 113.612 144.721C114.27 143.574 115.575 142.282 115.441 141.282C115.039 138.075 117.538 137.111 119.099 134.99L114.502 132.356C115.356 131.941 116.392 131.027 116.941 131.246C120.599 132.831 120.465 129.844 121.16 127.868L121.087 127.942C122.745 126.893 123.172 124.661 121.745 123.966C119.526 122.881 118.99 120.942 120.526 119.601C121.587 118.711 123.916 119.137 125.635 119.332C126.269 119.406 126.794 120.479 127.708 120.735L125.916 117.357L121.684 117.991C122.623 114.906 122.758 112.613 120.648 110.223C119.831 109.297 121.16 106.565 121.514 104.48C122.377 104.993 123.125 105.679 123.712 106.494C124.298 107.309 124.711 108.236 124.924 109.218C125.136 110.199 125.145 111.214 124.948 112.199C124.752 113.184 124.355 114.118 123.782 114.943L131.098 111.967C131.098 112.101 131.232 111.382 131.403 110.638L134.781 111.992C134.964 109.102 135.086 106.699 135.305 104.297C135.305 103.943 136 103.309 136.098 103.358C137.11 103.846 138.049 104.443 138.756 104.87L142.097 102.614L138.183 100.785L143.988 95.5783L151.56 95.1515C151.186 94.6957 150.712 94.3322 150.175 94.089C149.638 93.8458 149.052 93.7295 148.463 93.7492C146.911 94.2002 145.411 94.8133 143.988 95.5783C143.805 94.1028 143.634 92.6395 143.366 90.3714L154.206 89.6885C154.048 85.2499 149.487 89.2008 148.316 85.7742H156.852L157.267 90.9201L152.658 91.8347C157.389 92.9444 157.864 92.6029 158.56 88.4569C159.181 84.6889 162.913 83.1281 166.364 84.945C167.912 85.762 170.181 87.7375 170.802 84.1036C171.58 84.3522 172.375 84.5437 173.18 84.6767C174.961 80.0917 179.277 82.6159 182.497 81.1526L177.948 78.8479C180.155 78.4089 180.875 76.9091 182.106 75.3726C183.509 73.641 186.704 73.3606 189.02 75.7628L191.081 71.9095C191.297 73.1484 191.598 74.3707 191.984 75.5677C192.359 76.2721 192.809 76.9343 193.325 77.5432C193.618 75.1775 194.605 72.6045 194.008 70.4828C193.41 68.361 191.191 66.9221 189.679 65.1661L188.752 65.8856L191.362 69.9462C190.142 68.8122 184.314 72.7509 187.447 67.5074C185.985 66.1605 184.608 64.7228 183.326 63.2029C182.838 62.5566 183.021 61.3859 182.887 60.4592C183.625 60.5906 184.37 60.6802 185.118 60.7275C185.611 60.7199 186.101 60.6627 186.582 60.5567L188.033 64.4467C188.984 61.6298 189.667 59.569 190.362 57.5326L191.447 57.7399C191.447 59.9348 190.667 62.6175 191.642 64.1906C192.862 66.2514 195.581 67.4342 198.032 69.2755C196.812 66.983 198.459 63.1785 193.825 63.6175C193.447 63.6175 192.606 62.7517 192.606 62.3981C192.666 61.764 193.276 61.1786 193.654 60.5567L195.935 62.1664C196.52 61.2274 197.154 60.2519 197.739 59.2398C198.19 58.4594 198.556 57.618 198.959 56.8009C198.386 58.0935 196.581 55.106 196.252 57.557C195.806 57.6726 195.341 57.6975 194.886 57.6301C194.557 56.4107 193.837 54.9718 194.252 54.0329C194.788 52.8135 196.264 52.0574 197.678 50.7892C197.056 49.8625 193.581 49.1674 196.215 46.7408L200.398 48.2651L200.641 51.5941L204.519 48.5699C202.08 47.8261 200.239 47.3505 198.422 46.6798C198.279 46.5444 198.165 46.3819 198.085 46.2019C198.006 46.0219 197.963 45.8279 197.959 45.6311C198.473 45.1251 199.1 44.7489 199.788 44.5337C201.118 44.3576 202.458 44.2599 203.8 44.241L201.202 41.8144C202.227 41.3266 203.288 40.3876 204.288 40.4486C207.738 40.6315 209.568 38.6195 210.385 33.1321C208.751 33.5102 205.922 34.5954 205.665 34.1564C204.511 31.8499 203.584 29.4362 202.897 26.9497L204.263 26.3278C204.775 27.2911 205.324 28.2301 205.812 29.2056C206.3 30.1812 206.702 31.1933 207.153 32.181C208.373 31.5591 210.226 31.1933 210.58 30.2543C211.397 28.035 212.055 26.5961 214.872 26.3278C215.969 26.2425 216.75 23.889 217.969 22.9135C218.456 22.6718 218.988 22.532 219.531 22.5026C220.074 22.4733 220.617 22.555 221.128 22.7427C223.188 22.3403 224.993 19.3528 227.347 23.0598C229.627 19.0357 233.444 20.3283 236.797 19.9381C239.163 19.6576 241.48 20.2064 243.455 17.7919C244.235 16.8286 247.113 17.5237 248.967 17.5968C249.102 18.3129 249.18 19.0388 249.199 19.7674L252.527 17.987C253.491 18.8284 254.576 22.3891 256.186 18.109C257.405 18.7309 256.795 22.9866 259.661 20.0722L263.685 24.4987L267.051 25.901ZM106.93 218.068L110.966 214.069C108.722 212.715 107.137 210.788 106.088 213.752C106.356 215.215 106.625 216.678 106.905 218.178C106.308 218.044 105.564 218.093 105.149 217.751C104.482 217.109 103.885 216.398 103.369 215.63L102.771 216.178V219.361C103.447 219.262 104.133 219.262 104.808 219.361C105.283 219.519 105.637 220.08 106.027 220.458L106.93 218.068ZM120.185 210.618L123.928 209.642L124.928 211.996L126.782 211.325L126.965 210.398L117.209 205.911C118.113 207.442 119.306 208.784 120.721 209.862C120.721 209.862 120.355 210.386 120.172 210.691C118.526 213.764 116.636 216.495 112.856 215.922C113.875 216.487 114.972 216.898 116.112 217.142C117.087 217.239 118.77 216.886 119.014 216.288C119.574 214.437 119.965 212.539 120.185 210.618ZM134.683 268.43C134.464 266.881 134.269 265.491 134.062 264.077L129.891 267.528L129.44 270.637L134.683 268.43ZM105.015 160.585C105.942 166.512 109.405 159.524 110.441 161.524L101.906 158.829V162.719L105.015 160.585ZM111.966 210.581L115.185 213.617C118.648 211.666 116.697 209.959 115.465 208.374L111.966 210.581ZM111.222 201.289V208.045C115.49 207.398 112.661 204.24 113.478 202.472L111.222 201.289ZM126.33 256.626C127.111 254.748 128.257 253.224 128.16 251.749C128.16 250.919 126.026 250.224 124.599 249.31L126.33 256.626ZM250.772 298.269L249.479 300.415L247.979 298.793C248.284 300.22 246.089 302.452 248.76 303.049L252.076 301.379C251.552 300.086 251.064 298.903 250.772 298.22V298.269ZM116.539 185.498C116.648 187.62 116.697 188.559 116.758 189.839L122.477 188.863L116.539 185.498ZM286.427 221.751C287.183 222.288 287.951 223.263 288.61 223.19C289.629 222.884 290.581 222.388 291.415 221.727C289.695 218.959 288.195 219.105 286.427 221.751ZM266.112 277.844L266.38 276.771C265.514 276.588 264.539 276.039 263.819 276.271C261.661 276.954 261.685 277.112 262.6 280.344C263.271 278.917 263.71 277.99 264.185 277.003L266.112 277.844ZM155.072 274.515C154.267 271.284 153.682 268.967 153.218 267.199L152.865 273.491L155.072 274.515ZM127.172 203.606L127.66 203.204C127.135 201.277 126.611 199.35 126.026 197.229H124.55C125.428 199.399 126.294 201.497 127.172 203.618V203.606Z" fill="#FFCAFA"/>
<path d="M353.239 77.1896C354.458 78.9089 355.007 80.4088 356.043 80.9454C359.616 82.8111 360.738 86.1157 361.543 89.5788C362.043 91.7006 362.64 94.0297 362.189 96.0417C361.624 98.169 360.455 100.087 358.824 101.566C356.769 103.525 354.246 104.923 351.496 105.628C348.746 106.332 345.861 106.319 343.118 105.59C341.154 105.078 337.972 104.261 337.252 100.871C336.947 99.4561 335.131 98.3464 334.314 97.444C334.314 94.7369 333.862 92.0908 334.411 89.6642C335.46 84.9694 337.728 80.8478 342.825 79.4333C346.422 78.4334 350.141 77.8481 353.239 77.1896Z" fill="#FFCAFA"/>
<path d="M145.634 321.219L145.378 323.401C147.03 324.157 148.878 324.37 150.659 324.011C152.44 323.651 154.061 322.738 155.291 321.401C157.23 323.194 159.669 324.474 160.498 326.438C161.998 329.998 165.803 325.767 167.022 328.877C166.01 330.096 164.961 331.315 163.803 332.62L168.851 335.608L164.51 337.827C167.547 343.217 167.534 343.144 161.584 344.522C160.434 344.933 159.472 345.748 158.877 346.814C157.547 349.021 155.913 350.009 153.328 349.253C152.257 348.981 151.151 348.878 150.048 348.948C146.999 349.107 144.841 348.277 143.731 345.034C143.305 343.814 141.671 342.729 140.354 342.046C138.073 340.888 137.915 339.522 139.207 337.534C139.751 336.849 140.104 336.034 140.232 335.169C140.164 333.249 140.574 331.343 141.426 329.621C142.277 327.899 143.543 326.415 145.109 325.304C141.219 323.682 144.366 322.462 144.792 321.072L145.634 321.219Z" fill="#FFCAFA"/>
<path d="M144.78 293.599C146.219 292.501 147.451 290.806 149.658 292.257C149.938 292.428 150.658 291.965 151.158 291.757L156.364 289.599V296.123L151.365 297.842C151.962 300.281 151.962 300.281 155.023 300.623C156.828 300.818 158.681 300.866 160.913 301.025C160.815 300.135 160.681 298.83 160.474 297.001L166.291 298.22L169.949 296.769C167.571 300.281 167.071 305.098 162.291 306.147L166.632 309.39C166.193 310.695 164.461 311.158 162.023 310.036C159.389 311.829 160.925 317.28 155.779 316.865C154.035 314.256 151.56 313.5 148.316 313.987C146.144 314.233 143.946 314.105 141.817 313.609C141.357 313.38 140.965 313.034 140.681 312.606C140.396 312.178 140.229 311.683 140.195 311.171C140.499 310.011 141.22 309.004 142.219 308.341C145.109 306.403 149.304 306.195 150.316 301.891C148.56 300.171 145.195 299.318 146.829 295.525C146.975 295.196 145.487 294.148 144.756 293.44C144.755 293.494 144.763 293.548 144.78 293.599Z" fill="#FFCAFA"/>
<path d="M85.8946 169.792C85.2971 171.401 84.6752 173.011 83.9313 175.011L77.2611 175.56C77.6636 177.913 80.9194 179.974 78.6025 182.705C79.3551 180.637 80.2599 178.628 81.3096 176.694C81.7106 176.352 82.1924 176.119 82.7089 176.017C83.2255 175.914 83.7596 175.946 84.2606 176.108C86.0287 177.12 85.6995 180.632 84.1143 181.974C83.0652 183.029 82.1028 184.166 81.2364 185.376L75.6027 188.51L75.3345 183.9L75.9686 185.412L71.1763 188.437L69.8471 187.388L74.7979 180.157L74.0541 179.267L76.5905 179.584L76.7368 178.925L74.4809 178.328C74.0053 176.291 73.5907 174.499 73.1639 172.706L72.2006 172.792L69.6398 180.62L68.7374 180.852L66.5669 176.864C68.7618 176.425 68.8106 174.426 68.1643 172.084C70.9812 172.084 70.9812 172.084 71.0421 170.792C69.6764 170.597 67.2863 170.475 67.2742 170.243C67.1864 168.14 67.3626 166.034 67.7985 163.975C68.0058 163 69.0179 162.195 69.591 161.305V161.366L70.8836 161.439V161.378C71.4689 162.975 72.103 164.573 72.6152 166.073L68.5423 167.134L68.8106 168.158C70.469 167.646 72.103 167.073 73.7858 166.67C74.0491 166.688 74.3039 166.771 74.5273 166.911C74.7507 167.052 74.9359 167.245 75.0662 167.475C76.4319 170.572 80.9682 171.865 83.6021 169.353C85.1995 167.768 85.2117 169.292 85.8946 169.792Z" fill="#FFCAFA"/>
<path d="M82.4803 186.229L87.5774 185.425L85.0532 183.73L87.2238 178.779L89.1626 182.693C92.6746 181.401 94.3086 177.547 92.5892 174.621C96.1743 171.072 96.2474 171.06 97.918 173.121L97.162 173.877C94.1744 175.096 96.1987 177.255 96.8084 178.352C97.4181 179.449 100.54 180.01 100.625 179.828C101.845 177.389 104.113 178.852 105.795 178.376L106.466 179.132L108.71 182.193L103.649 181.986L105.552 185.973L103.759 187.9L103.844 187.827C103.381 187.278 102.893 186.754 102.466 186.181C102.04 185.608 101.613 184.961 101.015 184.083C100.528 186.278 100.186 187.851 99.7959 189.436C99.1984 189.254 98.1985 189.217 98.0887 188.876C97.8993 187.978 97.8255 187.06 97.8693 186.144C96.3375 186.04 94.7997 186.065 93.2721 186.217C92.516 186.351 91.9063 187.278 91.2356 187.851C91.898 188.378 92.6441 188.79 93.4428 189.071C94.7346 189.135 96.0296 189.07 97.3083 188.876C97.601 190.558 98.7594 192.936 98.0644 194.46C97.3693 195.985 94.7719 196.265 92.9184 197.155L91.4429 194.717L92.955 192.887L86.6141 188.815L86.7726 187.595L81.0048 190.4C79.261 188.302 81.1877 187.363 82.4803 186.229Z" fill="#FFCAFA"/>
<path d="M191.447 374.836C191.491 375.973 191.301 377.107 190.889 378.168C190.476 379.229 189.851 380.194 189.051 381.003C188.251 381.813 187.293 382.449 186.237 382.873C185.181 383.297 184.049 383.5 182.911 383.47C178.192 383.47 175.119 380.043 175.058 374.812C175.058 370.763 179.021 366.873 183.228 366.873C188.423 366.885 191.447 369.775 191.447 374.836Z" fill="#FFCAFA"/>
<path d="M191.654 332.535C190.715 334.729 190.435 336.717 189.216 337.924C187.996 339.132 186.045 339.668 184.85 340.278C186.604 340.275 188.353 340.484 190.057 340.9C193.862 342.217 195.349 346.18 193.886 350.155C192.252 354.545 189.362 356.081 185.423 354.618C183.657 353.947 182.219 352.619 181.41 350.913C180.601 349.206 180.484 347.252 181.082 345.46C181.621 343.8 181.877 342.06 181.838 340.314C181.594 336.046 183.85 333.461 187.374 331.986C188.581 331.498 190.325 332.327 191.654 332.535Z" fill="#FFCAFA"/>
<path d="M322.351 193.18C321.693 191.327 319.51 190.205 316.449 190.168C316.23 187.449 315.998 184.717 315.791 182.193L311.449 180.523L311.827 179.657C313.218 179.657 314.827 180.242 315.925 179.657C317.022 179.071 317.534 177.511 318.583 175.999C321.912 176.62 324.083 179.901 326.948 182.62C325.79 184.778 325.985 186.278 329.387 186.668C330.704 186.827 331.899 188.839 332.96 190.156C333.62 191.17 334.183 192.244 334.643 193.363C331.375 195.18 328.363 199.667 323.729 195.217L322.351 193.18Z" fill="#FFCAFA"/>
<path d="M161.315 414.455C161.315 419.894 155.84 423.308 149.731 421.674C148.512 421.345 147.292 421.113 146.073 420.857C144.853 420.601 143.914 420.32 145.17 418.808C145.512 418.394 145.17 417.321 144.987 416.552C144.17 411.309 147.426 406.419 152.023 406.078C154.361 405.977 156.645 406.799 158.383 408.366C160.121 409.933 161.174 412.119 161.315 414.455Z" fill="#FFCAFA"/>
<path d="M157.401 357.825C158.377 358.569 160.657 359.557 161.73 361.3C162.521 362.465 162.859 363.878 162.682 365.275C162.504 366.671 161.823 367.955 160.767 368.885C159.892 369.822 158.75 370.469 157.496 370.737C156.243 371.005 154.937 370.882 153.755 370.385C152.023 369.702 150.255 369.166 148.487 368.556C147.298 368.267 146.245 367.574 145.509 366.595C144.773 365.617 144.399 364.414 144.451 363.191C144.418 362.578 144.51 361.965 144.72 361.388C144.931 360.812 145.257 360.284 145.677 359.837C146.098 359.391 146.605 359.034 147.168 358.788C147.73 358.543 148.337 358.415 148.95 358.41C151.353 358.142 153.792 358.069 157.401 357.825Z" fill="#FFCAFA"/>
<path d="M25.363 117.857C26.4271 117.502 27.4275 116.979 28.3262 116.308C29.207 115.303 30.3729 114.59 31.6689 114.263C32.9648 113.936 34.3296 114.012 35.5817 114.479C36.762 114.768 37.829 115.403 38.646 116.302C39.4629 117.202 39.9925 118.325 40.1667 119.528C40.4715 121.174 41.191 122.771 39.8984 124.052C38.5965 125.51 36.9952 126.671 35.2036 127.454C31.3625 128.758 28.0457 126.515 26.9726 122.478C26.5458 120.893 25.8873 119.357 25.363 117.857Z" fill="#FFCAFA"/>
<path d="M101.028 273.942C103.576 271.759 103.942 269.491 101.235 267.003C100.528 266.345 100.479 264.979 100.125 263.93C100.991 264.235 101.845 264.577 102.723 264.833C102.918 264.894 103.247 264.504 103.454 264.552C104.235 264.76 104.991 265.064 105.747 265.333L104.783 267.345C110.246 265.369 112.539 266.894 113.258 273.369C113.319 274.003 113.636 274.588 113.746 275.222C113.892 276.1 113.941 276.978 114.039 277.868C113.27 277.868 112.502 277.868 111.734 277.868C111.454 277.868 111.063 277.612 110.917 277.734C107.259 280.539 104.82 278.563 102.735 275.527C102.515 275.222 101.918 275.198 101.588 274.942C101.259 274.686 101.271 274.405 101.028 273.942Z" fill="#FFCAFA"/>
<path d="M84.5899 108.346C85.3581 105.748 86.1263 103.2 86.6629 101.407C89.248 101.029 91.4308 100.639 93.6257 100.444C94.1013 100.444 94.6378 101.066 95.1378 101.407C92.6989 104.273 96.0645 106.041 96.6377 108.26C97.2839 110.699 96.8693 110.943 94.6744 111.992C91.7112 113.406 89.9431 111.687 87.7116 110.979C86.0653 110.443 84.3947 110.016 82.8339 109.345C82.212 109.089 81.8096 108.321 81.3096 107.785L83.6143 108.224L84.5899 108.346Z" fill="#FFCAFA"/>
<path d="M327.229 175.645C328.216 174.791 329.375 173.535 327.168 172.572C328.655 171.804 330.046 171.17 331.363 170.414C332.007 170.042 332.72 169.803 333.458 169.711C334.196 169.619 334.946 169.676 335.662 169.878C336.378 170.081 337.046 170.424 337.627 170.889C338.208 171.354 338.69 171.93 339.045 172.584C339.414 173.165 339.662 173.814 339.773 174.494C339.884 175.173 339.856 175.868 339.691 176.536C339.526 177.204 339.227 177.831 338.812 178.38C338.397 178.929 337.874 179.389 337.277 179.73C335.415 180.616 333.496 181.378 331.533 182.01L327.229 175.645Z" fill="#FFCAFA"/>
<path d="M311.547 160.512L313.73 161.731C314.291 161.075 314.986 160.546 315.768 160.179C316.549 159.811 317.4 159.614 318.263 159.601C319.127 159.587 319.984 159.756 320.777 160.099C321.57 160.441 322.281 160.947 322.863 161.585C324.961 163.609 324.644 167.158 322.156 169.45C320.095 171.353 315.583 171.109 314.169 168.706C312.898 166.24 311.778 163.699 310.815 161.097L311.547 160.512Z" fill="#FFCAFA"/>
<path d="M86.419 231.811C90.4065 231.104 91.2966 231.811 93.1502 235.36C94.2947 237.327 95.5912 239.203 97.0279 240.969L94.3452 245.395C92.9888 244.978 91.6743 244.435 90.4187 243.773C88.9663 242.707 87.5929 241.538 86.3092 240.274L89.5895 235.64V236.433C87.7725 236.652 85.9312 237.237 84.1631 236.92C83.3461 236.762 82.8461 234.884 82.3705 234.067L86.5653 231.811H86.419Z" fill="#FFCAFA"/>
<path d="M72.0299 196.619C72.8712 197.667 73.4688 198.326 73.9565 199.058C75.1759 200.935 77.2124 202.716 77.4684 204.764C77.7733 207.203 75.7734 208.849 73.0907 209.252C72.4323 209.349 71.8713 209.984 71.347 210.301L66.8961 207.996L69.0545 203.326L66.9083 203.838C66.5547 199.911 69.5057 196.363 72.0299 196.619Z" fill="#FFCAFA"/>
<path d="M310.364 293.404C310.12 295.306 310.364 297.062 309.669 297.977C307.694 300.397 305.434 302.571 302.938 304.452C302.56 304.732 300.609 303.805 299.475 304.891C299.475 304.891 298.56 304.342 298.585 304.098C298.89 300.549 297.841 296.684 300.511 293.684C300.999 293.135 302.645 293.306 303.621 293.587C305.121 294.038 306.462 295.05 307.974 295.452C308.413 295.562 309.194 294.44 310.364 293.404Z" fill="#FFCAFA"/>
<path d="M107.222 131.161L109.234 127.112L114.002 131.307C108.978 132.527 108.429 133.575 110.515 136.819L115.1 133.161C115.343 134.709 115.819 135.746 115.502 136.343C115.185 136.941 114.039 136.892 113.063 137.209L114.6 139.172L109.746 142.965L107.771 136.465L99.5764 138.087L99.1008 136.868C100.223 136.392 101.357 135.929 102.479 135.441C104.198 134.697 106.954 135.087 106.49 131.88L107.222 131.161Z" fill="#FFCAFA"/>
<path d="M88.7115 263.601C87.6008 262.557 86.5922 261.41 85.6995 260.175C85.2848 259.165 85.0695 258.084 85.0654 256.992C84.8908 255.707 84.8255 254.41 84.8703 253.114C84.8703 252.358 85.1508 251.224 85.6508 250.98C86.066 250.823 86.5096 250.755 86.9528 250.78C87.396 250.805 87.829 250.923 88.2237 251.127C89.5654 252.037 90.8483 253.03 92.0649 254.102C92.6931 254.597 93.1899 255.239 93.5116 255.971C93.8334 256.703 93.9702 257.503 93.9099 258.301C93.8497 259.098 93.5943 259.869 93.1662 260.544C92.7382 261.22 92.1506 261.78 91.4552 262.175C90.626 262.699 89.6992 263.089 88.7115 263.601Z" fill="#FFCAFA"/>
<path d="M89.8089 157.768C90.481 158.247 91.2001 158.655 91.9551 158.988C92.5842 159.153 93.2314 159.239 93.8818 159.244L95.3085 164.499L93.4184 168.828L92.6136 168.463L93.833 169.962C93.3452 170.231 92.8697 170.523 92.3697 170.755C91.1503 171.304 89.9309 171.816 88.7115 172.34L86.0288 173.56C86.2993 172.839 86.4915 172.09 86.6019 171.328C86.6019 170.853 86.1751 170.365 85.9312 169.889C85.567 169.062 85.5081 168.133 85.7649 167.267C86.0217 166.4 86.5775 165.653 87.3335 165.158L87.2482 165.231L91.2966 164.877L89.8089 157.768Z" fill="#FFCAFA"/>
<path d="M335.509 280.758V285.99H328.472V282.331C325.241 289.002 324.265 281.307 321.949 282.222C322.205 278.71 322.997 278.32 325.851 280.039C326.237 280.268 326.671 280.406 327.119 280.442C327.567 280.478 328.018 280.411 328.436 280.246C331.192 277.722 333.423 278.844 335.509 280.758Z" fill="#FFCAFA"/>
<path d="M327.582 518.751C327.656 521.617 325.887 522.702 323.412 522.812C320.571 522.946 318.888 520.922 318.998 517.52C319.071 515.081 320.656 514.105 322.949 514.032C325.948 513.935 327.509 515.52 327.582 518.751Z" fill="#FFCAFA"/>
<path d="M138.403 358.606C138.5 360.764 139.159 362.947 138.403 364.52C138.049 365.3 135.196 365.178 133.525 365.093C132.963 365.062 132.417 364.895 131.934 364.607C131.451 364.319 131.045 363.918 130.751 363.438C130.457 362.958 130.284 362.414 130.247 361.853C130.21 361.292 130.31 360.73 130.537 360.215C130.871 359.499 131.346 358.857 131.932 358.327C132.519 357.797 133.205 357.39 133.952 357.13C135.22 356.898 136.805 358.045 138.403 358.606Z" fill="#FFCAFA"/>
<path d="M158.303 81.3599L162.206 80.1405C158.547 77.47 161.181 75.2629 162.657 72.9948V77.6285L163.388 78.2748C164.083 77.6407 165.217 77.0554 165.352 76.3481C165.335 75.2326 165.116 74.1294 164.705 73.0923L165.791 72.7631L167.839 77.2993L170.717 74.6775C171.632 77.0066 170.717 78.7016 169.022 80.1405C168.729 80.3966 168.083 80.7014 167.925 80.5673C164.73 77.9822 163.486 81.9696 161.254 82.5428C160.52 82.8733 159.848 83.3269 159.267 83.8841L158.377 81.3233L158.303 81.3599Z" fill="#FFCAFA"/>
<path d="M70.8715 161.402C70.9812 161.012 71.2129 160.305 71.1885 160.292C68.8473 159.439 69.2741 157.488 69.1399 155.622C69.0058 153.525 69.7496 152.586 71.847 152.464C73.9444 152.342 74.9687 152.988 75.2248 155.061C75.4809 157.134 75.8589 159.353 76.2735 162.158L70.8471 161.353L70.8715 161.402Z" fill="#FFCAFA"/>
<path d="M61.86 190.631L61.1284 192.29L65.628 192.765L64.2866 195.558C66.7255 198.485 66.7255 198.485 64.9939 203.448C63.116 202.448 61.2137 201.46 59.348 200.411C59.175 200.317 59.0231 200.188 58.9015 200.033C58.7799 199.878 58.6912 199.699 58.6407 199.509C58.6637 199.319 58.7308 199.138 58.8367 198.979C58.9426 198.82 59.0843 198.688 59.2505 198.594C61.6893 197.375 61.9941 196.155 60.3235 193.717C58.6529 191.278 58.8602 191.083 61.86 190.631Z" fill="#FFCAFA"/>
<path d="M57.4823 161.914L59.1285 164.426C60.1528 164.207 61.0917 163.939 62.0429 163.829C62.9893 163.779 63.9377 163.779 64.8841 163.829C65.1036 165.316 66.2498 166.719 63.6647 167.377C62.7257 167.609 62.116 169.158 61.0795 170.438C60.4869 169.929 59.8549 169.469 59.1894 169.06C58.6163 168.743 57.8481 168.792 57.275 168.487C55.6875 167.686 54.1521 166.786 52.6778 165.792C52.4705 165.646 52.8851 164.573 53.007 164C53.5747 164.276 54.1069 164.62 54.5923 165.024C55.1024 165.644 55.5554 166.31 55.9458 167.011L56.7018 161.914H57.4823Z" fill="#FFCAFA"/>
<path d="M112.002 252.163C113.222 249.237 112.6 248.066 108.795 246.981C109.48 246.469 110.091 245.866 110.612 245.188C110.796 244.576 110.854 243.933 110.783 243.298C114.356 244.03 115.441 245.603 114.941 249.919L116.16 248.029L119.587 251.224C117.063 255.285 116.563 255.37 112.002 252.163Z" fill="#FFCAFA"/>
<path d="M324.765 301.83C322.741 301.83 320.876 302.379 319.632 301.732C316.303 300.001 317.79 296.794 317.888 292.855L327.643 300.769C326.156 303.659 325.936 303.671 324.765 301.83Z" fill="#FFCAFA"/>
<path d="M283.001 291.733L285.037 284.002C287.829 284.197 287.903 284.282 287.476 286.977L292.719 291.416L292.268 292.465C289.951 291.477 287.281 295.318 285.098 291.343C284.976 291.123 283.696 291.538 282.952 291.648L283.001 291.733Z" fill="#FFCAFA"/>
<path d="M303.792 260.821C300.511 261.053 298.914 262.272 300.231 265.699C300.414 266.162 299.158 267.198 298.341 268.259C297.182 263.382 296.207 259.248 295.231 255.102L296.451 254.797C296.768 255.882 297.097 256.968 297.67 258.736C297.68 257.814 297.75 256.893 297.877 255.98C297.951 255.675 298.341 255.236 298.621 255.212C298.994 255.258 299.334 255.446 299.572 255.736C298.804 258.541 301.389 258.175 302.67 259.028C303.381 259.288 304.132 259.42 304.889 259.419L303.792 260.821Z" fill="#FFCAFA"/>
<path d="M91.6259 230.665C93.1257 229.311 93.9793 227.958 91.8453 226.373C91.6015 226.202 91.6137 225.568 91.6502 225.153C91.7722 223.129 91.8697 221.093 92.1502 219.056C92.4461 217.846 92.8543 216.666 93.3696 215.532L96.2109 221.422C92.5526 224.409 96.8693 228.738 94.4793 232.616L91.7112 230.543L91.6259 230.665Z" fill="#FFCAFA"/>
<path d="M322.278 254.358C322.369 255.873 322.369 257.392 322.278 258.906C322.205 259.553 321.498 260.126 320.924 260.955C323.705 262.345 321.51 264.747 321.351 266.906V266.833C320.4 266.32 319.449 265.808 318.51 265.284C320.376 262.333 318.51 256.029 314.705 254.443H322.339L322.278 254.358Z" fill="#FFCAFA"/>
<path d="M63.2258 126.466C62.5636 125.615 61.8552 124.801 61.104 124.027C58.8847 122.015 60.4333 119.942 61.482 118.467C61.9088 117.845 65.0793 118.125 65.7012 118.967C66.3231 119.808 65.9207 122.027 65.4817 123.503C65.1769 124.539 64.0916 125.356 63.2258 126.466Z" fill="#FFCAFA"/>
<path d="M294.597 280.222C293.292 276.125 291.829 272.43 286.476 276.49L286.159 275.344C286.622 274.381 286.83 272.966 287.598 272.515C289.634 271.296 294.158 273.296 295.963 276.173V273.198C298.475 274.234 298.146 276.466 294.597 280.222Z" fill="#FFCAFA"/>
<path d="M21.217 86.4692C21.5706 86.8594 22.973 87.6886 23.1681 88.7982C23.2284 89.3448 23.1722 89.8979 23.0032 90.4211C22.8341 90.9444 22.5561 91.4258 22.1873 91.8337C21.8186 92.2416 21.3676 92.5667 20.864 92.7876C20.3605 93.0084 19.8158 93.12 19.2659 93.115C18.8521 93.137 18.4385 93.0659 18.0558 92.9068C17.6731 92.7477 17.3311 92.5046 17.0548 92.1956C16.7786 91.8867 16.5753 91.5196 16.4599 91.1215C16.3445 90.7234 16.32 90.3045 16.3881 89.8957C16.4735 87.4325 17.5466 86.3838 21.217 86.4692Z" fill="#FFCAFA"/>
<path d="M123.026 314.695C124.343 312.39 123.843 308.707 127.977 309.61C129.94 310.037 131.22 313.195 130.025 315C127.684 318.56 125.599 315.146 123.026 314.695Z" fill="#FFCAFA"/>
<path d="M86.5043 231.762C85.0166 230.994 82.59 230.701 84.5898 228.385L79.9195 226.092C82.2364 225.08 83.5777 224.397 85.0776 223.897C85.7095 223.835 86.3474 223.897 86.9555 224.08L85.98 227.58L91.7844 227.909C91.7844 228.824 91.6868 229.738 91.6259 230.653L91.7112 230.579C89.7236 230.043 87.5408 228.665 86.419 231.799L86.5043 231.762Z" fill="#FFCAFA"/>
<path d="M31.4113 172.609C28.8505 175.425 31.4113 176.267 33.0453 177.425C35.6182 179.279 35.9475 181.864 34.8988 185.12C31.7405 184.778 32.3624 181.754 31.3869 179.913C30.3016 177.889 29.0334 175.962 27.7286 173.706L31.4113 172.609Z" fill="#FFCAFA"/>
<path d="M106.869 255.004C107.551 258.882 106.747 260.065 103.21 260.126C103.783 257.626 104.649 254.968 101.089 253.87C100.897 253.195 100.966 252.472 101.284 251.846C102.303 250.959 103.41 250.178 104.588 249.517C104.93 250.541 105.186 251.505 105.564 252.431C105.942 253.358 106.442 254.187 106.881 255.065L106.869 255.004Z" fill="#FFCAFA"/>
<path d="M312.169 194.704C312.169 194.802 311.974 194.18 311.632 193.314H314.376C314.205 194.534 314.083 195.595 313.937 196.729L317.595 196.448C317.278 197.668 317.034 198.68 316.705 200.009L311.242 199.436V198.485C310.667 199.054 310.015 199.538 309.303 199.923C308.553 200.053 307.786 200.053 307.035 199.923C307.499 199.436 307.95 198.936 308.425 198.46C309.559 197.387 310.657 196.253 312.169 194.704Z" fill="#FFCAFA"/>
<path d="M73.859 129.844C74.1517 132.465 71.6031 132.636 70.6276 132.283C68.8229 131.636 66.1158 130.661 67.2132 127.82C67.5912 126.844 69.3472 126.21 70.591 125.893C71.0422 125.771 71.8958 126.978 72.4567 127.661C72.996 128.388 73.4927 129.145 73.9444 129.929L73.859 129.844Z" fill="#FFCAFA"/>
<path d="M138.134 85.4937C139.195 84.6157 140.573 84.0182 140.951 83.0549C141.439 81.7013 141.927 80.0917 139.732 78.9576C138.927 78.543 139.305 75.7749 139.134 73.9702C141.573 73.6776 142.963 74.7019 142.549 77.2748C142.134 79.8478 144.134 82.1525 142.085 84.9327C140.232 87.4691 139.366 86.396 138.134 85.4937Z" fill="#FFCAFA"/>
<path d="M107.222 131.161L106.491 131.868C105.271 131.868 103.893 130.649 102.832 132.697C102.601 133.173 100.064 132.502 98.6009 132.356L98.6619 131.417L95.8572 133.307L95.1134 132.783C95.5524 132.051 95.8085 130.99 96.4548 130.649C100.869 128.332 104.539 128.563 107.222 131.161Z" fill="#FFCAFA"/>
<path d="M49.0318 296.611C48.3147 295.062 47.8181 293.42 47.5563 291.733C47.5563 291.111 49.6293 289.733 50.4463 289.928C51.5681 290.209 53.2875 291.855 53.1412 292.611C52.8607 294.123 51.4828 295.44 50.5682 296.842L49.0318 296.611Z" fill="#FFCAFA"/>
<path d="M252.637 369.775C254.418 371.629 256.295 372.726 256.21 373.702C256.044 374.412 255.693 375.067 255.195 375.599C254.696 376.132 254.067 376.525 253.369 376.738C252.332 376.738 250.723 375.153 250.272 373.921C249.979 373.104 251.43 371.714 252.637 369.775Z" fill="#FFCAFA"/>
<path d="M95.3451 260.577C95.6134 259.138 95.8816 257.687 96.284 255.468C98.1299 256.447 99.874 257.607 101.491 258.931C102.064 259.492 101.625 261.089 101.649 262.223C100.547 262.245 99.4454 262.167 98.357 261.992C97.3106 261.616 96.3021 261.143 95.3451 260.577Z" fill="#FFCAFA"/>
<path d="M104.942 79.0309C106.099 79.5673 107.181 80.2518 108.161 81.0673C109.07 81.9667 109.632 83.159 109.746 84.4329C109.746 85.0792 107.747 86.2498 106.93 86.0425C106.349 85.8153 105.828 85.459 105.405 85.0006C104.983 84.5421 104.67 83.9936 104.491 83.3964C104.21 82.055 104.759 80.5308 104.942 79.0309Z" fill="#FFCAFA"/>
<path d="M315.656 274.844L318.583 267.857L321.388 266.845L320.839 272.942C318.547 271.344 318.266 278.795 315.656 274.844Z" fill="#FFCAFA"/>
<path d="M76.2125 194.912L73.7005 192.644L83.846 191.119C83.2851 194.96 79.8585 193.558 78.1148 195.107L77.0661 198.46L75.8467 198.241L76.2125 194.912Z" fill="#FFCAFA"/>
<path d="M315.144 205.972L314.815 208.313C312.742 207.594 312.462 206.594 313.73 205.021C314.998 203.448 315.949 202.131 317.156 200.765C318.034 199.753 318.937 198.985 319.778 200.984C320.365 202 321.082 202.935 321.912 203.765L321.363 204.374L319.412 203.533L315.144 205.972Z" fill="#FFCAFA"/>
<path d="M104.222 240.042C105.442 242.591 106.295 244.359 107.344 246.517L98.4424 245.139C100.71 243.152 102.491 241.566 104.222 240.042Z" fill="#FFCAFA"/>
<path d="M8.15702 91.3468C8.80331 92.5662 9.87639 93.7856 9.93737 95.0051C9.93737 95.7611 8.14483 97.3707 7.5839 97.2C6.22975 96.5676 4.99277 95.71 3.92566 94.6636L6.68153 91.2493L8.15702 91.3468Z" fill="#FFCAFA"/>
<path d="M311.779 106.077C315.108 107.297 313.522 110.577 314.218 112.894C314.364 113.333 312.535 114.382 311.608 115.15C311.132 113.93 310.206 112.711 310.279 111.492C310.582 109.638 311.085 107.823 311.779 106.077Z" fill="#FFCAFA"/>
<path d="M69.5911 161.256C67.7376 161.597 65.7744 162.39 64.0794 162.024C63.4209 161.89 63.3355 159.085 62.9575 157.39L68.7863 156.671L67.3474 160.122C68.0791 160.524 68.8229 160.939 69.5667 161.341C69.5798 161.314 69.588 161.285 69.5911 161.256Z" fill="#FFCAFA"/>
<path d="M68.518 301.488H66.0792C66.0792 301.659 66.0792 301.927 66.0792 302.183C66.0936 303.186 66.0407 304.188 65.9207 305.183C65.9207 305.293 64.5427 305.488 64.2867 305.183C63.555 304.354 62.3844 303.122 62.6039 302.391C63.3262 300.572 64.2463 298.838 65.3476 297.22L68.518 301.488Z" fill="#FFCAFA"/>
<path d="M87.2116 165.109L78.4197 166.329L80.0781 163.036L87.9799 161.975C87.675 163.195 87.3946 164.195 87.1263 165.243L87.2116 165.109Z" fill="#FFCAFA"/>
<path d="M93.4428 211.154L91.26 217.251C88.5529 215.142 92.3087 213.666 91.4795 212.179L87.9188 208.996L93.0769 206.996L93.5159 207.874L91.3698 209.581L93.4428 211.154Z" fill="#FFCAFA"/>
<path d="M141.329 352.704C139.07 352.464 136.826 352.094 134.61 351.594C134 351.423 133.696 350.167 133.257 349.399C135.171 348.972 137.171 348.058 138.988 348.326C139.866 348.399 140.39 350.777 141.329 352.704Z" fill="#FFCAFA"/>
<path d="M51.9462 243.64C53.7913 243.54 55.6412 243.568 57.4823 243.725C57.9652 243.831 58.4216 244.033 58.824 244.32C59.2264 244.608 59.5665 244.973 59.8236 245.395C59.8961 245.791 59.8633 246.199 59.7284 246.577C59.5936 246.956 59.3615 247.293 59.0554 247.554C58.1656 247.783 57.2231 247.688 56.3971 247.286C54.7021 246.59 53.1046 245.688 51.5194 244.847L51.9462 243.64Z" fill="#FFCAFA"/>
<path d="M321.339 266.906C321.971 265.832 322.49 264.696 322.888 263.516C323.253 261.894 323.266 260.211 325.509 261.992C325.643 262.101 325.985 261.918 326.143 261.992C327.192 262.626 328.216 263.308 329.241 263.967L325.156 264.857C324.997 266.528 324.656 268.906 321.388 266.784L321.339 266.906Z" fill="#FFCAFA"/>
<path d="M260.344 302.342C260.868 303.281 261.405 304.208 262.002 305.232L253.637 308.805L252.771 307.281L260.429 302.403L260.344 302.342Z" fill="#FFCAFA"/>
<path d="M89.0164 206.203L89.8821 201.472C91.6503 200.362 92.7843 199.582 93.9794 198.923C94.3818 198.692 95.1988 198.533 95.3817 198.753C95.5395 198.948 95.6438 199.181 95.6844 199.429C95.725 199.677 95.7005 199.932 95.6134 200.167C93.7843 202.326 91.8576 204.399 89.9675 206.496L89.0164 206.203Z" fill="#FFCAFA"/>
<path d="M267.051 25.9009L263.636 24.5595C263.172 23.5133 262.765 22.4427 262.417 21.3525C262.217 20.2965 262.078 19.2297 262.002 18.1576L263.1 17.9381L264.319 20.2794C265.685 21.6573 265.88 22.2914 265.331 22.7914L267.051 25.9009Z" fill="#FFCAFA"/>
<path d="M323.753 123.283L321.815 116.894L326.619 115.589C325.973 118.454 325.4 120.784 324.936 123.1L323.753 123.283Z" fill="#FFCAFA"/>
<path d="M60.0553 149.818L57.8725 150.403L57.6165 149.55C59.8358 148.745 61.1284 145.477 64.311 147.294C64.5409 147.495 64.7154 147.753 64.8178 148.041C64.9203 148.329 64.9473 148.638 64.8964 148.94C64.2282 149.93 63.4465 150.839 62.5673 151.647L60.0553 149.818Z" fill="#FFCAFA"/>
<path d="M67.3596 95.8831L64.8354 93.7735C65.4634 93.2328 66.0542 92.6503 66.6035 92.0298C66.8718 91.6883 66.8474 91.1274 67.0181 90.6884C67.2986 89.969 67.6278 89.2617 67.9327 88.5544C68.5058 88.8105 69.4936 88.9812 69.5545 89.3227C69.6701 90.2034 69.5696 91.099 69.2619 91.9322C68.6951 93.2805 68.0602 94.5992 67.3596 95.8831Z" fill="#FFCAFA"/>
<path d="M67.9815 219.385C66.8596 221.422 66.006 223.044 65.0183 224.629C64.8476 224.897 63.6648 224.921 63.6526 224.848C63.0824 223.469 62.7644 221.999 62.7136 220.507C62.7136 219.934 64.4818 219.361 65.5183 219.068C66.3517 219.025 67.1861 219.133 67.9815 219.385Z" fill="#FFCAFA"/>
<path d="M56.8726 232.86L63.8476 237.737C56.5556 238.969 56.0922 238.713 56.8726 232.86Z" fill="#FFCAFA"/>
<path d="M81.517 355.618L78.0416 354.472C78.2123 354.008 78.2489 353.252 78.5538 353.13C80.3829 352.374 82.2852 351.765 84.1631 351.106C84.3216 351.948 84.9069 353.155 84.5655 353.545C83.6465 354.369 82.6212 355.066 81.517 355.618Z" fill="#FFCAFA"/>
<path d="M62.1161 466.755C61.5795 464.621 60.7869 462.378 64.0062 461.756C64.7866 461.609 66.2621 462.122 66.445 462.695C67.1767 464.475 64.9939 466.438 62.1161 466.755Z" fill="#FFCAFA"/>
<path d="M43.3981 20.3648C42.1787 18.7064 40.9593 17.7065 41.0812 16.8407C41.2031 15.9749 42.4591 14.914 43.2152 13.9629C44.1297 14.9018 45.5199 15.7188 45.7881 16.8041C45.971 17.548 44.5931 18.682 43.3981 20.3648Z" fill="#FFCAFA"/>
<path d="M31.8746 157.793C28.8627 154.732 26.3019 155.183 23.7289 157.634L23.1924 156.732C23.9362 155.573 24.6191 153.476 25.4361 153.415C30.3625 153.086 31.0332 153.61 31.8746 157.793Z" fill="#FFCAFA"/>
<path d="M307.621 324.194C306.401 322.328 304.962 320.853 305.182 320.463C306.085 319.313 307.241 318.387 308.559 317.755C308.852 317.597 310.291 318.707 310.23 318.841C309.645 320.402 308.816 321.877 307.621 324.194Z" fill="#FFCAFA"/>
<path d="M62.3234 142.331C61.4088 140.77 60.4699 139.233 59.6163 137.648C59.4723 137.178 59.4104 136.687 59.4334 136.197C59.9333 136.197 60.6528 135.929 60.8845 136.197C62.5063 138.197 64.0306 140.282 65.9694 142.867L61.5064 143.087L62.3234 142.331Z" fill="#FFCAFA"/>
<path d="M60.7625 181.84C59.6407 183.559 59.1041 184.925 58.1164 185.705C57.6636 185.879 57.1741 185.934 56.694 185.865C56.214 185.797 55.7592 185.608 55.3727 185.315C54.7264 184.632 54.7508 183.327 54.3728 181.84H60.7625Z" fill="#FFCAFA"/>
<path d="M298.024 62.5932L296.804 61.3738L293.853 62.1298C293.975 61.6421 293.963 61.0446 294.256 60.7031C295.804 58.8984 297.438 57.1546 299.048 55.3987C299.239 55.9264 299.334 56.4838 299.329 57.0449C299.024 58.7033 298.56 60.3861 298.024 62.5932Z" fill="#FFCAFA"/>
<path d="M33.8379 275.881C31.5942 276.454 30.1796 279.539 28.5944 276.234C28.1432 275.283 28.0944 273.21 28.5944 272.881C31.4966 271.101 31.7039 274.417 33.8379 275.881Z" fill="#FFCAFA"/>
<path d="M117.965 97.1635C117.599 97.6757 117.27 98.2 116.868 98.6756C116.101 99.6107 115.287 100.506 114.429 101.358C113.957 101.902 113.325 102.282 112.624 102.444C112.316 102.394 112.027 102.266 111.783 102.072C111.539 101.877 111.35 101.623 111.234 101.334C111.149 100.553 111.234 99.2975 111.795 98.9804C113.534 98.0155 115.33 97.1563 117.173 96.4075L117.965 97.1635Z" fill="#FFCAFA"/>
<path d="M78.444 112.15L75.4809 114.699C74.5785 113.369 73.8103 112.26 73.103 111.211L70.3959 113.077C70.2496 112.699 69.8837 112.089 69.9935 111.991C70.8105 111.235 71.8226 109.906 72.5786 110.028C74.5988 110.541 76.5634 111.252 78.444 112.15Z" fill="#FFCAFA"/>
<path d="M199.837 34.1686L201.629 31.2786C203.251 33.2784 204.8 35.1441 206.251 37.083C206.434 37.3269 206.141 38.0951 205.861 38.4609C205.739 38.6072 204.983 38.4609 204.641 38.2658C203.166 37.0464 201.702 35.766 199.837 34.1686Z" fill="#FFCAFA"/>
<path d="M307.121 343.753C308.34 345.558 309.413 346.533 309.474 347.582C309.474 348.241 307.767 349.741 307.267 349.558C306.728 349.344 306.243 349.015 305.845 348.593C305.447 348.172 305.145 347.669 304.962 347.119C304.852 346.375 306.072 345.387 307.121 343.753Z" fill="#FFCAFA"/>
<path d="M193.057 18.682C194.032 19.9014 194.959 20.8404 195.776 21.9256C196.17 22.5602 196.505 23.2297 196.776 23.9255C196.008 24.0474 195.057 24.523 194.471 24.2303C193.222 23.4846 192.042 22.6275 190.947 21.6696L193.057 18.682Z" fill="#FFCAFA"/>
<path d="M106.856 255.065L111.393 252.626C111.697 254.858 111.868 256.151 112.051 257.504C112.051 257.504 112.051 257.407 112.051 257.419C108.966 259.675 108.271 256.651 106.917 255.065H106.856Z" fill="#FFCAFA"/>
<path d="M325.583 506.923C323.814 508.216 322.875 509.362 321.924 509.362C320.973 509.362 320.376 507.923 319.595 507.13C320.424 506.338 321.156 505.143 322.119 504.899C322.875 504.789 323.888 505.874 325.583 506.923Z" fill="#FFCAFA"/>
<path d="M148.658 85.0425V80.7745L154.865 82.5915L155.157 83.3963L148.658 85.0425Z" fill="#FFCAFA"/>
<path d="M116.282 366.824C115.795 367.471 115.343 368.385 115.063 368.337C113.105 367.849 111.176 367.254 109.283 366.556C109.257 365.968 109.42 365.387 109.746 364.898C110.012 364.666 110.322 364.491 110.657 364.382C110.993 364.273 111.346 364.233 111.697 364.264C112.79 364.523 113.84 364.933 114.819 365.483C115.356 365.874 115.847 366.324 116.282 366.824Z" fill="#FFCAFA"/>
<path d="M307.913 263.467C306.218 261.65 303.974 260.309 304.633 256.724L309.413 259.663L307.913 263.467Z" fill="#FFCAFA"/>
<path d="M42.3981 312.927C41.1787 311.39 39.9593 310.402 40.0813 309.78C40.3373 308.756 41.5202 307.951 42.3128 307.049C43.1054 307.951 44.2638 308.756 44.5565 309.805C44.7272 310.415 43.5078 311.402 42.3981 312.927Z" fill="#FFCAFA"/>
<path d="M77.4319 96.3953L80.3585 96.9562C79.9175 97.5657 79.5492 98.2246 79.261 98.9194C78.9561 99.9925 78.9805 101.163 78.6269 102.2C78.4806 102.626 77.7001 102.834 77.2124 103.139C77.0295 102.602 76.6392 102.053 76.688 101.541C76.8222 99.9194 77.1514 98.3219 77.4319 96.3953Z" fill="#FFCAFA"/>
<path d="M183.582 67.1904L185.094 68.5805C184.4 69.0798 183.67 69.5281 182.911 69.9218C182.545 70.0926 182.033 69.9219 181.606 69.9828C180.57 70.117 179.546 70.3121 178.509 70.4828L182.362 67.1904C182.768 67.1524 183.176 67.1524 183.582 67.1904Z" fill="#FFCAFA"/>
<path d="M96.1621 403.98L100.259 400.163L101.954 402.602L97.0767 405.297L96.1621 403.98Z" fill="#FFCAFA"/>
<path d="M81.3828 201.496C80.8828 200.838 79.8829 200.131 79.9561 199.545C80.3097 196.863 82.4681 195.972 85.2727 195.668L81.9193 200.545L81.3828 201.496Z" fill="#FFCAFA"/>
<path d="M82.6632 229.543C82.4072 229.958 82.212 230.604 81.956 230.616C79.8464 230.799 77.7368 230.884 75.615 230.921C75.5175 230.921 75.4077 230.177 75.298 229.787C77.5539 229.299 79.7976 228.811 82.0657 228.397C82.1877 228.324 82.4315 229.08 82.6632 229.543Z" fill="#FFCAFA"/>
<path d="M300.048 283.88L293.231 285.526L297.987 279.539C298.67 280.99 299.316 282.331 300.048 283.88Z" fill="#FFCAFA"/>
<path d="M138.171 334.876L133.293 338.339L131.976 335.473C133.72 334.912 135.452 334.315 137.208 333.815C137.39 333.778 137.793 334.412 138.171 334.876Z" fill="#FFCAFA"/>
<path d="M293.231 292.952L297.353 295.184C297.353 297.037 296.865 297.452 295.048 296.757C294.061 296.379 293.012 296.184 292.036 295.781C291.467 295.472 290.932 295.104 290.439 294.684C290.902 294.367 291.354 294.038 291.829 293.745C292.305 293.452 293.11 292.952 293.231 292.952Z" fill="#FFCAFA"/>
<path d="M315.303 193.168L310.852 191.083L311.45 189.668C313.483 190.391 315.471 191.238 317.4 192.205C317.644 192.339 316.973 194.156 316.73 195.204L315.778 195.143C315.583 194.326 315.388 193.509 315.303 193.168Z" fill="#FFCAFA"/>
<path d="M23.7533 147.525C23.8729 148.772 23.8484 150.028 23.6802 151.269C23.5503 151.692 23.3305 152.082 23.0359 152.413C22.7412 152.743 22.3787 153.006 21.973 153.183C21.5686 153.173 21.1744 153.054 20.8314 152.839C20.4883 152.625 20.2088 152.323 20.0219 151.964C19.9576 151.506 19.9894 151.039 20.1154 150.594C20.2414 150.149 20.4587 149.735 20.7536 149.379C21.6612 148.623 22.6711 147.999 23.7533 147.525Z" fill="#FFCAFA"/>
<path d="M161.998 323.694L166.364 321.048C166.803 321.828 167.766 322.804 167.583 323.365C166.571 326.169 164.486 325.255 161.998 323.694Z" fill="#FFCAFA"/>
<path d="M38.3741 138.233C39.6244 137.853 40.9056 137.584 42.203 137.428C43.5129 137.516 44.8113 137.728 46.0808 138.063C46.3125 140.062 43.8371 140.745 38.6667 139.38L38.3741 138.233Z" fill="#FFCAFA"/>
<path d="M53.3972 8.31702C51.8974 9.43888 51.0316 10.6095 50.1658 10.6095C49.3 10.6095 48.6049 9.32913 47.8245 8.62187C48.5928 7.90241 49.2878 6.79275 50.1658 6.59764C51.0438 6.40254 51.8242 7.42684 53.3972 8.31702Z" fill="#FFCAFA"/>
<path d="M83.0168 378.312C84.6853 378.821 86.3153 379.448 87.8945 380.189C88.0408 380.275 87.3092 382.799 86.9555 382.811C84.9191 382.799 83.4802 381.787 83.0168 378.312Z" fill="#FFCAFA"/>
<path d="M209.946 488.742C208.726 489.729 207.86 490.937 207.275 490.815C206.397 490.632 205.141 489.534 205.117 488.778C205.092 488.022 206.275 487.12 206.921 486.339L209.946 488.742Z" fill="#FFCAFA"/>
<path d="M335.204 268.247C332.46 267.686 331.107 265.577 331.265 262.296L334.716 264.284C334.85 265.406 335.009 266.711 335.204 268.247Z" fill="#FFCAFA"/>
<path d="M98.8936 265.467C97.8457 266.202 96.7498 266.866 95.6134 267.455C95.0705 267.577 94.5016 267.495 94.0159 267.223C93.8202 266.318 93.9009 265.375 94.2476 264.516C95.0551 263.729 95.9913 263.085 97.0157 262.614L98.8936 265.467Z" fill="#FFCAFA"/>
<path d="M52.5803 108.224L57.4579 110.735L54.4947 114.918L52.5803 108.224Z" fill="#FFCAFA"/>
<path d="M181.033 58.5691L175.961 55.9108C176.29 52.4477 179.619 55.3865 181.448 54.7768C181.314 55.9718 181.192 57.1424 181.033 58.5691Z" fill="#FFCAFA"/>
<path d="M79.8464 145.684L78.127 144.184L82.7364 140.758L84.7606 142.148L79.8464 145.684Z" fill="#FFCAFA"/>
<path d="M65.1158 150.086H71.8713L67.896 154.549L65.1158 150.086Z" fill="#FFCAFA"/>
<path d="M117.148 330.535C117.782 331.535 118.685 332.327 118.563 332.974C118.392 333.827 117.343 335.254 116.916 335.169C115.799 334.742 114.76 334.132 113.844 333.364L117.148 330.535Z" fill="#FFCAFA"/>
<path d="M161.047 313.926L165.803 316.755L163.498 319.682C162.169 317.719 161.206 316.316 160.254 314.902L161.047 313.926Z" fill="#FFCAFA"/>
<path d="M102.625 138.88L100.393 144.282L96.9059 139.819L102.625 138.88Z" fill="#FFCAFA"/>
<path d="M56.7263 155.159L52.812 152.025L55.9824 149.903L57.7018 155.013L56.7263 155.159Z" fill="#FFCAFA"/>
<path d="M130.574 348.863C131.299 350.289 131.914 351.769 132.415 353.289C132.525 353.716 131.501 354.447 131.001 355.033C130.367 354.326 129.318 353.691 129.196 352.899C129.163 351.582 129.298 350.267 129.598 348.984L130.574 348.863Z" fill="#FFCAFA"/>
<path d="M47.3124 284.819L44.6419 283.087C46.0194 282.341 47.45 281.697 48.922 281.161C49.2635 281.063 49.9707 282.197 50.5073 282.758L47.3124 284.819Z" fill="#FFCAFA"/>
<path d="M27.4604 208.276L25.302 205.728L30.6674 203.435L31.3259 204.423L27.4604 208.276Z" fill="#FFCAFA"/>
<path d="M107.186 313.402L111.063 312.39C111.805 312.167 112.558 311.984 113.319 311.841C113.552 312.142 113.7 312.5 113.746 312.878C113.191 313.278 112.594 313.618 111.966 313.89C111.393 314.17 110.746 314.414 110.185 314.67L107.746 315.67L107.186 313.402Z" fill="#FFCAFA"/>
<path d="M94.2476 114.601V119.796L89.2968 118.796L94.2476 114.601Z" fill="#FFCAFA"/>
<path d="M89.4431 369.154C90.5369 370.014 91.5793 370.939 92.5648 371.922C92.6502 372.007 91.6381 373.653 91.0772 373.69C88.5164 373.861 88.5408 371.97 88.5408 370.214L89.4431 369.154Z" fill="#FFCAFA"/>
<path d="M46.2393 91.3104C45.9954 89.5056 45.7028 87.6521 45.593 85.8962C45.8118 85.6955 46.0703 85.5429 46.3518 85.4484C46.6333 85.3539 46.9314 85.3195 47.227 85.3474C47.5449 85.4977 47.8218 85.7225 48.0341 86.0028C48.2464 86.283 48.3879 86.6104 48.4464 86.9571C48.2578 88.3401 47.9602 89.706 47.5563 91.0421L46.2393 91.3104Z" fill="#FFCAFA"/>
<path d="M102.271 314.719C103.381 316.073 104.479 316.829 104.479 317.572C104.386 318.036 104.172 318.468 103.86 318.823C103.547 319.178 103.147 319.445 102.698 319.597C102.229 319.508 101.791 319.299 101.426 318.992C101.06 318.684 100.781 318.288 100.613 317.841C100.467 317.146 101.418 316.207 102.271 314.719Z" fill="#FFCAFA"/>
<path d="M83.9923 312.756C85.1262 313.839 86.174 315.009 87.1262 316.255C87.2604 316.451 86.0532 317.585 85.4556 318.292L82.7607 313.683L83.9923 312.756Z" fill="#FFCAFA"/>
<path d="M104.064 114.918C103.332 116.284 102.637 117.723 101.796 119.076C101.378 119.649 100.836 120.12 100.211 120.454C100.064 120.54 99.2594 119.942 99.2838 119.881C99.5319 119.355 99.8214 118.849 100.15 118.369C100.482 117.975 100.742 117.525 100.918 117.04C101.381 114.223 101.345 114.211 104.064 114.918Z" fill="#FFCAFA"/>
<path d="M73.9444 129.929C74.3224 129.258 74.5541 128.356 75.1638 127.99C76.0966 127.713 77.0699 127.598 78.0417 127.649L79.6025 129.551C77.8831 133.209 75.7614 129.771 73.8591 129.88L73.9444 129.929Z" fill="#FFCAFA"/>
<path d="M72.8469 323.645L70.5544 326.291C69.8472 325.499 68.7497 324.791 68.5912 323.852C68.4814 323.243 69.5545 322.048 70.3349 321.792C70.8105 321.67 71.7129 322.791 72.8469 323.645Z" fill="#FFCAFA"/>
<path d="M309.425 316.451C308.206 315.658 306.596 315.097 306.072 314.012C305.548 312.926 306.072 311.207 306.194 309.78L307.572 309.915C307.474 311.036 306.962 312.353 307.401 313.231C307.84 314.109 309.23 314.512 310.206 315.134C309.95 315.56 309.73 315.999 309.425 316.451Z" fill="#FFCAFA"/>
<path d="M55.0679 187.559L48.7757 188.912L52.6047 183.876L55.0679 187.559Z" fill="#FFCAFA"/>
<path d="M193.508 54.1548C192.581 55.278 191.506 56.2707 190.313 57.1058C189.984 57.2765 188.691 55.6425 187.874 54.8377L192.752 53.0085L193.508 54.1548Z" fill="#FFCAFA"/>
<path d="M106.942 321.292C108.003 322.361 109.008 323.485 109.954 324.657C109.475 325.252 108.945 325.803 108.368 326.303L105.478 322.401L106.942 321.292Z" fill="#FFCAFA"/>
<path d="M71.6518 290.514V294.757H67.4814L70.8836 290.282L71.6518 290.514Z" fill="#FFCAFA"/>
<path d="M89.4431 384.335C90.9308 383.372 91.7356 382.518 92.6502 382.384C93.1379 382.311 93.8696 383.469 94.4061 384.067C93.6944 384.911 92.8743 385.657 91.9673 386.286C91.699 386.445 90.7723 385.384 89.4431 384.335Z" fill="#FFCAFA"/>
<path d="M208.519 27.279C208.994 22.3038 210.263 21.0844 213.592 21.6209L208.519 27.279Z" fill="#FFCAFA"/>
<path d="M193.886 38.595L193.605 41.0338L192.959 41.2899C192.654 40.6924 191.996 39.9852 192.142 39.5096C192.565 38.0578 193.193 36.674 194.008 35.4002C194.166 35.1685 195.52 35.705 196.337 35.8757L193.886 38.595Z" fill="#FFCAFA"/>
<path d="M24.5094 233.201C23.5754 233.032 22.6575 232.783 21.7657 232.457C21.3024 232.226 21.0219 231.653 20.6561 231.238C21.1682 230.97 21.6926 230.482 22.2047 230.482C22.9413 230.596 23.6644 230.784 24.3631 231.043C25.2898 231.262 26.241 231.396 27.1677 231.579L24.5094 233.201Z" fill="#FFCAFA"/>
<path d="M158.389 81.2746L154.73 80.0551L156.596 75.1775L157.34 75.397L158.328 81.3477L158.389 81.2746Z" fill="#FFCAFA"/>
<path d="M134.378 318.56C132.135 317.414 133.025 315.414 133.269 313.744C133.366 313.158 134.488 312.731 135.147 312.231L136.22 312.878C135.578 314.804 134.935 316.731 134.293 318.658L134.378 318.56Z" fill="#FFCAFA"/>
<path d="M56.5921 282.917L60.7138 285.929L60.6162 286.977L56.397 287.221L56.5921 282.917Z" fill="#FFCAFA"/>
<path d="M237.712 305.037C238.199 306.439 238.687 307.829 239.272 309.524L235.761 309.719C236.407 307.927 233.7 305.22 237.797 305.122L237.712 305.037Z" fill="#FFCAFA"/>
<path d="M103.905 282.868C105.052 284.197 106.039 284.88 106.259 285.746C106.393 286.282 105.32 287.099 104.796 287.794C104.027 287.148 102.954 286.575 102.613 285.807C102.43 285.27 103.235 284.295 103.905 282.868Z" fill="#FFCAFA"/>
<path d="M298.585 75.5554L296.317 81.372C295.902 79.9941 295.646 79.1771 295.353 78.2137H292.585L292.488 77.5431L298.585 75.5554Z" fill="#FFCAFA"/>
<path d="M2.34044 277.698C1.54782 276.051 0.682036 274.43 0.0235526 272.722C-0.122777 272.344 0.450347 271.698 0.706424 271.162C1.16766 271.509 1.57809 271.92 1.92584 272.381C2.51214 273.398 2.98252 274.478 3.32816 275.6C3.40051 276.332 3.34689 277.07 3.16964 277.783L2.34044 277.698Z" fill="#FFCAFA"/>
<path d="M79.5659 319.78C80.5902 321.133 81.6511 321.95 81.7486 322.877C81.7486 323.45 80.4073 324.182 79.6634 324.84C79.0537 324.06 78.1148 323.34 77.944 322.474C77.8221 321.865 78.7489 320.999 79.5659 319.78Z" fill="#FFCAFA"/>
<path d="M326.717 200.838L330.753 197.046C331.058 197.424 331.692 197.923 331.606 198.155C331.298 199.237 330.766 200.242 330.046 201.106C329.533 201.606 328.412 201.472 327.607 201.631L326.717 200.838Z" fill="#FFCAFA"/>
<path d="M121.075 127.868L117.246 126.966L118.099 123.369C118.49 125.283 123.379 124.332 121.002 127.929L121.075 127.868Z" fill="#FFCAFA"/>
<path d="M58.531 338.242L55.897 335.242C56.6897 334.693 57.4335 333.852 58.3359 333.705C58.7748 333.632 59.7748 334.754 59.8845 335.437C59.9943 336.12 59.226 336.851 58.531 338.242Z" fill="#FFCAFA"/>
<path d="M281.049 40.6194C283.488 41.7047 283.488 41.7047 283.391 46.7165C282.269 44.8629 281.159 43.0582 280.037 41.1681L281.049 40.6194Z" fill="#FFCAFA"/>
<path d="M65.006 182.998C63.9573 184.425 62.9452 185.9 61.8234 187.266C61.5551 187.595 60.6039 187.839 60.482 187.693C60.1284 187.266 59.7138 186.29 59.8845 186.107C61.299 184.693 62.8477 183.425 64.3475 182.096L65.006 182.998Z" fill="#FFCAFA"/>
<path d="M309.864 160.414L303.511 160.829C302.962 158.634 303.218 158.195 305.279 158.549C306.791 158.817 308.267 159.329 309.767 159.768L309.864 160.414Z" fill="#FFCAFA"/>
<path d="M100.442 381.97H96.6499L96.8328 379.177L100.613 380.043L100.442 381.97Z" fill="#FFCAFA"/>
<path d="M55.2142 82.1892L50.7634 79.3236L53.5192 76.8848L55.7142 81.299L55.2142 82.1892Z" fill="#FFCAFA"/>
<path d="M322.351 193.18L323.729 195.241C321.18 197.68 320.071 194.9 318.29 194.375L318.412 193.156L322.351 193.18Z" fill="#FFCAFA"/>
<path d="M271.928 389.469C274.489 392.457 273.794 393.664 271.624 394.042C270.79 394.017 269.966 393.856 269.185 393.566C269.786 393.145 270.327 392.644 270.794 392.079C271.243 391.241 271.622 390.368 271.928 389.469Z" fill="#FFCAFA"/>
<path d="M94.3573 17.6333V21.6818C93.2361 21.3382 92.1501 20.8891 91.1137 20.3404C90.9654 20.0981 90.8721 19.8261 90.8405 19.5437C90.8089 19.2614 90.8397 18.9755 90.9308 18.7064C92.0458 18.2671 93.1909 17.9084 94.3573 17.6333Z" fill="#FFCAFA"/>
<path d="M141.451 294.233C139.646 297.708 137.976 297.318 136.342 296.294C136.013 296.099 136.11 295.221 136.013 294.648L141.451 294.233Z" fill="#FFCAFA"/>
<path d="M52.4339 165.048C49.1781 168.536 47.6295 168.706 45.6662 166.182L52.4339 165.048Z" fill="#FFCAFA"/>
<path d="M134.293 318.56L135.513 318.194L138.537 317.438V320.999L137.647 321.389L134.379 318.56H134.293Z" fill="#FFCAFA"/>
<path d="M132.037 93.0906L124.806 91.8712C127.891 89.7982 130.037 89.5665 132.037 93.0906Z" fill="#FFCAFA"/>
<path d="M321.144 152.72L324.241 155.159C323.534 155.671 322.546 156.744 322.156 156.561C321.252 155.943 320.464 155.171 319.827 154.281L321.144 152.72Z" fill="#FFCAFA"/>
<path d="M47.3246 220.471L48.0928 225.787C44.8492 224.824 44.776 224.568 46.2759 220.678L47.3246 220.471Z" fill="#FFCAFA"/>
<path d="M99.0765 211.959L96.3329 215.117C96.1865 213.313 96.0158 211.715 95.967 210.106C96.0073 209.915 96.0926 209.738 96.2156 209.587C96.3386 209.436 96.4959 209.317 96.6743 209.24C96.8721 209.224 97.0709 209.254 97.255 209.328C97.4392 209.402 97.6035 209.518 97.7352 209.667C98.2265 210.404 98.6744 211.17 99.0765 211.959Z" fill="#FFCAFA"/>
<path d="M117.27 299.293C116.221 300.232 115.843 300.83 115.343 300.952C114.514 301.095 113.669 301.127 112.831 301.049C111.856 301.049 110.893 300.952 109.917 300.903C110.76 300.262 111.687 299.741 112.673 299.354C114.2 299.186 115.739 299.165 117.27 299.293Z" fill="#FFCAFA"/>
<path d="M120.38 91.4322C117.794 93.2004 115.807 92.5297 115.295 89.8836C115.225 89.6778 115.225 89.4549 115.295 89.2492C115.365 89.0435 115.5 88.8665 115.681 88.7457C115.861 88.6249 116.077 88.567 116.293 88.5809C116.51 88.5948 116.716 88.6798 116.88 88.8227C117.49 89.2251 117.929 89.8592 118.514 90.3103C119.115 90.7182 119.738 91.0927 120.38 91.4322Z" fill="#FFCAFA"/>
<path d="M108.259 367.398L105.491 369.776L103.93 367.666L107.198 365.983L108.259 367.398Z" fill="#FFCAFA"/>
<path d="M68.2862 237.384L69.1398 241.371L68.3594 242.03C67.4814 241.188 66.2376 240.493 65.8474 239.457C65.6279 238.884 66.8351 237.774 67.3839 236.908L68.2862 237.384Z" fill="#FFCAFA"/>
<path d="M6.65718 325.047L8.19364 327.755L5.5719 328.828L5.16949 325.596L6.65718 325.047Z" fill="#FFCAFA"/>
<path d="M61.7259 255.907C61.3884 254.581 61.1278 253.238 60.9454 251.883C60.9454 251.724 62.1648 251.456 62.8477 251.236L63.3233 255.712L61.7259 255.907Z" fill="#FFCAFA"/>
<path d="M287.5 91.0542C290.049 87.9082 291.475 88.152 293.024 91.8469L287.5 91.0542Z" fill="#FFCAFA"/>
<path d="M311.742 280.49C311.607 279.458 311.607 278.413 311.742 277.381C312.103 277.228 312.491 277.149 312.882 277.149C313.274 277.149 313.662 277.228 314.022 277.381C314.486 277.746 314.681 279.356 314.364 279.612C313.504 280.058 312.57 280.344 311.608 280.454L311.742 280.49Z" fill="#FFCAFA"/>
<path d="M153.95 392.03C153.377 390.603 152.804 389.164 152.219 387.725L154.34 387.274C154.657 388.737 154.962 390.2 155.279 391.676L153.95 392.03Z" fill="#FFCAFA"/>
<path d="M40.2398 234.055L37.2645 230.762L40.9227 229.543V233.53L40.2398 234.055Z" fill="#FFCAFA"/>
<path d="M311.669 280.417C311.01 281.783 310.352 283.148 309.645 284.636C305.865 282.819 309.998 281.441 308.669 279.6L311.742 280.49L311.669 280.417Z" fill="#FFCAFA"/>
<path d="M118.88 112.65C119.072 113.634 119.134 114.638 119.063 115.638C118.744 116.414 118.285 117.125 117.709 117.735C117.319 116.93 116.49 116.04 116.648 115.296C117.03 114.249 117.582 113.273 118.282 112.406L118.88 112.65Z" fill="#FFCAFA"/>
<path d="M327.412 473.218L331.582 469.999L332.155 470.572C331.936 471.706 331.704 472.84 331.387 474.413L327.412 473.218Z" fill="#FFCAFA"/>
<path d="M129.83 112.016L124.77 108.236C128.635 107.321 129.562 109.284 130.574 111.15L129.83 112.016Z" fill="#FFCAFA"/>
<path d="M57.8847 230.933H55.5434C55.202 229.506 54.8728 228.494 54.7142 227.385C54.7312 226.879 54.8472 226.382 55.0557 225.921C55.5434 226.19 56.2751 226.336 56.4824 226.738C57.0433 228.007 57.3848 229.385 57.8847 230.933Z" fill="#FFCAFA"/>
<path d="M302.487 245.151L301.146 243.042C302.706 239.993 304.999 240.371 307.828 241.7C306.255 243.261 304.853 244.883 302.414 245.09L302.487 245.151Z" fill="#FFCAFA"/>
</svg>
